<mxfile host="app.diagrams.net" modified="2022-07-18T21:05:52.203Z" agent="5.0 (X11; Linux x86_64) AppleWebKit/537.36 (KHTML, like Gecko) Chrome/103.0.0.0 Safari/537.36" etag="4DcIYsNiusLqf1p6pnMt" version="20.1.1" type="github">
  <diagram id="-xp2_UzYM689K54tnIvM" name="Page-1">
    <mxGraphModel dx="4538" dy="1449" grid="1" gridSize="10" guides="1" tooltips="1" connect="1" arrows="1" fold="1" page="1" pageScale="1" pageWidth="850" pageHeight="1100" math="0" shadow="0">
      <root>
        <mxCell id="0" />
        <mxCell id="1" parent="0" />
        <mxCell id="k1PRUhjrjEu_5gplpjs3-7" value="" style="endArrow=classic;html=1;rounded=0;exitX=0.5;exitY=1;exitDx=0;exitDy=0;entryX=0.5;entryY=0;entryDx=0;entryDy=0;" parent="1" source="XtWTOUynfwI3D9E_zNgG-32" target="k1PRUhjrjEu_5gplpjs3-6" edge="1">
          <mxGeometry width="50" height="50" relative="1" as="geometry">
            <mxPoint x="-220" y="1630" as="sourcePoint" />
            <mxPoint x="-170" y="1580" as="targetPoint" />
          </mxGeometry>
        </mxCell>
        <mxCell id="vRdH5xnazJ3HthhxBtj9-31" value="" style="endArrow=classic;html=1;rounded=0;exitX=0.5;exitY=1;exitDx=0;exitDy=0;" parent="1" source="vRdH5xnazJ3HthhxBtj9-3" target="vRdH5xnazJ3HthhxBtj9-25" edge="1">
          <mxGeometry width="50" height="50" relative="1" as="geometry">
            <mxPoint x="-1450" y="1800" as="sourcePoint" />
            <mxPoint x="-1400" y="1750" as="targetPoint" />
          </mxGeometry>
        </mxCell>
        <mxCell id="XtWTOUynfwI3D9E_zNgG-14" value="" style="rounded=0;whiteSpace=wrap;html=1;" parent="1" vertex="1">
          <mxGeometry x="-560" y="630" width="1120" height="80" as="geometry" />
        </mxCell>
        <mxCell id="XtWTOUynfwI3D9E_zNgG-5" value="Sprint 0&lt;br&gt;30/06/22 to&lt;br&gt;15/07/22" style="rounded=1;whiteSpace=wrap;html=1;" parent="1" vertex="1">
          <mxGeometry x="-60" y="300" width="120" height="60" as="geometry" />
        </mxCell>
        <mxCell id="XtWTOUynfwI3D9E_zNgG-6" value="Principles" style="rounded=1;whiteSpace=wrap;html=1;" parent="1" vertex="1">
          <mxGeometry x="-60" y="520" width="120" height="60" as="geometry" />
        </mxCell>
        <mxCell id="XtWTOUynfwI3D9E_zNgG-7" value="continued business justification" style="rounded=1;whiteSpace=wrap;html=1;" parent="1" vertex="1">
          <mxGeometry x="-540" y="640" width="120" height="60" as="geometry" />
        </mxCell>
        <mxCell id="XtWTOUynfwI3D9E_zNgG-8" value="learn from experience" style="rounded=1;whiteSpace=wrap;html=1;" parent="1" vertex="1">
          <mxGeometry x="-380" y="640" width="120" height="60" as="geometry" />
        </mxCell>
        <mxCell id="XtWTOUynfwI3D9E_zNgG-9" value="define roles and responsibilities" style="rounded=1;whiteSpace=wrap;html=1;" parent="1" vertex="1">
          <mxGeometry x="-220" y="640" width="120" height="60" as="geometry" />
        </mxCell>
        <mxCell id="XtWTOUynfwI3D9E_zNgG-10" value="manage by stages" style="rounded=1;whiteSpace=wrap;html=1;" parent="1" vertex="1">
          <mxGeometry x="-60" y="640" width="120" height="60" as="geometry" />
        </mxCell>
        <mxCell id="XtWTOUynfwI3D9E_zNgG-11" value="manage by exception" style="rounded=1;whiteSpace=wrap;html=1;" parent="1" vertex="1">
          <mxGeometry x="100" y="640" width="120" height="60" as="geometry" />
        </mxCell>
        <mxCell id="XtWTOUynfwI3D9E_zNgG-12" value="focus on products" style="rounded=1;whiteSpace=wrap;html=1;" parent="1" vertex="1">
          <mxGeometry x="260" y="640" width="120" height="60" as="geometry" />
        </mxCell>
        <mxCell id="XtWTOUynfwI3D9E_zNgG-13" value="tailor to suit the project" style="rounded=1;whiteSpace=wrap;html=1;" parent="1" vertex="1">
          <mxGeometry x="420" y="640" width="120" height="60" as="geometry" />
        </mxCell>
        <mxCell id="XtWTOUynfwI3D9E_zNgG-15" value="" style="endArrow=classic;html=1;rounded=0;entryX=0.5;entryY=0;entryDx=0;entryDy=0;exitX=0.5;exitY=1;exitDx=0;exitDy=0;" parent="1" source="XtWTOUynfwI3D9E_zNgG-6" target="XtWTOUynfwI3D9E_zNgG-14" edge="1">
          <mxGeometry width="50" height="50" relative="1" as="geometry">
            <mxPoint x="-320" y="530" as="sourcePoint" />
            <mxPoint x="-270" y="480" as="targetPoint" />
          </mxGeometry>
        </mxCell>
        <mxCell id="XtWTOUynfwI3D9E_zNgG-17" value="Themes" style="rounded=1;whiteSpace=wrap;html=1;" parent="1" vertex="1">
          <mxGeometry x="-60" y="800" width="120" height="60" as="geometry" />
        </mxCell>
        <mxCell id="XtWTOUynfwI3D9E_zNgG-18" value="Business case" style="rounded=1;whiteSpace=wrap;html=1;" parent="1" vertex="1">
          <mxGeometry x="-2960" y="920" width="120" height="60" as="geometry" />
        </mxCell>
        <mxCell id="XtWTOUynfwI3D9E_zNgG-19" value="Organisation" style="rounded=1;whiteSpace=wrap;html=1;" parent="1" vertex="1">
          <mxGeometry x="-2110" y="920" width="120" height="60" as="geometry" />
        </mxCell>
        <mxCell id="XtWTOUynfwI3D9E_zNgG-20" value="Quality" style="rounded=1;whiteSpace=wrap;html=1;" parent="1" vertex="1">
          <mxGeometry x="-1490" y="920" width="120" height="60" as="geometry" />
        </mxCell>
        <mxCell id="XtWTOUynfwI3D9E_zNgG-21" value="Plans" style="rounded=1;whiteSpace=wrap;html=1;" parent="1" vertex="1">
          <mxGeometry x="-60" y="920" width="120" height="60" as="geometry" />
        </mxCell>
        <mxCell id="XtWTOUynfwI3D9E_zNgG-22" value="Risk" style="rounded=1;whiteSpace=wrap;html=1;" parent="1" vertex="1">
          <mxGeometry x="1220" y="920" width="120" height="60" as="geometry" />
        </mxCell>
        <mxCell id="XtWTOUynfwI3D9E_zNgG-23" value="Change" style="rounded=1;whiteSpace=wrap;html=1;" parent="1" vertex="1">
          <mxGeometry x="1920" y="919" width="120" height="60" as="geometry" />
        </mxCell>
        <mxCell id="XtWTOUynfwI3D9E_zNgG-24" value="Progress" style="rounded=1;whiteSpace=wrap;html=1;" parent="1" vertex="1">
          <mxGeometry x="2920" y="919" width="120" height="60" as="geometry" />
        </mxCell>
        <mxCell id="XtWTOUynfwI3D9E_zNgG-25" value="Is it Desirable? [what is wanted]" style="swimlane;fontStyle=0;childLayout=stackLayout;horizontal=1;startSize=30;horizontalStack=0;resizeParent=1;resizeParentMax=0;resizeLast=0;collapsible=1;marginBottom=0;" parent="1" vertex="1">
          <mxGeometry x="-3360" y="1390" width="280" height="130" as="geometry">
            <mxRectangle x="-1600" y="1160" width="210" height="30" as="alternateBounds" />
          </mxGeometry>
        </mxCell>
        <mxCell id="XtWTOUynfwI3D9E_zNgG-26" value="Increase user visibility, control, enjoyability of user when interacting with Crypto productsÂ " style="text;strokeColor=none;fillColor=none;align=left;verticalAlign=middle;spacingLeft=4;spacingRight=4;overflow=hidden;points=[[0,0.5],[1,0.5]];portConstraint=eastwest;rotatable=0;whiteSpace=wrap;" parent="XtWTOUynfwI3D9E_zNgG-25" vertex="1">
          <mxGeometry y="30" width="280" height="40" as="geometry" />
        </mxCell>
        <mxCell id="XtWTOUynfwI3D9E_zNgG-27" value="Interaction with the Crypto Exchange Platform need to be secure" style="text;strokeColor=none;fillColor=none;align=left;verticalAlign=middle;spacingLeft=4;spacingRight=4;overflow=hidden;points=[[0,0.5],[1,0.5]];portConstraint=eastwest;rotatable=0;whiteSpace=wrap;" parent="XtWTOUynfwI3D9E_zNgG-25" vertex="1">
          <mxGeometry y="70" width="280" height="30" as="geometry" />
        </mxCell>
        <mxCell id="XtWTOUynfwI3D9E_zNgG-28" value="The platform need to excute instructions very quickly" style="text;strokeColor=none;fillColor=none;align=left;verticalAlign=middle;spacingLeft=4;spacingRight=4;overflow=hidden;points=[[0,0.5],[1,0.5]];portConstraint=eastwest;rotatable=0;whiteSpace=wrap;" parent="XtWTOUynfwI3D9E_zNgG-25" vertex="1">
          <mxGeometry y="100" width="280" height="30" as="geometry" />
        </mxCell>
        <mxCell id="XtWTOUynfwI3D9E_zNgG-29" value="why?" style="rounded=1;whiteSpace=wrap;html=1;" parent="1" vertex="1">
          <mxGeometry x="-2960" y="1041" width="120" height="60" as="geometry" />
        </mxCell>
        <mxCell id="XtWTOUynfwI3D9E_zNgG-30" value="who?" style="rounded=1;whiteSpace=wrap;html=1;" parent="1" vertex="1">
          <mxGeometry x="-2109" y="1041" width="120" height="60" as="geometry" />
        </mxCell>
        <mxCell id="XtWTOUynfwI3D9E_zNgG-31" value="what?" style="rounded=1;whiteSpace=wrap;html=1;" parent="1" vertex="1">
          <mxGeometry x="-1489" y="1041" width="120" height="60" as="geometry" />
        </mxCell>
        <mxCell id="XtWTOUynfwI3D9E_zNgG-32" value="how? &lt;br&gt;how much?&lt;br&gt;&amp;nbsp;when?" style="rounded=1;whiteSpace=wrap;html=1;" parent="1" vertex="1">
          <mxGeometry x="-59" y="1041" width="120" height="60" as="geometry" />
        </mxCell>
        <mxCell id="XtWTOUynfwI3D9E_zNgG-33" value="what if?" style="rounded=1;whiteSpace=wrap;html=1;" parent="1" vertex="1">
          <mxGeometry x="1221" y="1041" width="120" height="60" as="geometry" />
        </mxCell>
        <mxCell id="XtWTOUynfwI3D9E_zNgG-34" value="what is the impact?" style="rounded=1;whiteSpace=wrap;html=1;" parent="1" vertex="1">
          <mxGeometry x="1921" y="1040" width="120" height="60" as="geometry" />
        </mxCell>
        <mxCell id="XtWTOUynfwI3D9E_zNgG-35" value="where are we now?&lt;br&gt;where are we going?&lt;br&gt;should we carry on?" style="rounded=1;whiteSpace=wrap;html=1;" parent="1" vertex="1">
          <mxGeometry x="2920" y="1040" width="120" height="60" as="geometry" />
        </mxCell>
        <mxCell id="XtWTOUynfwI3D9E_zNgG-36" value="Is it Viable? [can it work as intended]" style="swimlane;fontStyle=0;childLayout=stackLayout;horizontal=1;startSize=30;horizontalStack=0;resizeParent=1;resizeParentMax=0;resizeLast=0;collapsible=1;marginBottom=0;" parent="1" vertex="1">
          <mxGeometry x="-3040" y="1390" width="280" height="140" as="geometry">
            <mxRectangle x="-1280" y="1160" width="240" height="30" as="alternateBounds" />
          </mxGeometry>
        </mxCell>
        <mxCell id="XtWTOUynfwI3D9E_zNgG-37" value="Item 1 will allow better visibility and control for the users over their tokens which will positively impact the user&#39;s confidence in using Crypto Products and increase mass adoption" style="text;strokeColor=none;fillColor=none;align=left;verticalAlign=middle;spacingLeft=4;spacingRight=4;overflow=hidden;points=[[0,0.5],[1,0.5]];portConstraint=eastwest;rotatable=0;whiteSpace=wrap;" parent="XtWTOUynfwI3D9E_zNgG-36" vertex="1">
          <mxGeometry y="30" width="280" height="60" as="geometry" />
        </mxCell>
        <mxCell id="XtWTOUynfwI3D9E_zNgG-38" value="Item 2 and 3 will increase the reliability of UCEP to the users which will increase Crypto adoption" style="text;strokeColor=none;fillColor=none;align=left;verticalAlign=middle;spacingLeft=4;spacingRight=4;overflow=hidden;points=[[0,0.5],[1,0.5]];portConstraint=eastwest;rotatable=0;whiteSpace=wrap;" parent="XtWTOUynfwI3D9E_zNgG-36" vertex="1">
          <mxGeometry y="90" width="280" height="50" as="geometry" />
        </mxCell>
        <mxCell id="XtWTOUynfwI3D9E_zNgG-40" value="Is it Achievable? [possible to complete]" style="swimlane;fontStyle=0;childLayout=stackLayout;horizontal=1;startSize=30;horizontalStack=0;resizeParent=1;resizeParentMax=0;resizeLast=0;collapsible=1;marginBottom=0;" parent="1" vertex="1">
          <mxGeometry x="-2720" y="1390" width="280" height="100" as="geometry">
            <mxRectangle x="-960" y="1160" width="250" height="30" as="alternateBounds" />
          </mxGeometry>
        </mxCell>
        <mxCell id="XtWTOUynfwI3D9E_zNgG-41" value="Items 1, 2 &amp; 3 already exist through different platforms but the challenge is the group all those functionality into 1 decentralised platform that is accurate, secure and fast to interact withinÂ " style="text;strokeColor=none;fillColor=none;align=left;verticalAlign=middle;spacingLeft=4;spacingRight=4;overflow=hidden;points=[[0,0.5],[1,0.5]];portConstraint=eastwest;rotatable=0;whiteSpace=wrap;" parent="XtWTOUynfwI3D9E_zNgG-40" vertex="1">
          <mxGeometry y="30" width="280" height="70" as="geometry" />
        </mxCell>
        <mxCell id="XtWTOUynfwI3D9E_zNgG-50" value="UCEP" style="rounded=1;whiteSpace=wrap;html=1;" parent="1" vertex="1">
          <mxGeometry x="-59" y="40" width="120" height="60" as="geometry" />
        </mxCell>
        <mxCell id="XtWTOUynfwI3D9E_zNgG-51" value="UCEP&lt;br&gt;Agile Methodology" style="rounded=1;whiteSpace=wrap;html=1;" parent="1" vertex="1">
          <mxGeometry x="-60" y="160" width="120" height="60" as="geometry" />
        </mxCell>
        <mxCell id="XtWTOUynfwI3D9E_zNgG-52" value="" style="endArrow=classic;html=1;rounded=0;entryX=0.5;entryY=0;entryDx=0;entryDy=0;exitX=0.5;exitY=1;exitDx=0;exitDy=0;" parent="1" source="XtWTOUynfwI3D9E_zNgG-51" target="XtWTOUynfwI3D9E_zNgG-5" edge="1">
          <mxGeometry width="50" height="50" relative="1" as="geometry">
            <mxPoint x="130" y="240" as="sourcePoint" />
            <mxPoint x="180" y="190" as="targetPoint" />
          </mxGeometry>
        </mxCell>
        <mxCell id="XtWTOUynfwI3D9E_zNgG-53" value="" style="endArrow=classic;startArrow=classic;html=1;rounded=0;entryX=0.5;entryY=1;entryDx=0;entryDy=0;exitX=0.5;exitY=0;exitDx=0;exitDy=0;" parent="1" source="XtWTOUynfwI3D9E_zNgG-51" target="XtWTOUynfwI3D9E_zNgG-50" edge="1">
          <mxGeometry width="50" height="50" relative="1" as="geometry">
            <mxPoint x="-120" y="150" as="sourcePoint" />
            <mxPoint x="-70" y="100" as="targetPoint" />
          </mxGeometry>
        </mxCell>
        <mxCell id="XtWTOUynfwI3D9E_zNgG-54" value="" style="endArrow=classic;html=1;rounded=0;exitX=0.5;exitY=1;exitDx=0;exitDy=0;" parent="1" source="XtWTOUynfwI3D9E_zNgG-5" target="XtWTOUynfwI3D9E_zNgG-6" edge="1">
          <mxGeometry width="50" height="50" relative="1" as="geometry">
            <mxPoint x="10" y="230.00000000000023" as="sourcePoint" />
            <mxPoint x="10" y="309.9999999999998" as="targetPoint" />
          </mxGeometry>
        </mxCell>
        <mxCell id="XtWTOUynfwI3D9E_zNgG-55" value="MVP" style="swimlane;fontStyle=0;childLayout=stackLayout;horizontal=1;startSize=30;horizontalStack=0;resizeParent=1;resizeParentMax=0;resizeLast=0;collapsible=1;marginBottom=0;" parent="1" vertex="1">
          <mxGeometry x="-3080" y="1670" width="360" height="120" as="geometry" />
        </mxCell>
        <mxCell id="iUvvFjzNi27CCmDbadeU-1" value="[Visibility] Allow users to see all tokens they posse in their MetaMask Wallet in all blockchainsÂ " style="text;strokeColor=none;fillColor=none;align=left;verticalAlign=middle;spacingLeft=4;spacingRight=4;overflow=hidden;points=[[0,0.5],[1,0.5]];portConstraint=eastwest;rotatable=0;whiteSpace=wrap;" parent="XtWTOUynfwI3D9E_zNgG-55" vertex="1">
          <mxGeometry y="30" width="360" height="30" as="geometry" />
        </mxCell>
        <mxCell id="iUvvFjzNi27CCmDbadeU-2" value="[Visibility] Allow user to see quantity and price of their tokens" style="text;strokeColor=none;fillColor=none;align=left;verticalAlign=middle;spacingLeft=4;spacingRight=4;overflow=hidden;points=[[0,0.5],[1,0.5]];portConstraint=eastwest;rotatable=0;whiteSpace=wrap;" parent="XtWTOUynfwI3D9E_zNgG-55" vertex="1">
          <mxGeometry y="60" width="360" height="30" as="geometry" />
        </mxCell>
        <mxCell id="iUvvFjzNi27CCmDbadeU-3" value="[Control] Allow user to buy, sell and exchange tokens" style="text;strokeColor=none;fillColor=none;align=left;verticalAlign=middle;spacingLeft=4;spacingRight=4;overflow=hidden;points=[[0,0.5],[1,0.5]];portConstraint=eastwest;rotatable=0;whiteSpace=wrap;" parent="XtWTOUynfwI3D9E_zNgG-55" vertex="1">
          <mxGeometry y="90" width="360" height="30" as="geometry" />
        </mxCell>
        <mxCell id="XtWTOUynfwI3D9E_zNgG-59" value="" style="endArrow=classic;html=1;rounded=0;entryX=0.5;entryY=0;entryDx=0;entryDy=0;exitX=-0.01;exitY=0.967;exitDx=0;exitDy=0;exitPerimeter=0;" parent="1" source="u2Ux1-ScnYIHnxnn0vt9-2" target="XtWTOUynfwI3D9E_zNgG-25" edge="1">
          <mxGeometry width="50" height="50" relative="1" as="geometry">
            <mxPoint x="-3160" y="1170" as="sourcePoint" />
            <mxPoint x="-3040" y="930" as="targetPoint" />
          </mxGeometry>
        </mxCell>
        <mxCell id="XtWTOUynfwI3D9E_zNgG-60" value="" style="endArrow=classic;html=1;rounded=0;exitX=0.497;exitY=1.124;exitDx=0;exitDy=0;exitPerimeter=0;" parent="1" source="u2Ux1-ScnYIHnxnn0vt9-2" target="XtWTOUynfwI3D9E_zNgG-36" edge="1">
          <mxGeometry width="50" height="50" relative="1" as="geometry">
            <mxPoint x="-2900" y="1280" as="sourcePoint" />
            <mxPoint x="-3210" y="1210" as="targetPoint" />
          </mxGeometry>
        </mxCell>
        <mxCell id="XtWTOUynfwI3D9E_zNgG-61" value="" style="endArrow=classic;html=1;rounded=0;entryX=0.527;entryY=0.001;entryDx=0;entryDy=0;entryPerimeter=0;exitX=1.01;exitY=1.006;exitDx=0;exitDy=0;exitPerimeter=0;" parent="1" source="u2Ux1-ScnYIHnxnn0vt9-2" target="XtWTOUynfwI3D9E_zNgG-40" edge="1">
          <mxGeometry width="50" height="50" relative="1" as="geometry">
            <mxPoint x="-2710" y="1240" as="sourcePoint" />
            <mxPoint x="-2890" y="1210" as="targetPoint" />
          </mxGeometry>
        </mxCell>
        <mxCell id="XtWTOUynfwI3D9E_zNgG-62" value="" style="endArrow=classic;html=1;rounded=0;entryX=0.5;entryY=0;entryDx=0;entryDy=0;exitX=0.438;exitY=1.006;exitDx=0;exitDy=0;exitPerimeter=0;" parent="1" source="XtWTOUynfwI3D9E_zNgG-28" target="XtWTOUynfwI3D9E_zNgG-55" edge="1">
          <mxGeometry width="50" height="50" relative="1" as="geometry">
            <mxPoint x="-3260" y="1420" as="sourcePoint" />
            <mxPoint x="-2880" y="1670" as="targetPoint" />
          </mxGeometry>
        </mxCell>
        <mxCell id="XtWTOUynfwI3D9E_zNgG-63" value="" style="endArrow=classic;html=1;rounded=0;entryX=0.5;entryY=0;entryDx=0;entryDy=0;exitX=0.5;exitY=1;exitDx=0;exitDy=0;" parent="1" source="XtWTOUynfwI3D9E_zNgG-36" target="XtWTOUynfwI3D9E_zNgG-55" edge="1">
          <mxGeometry width="50" height="50" relative="1" as="geometry">
            <mxPoint x="-2920" y="1430" as="sourcePoint" />
            <mxPoint x="-2890" y="1680" as="targetPoint" />
          </mxGeometry>
        </mxCell>
        <mxCell id="XtWTOUynfwI3D9E_zNgG-64" value="" style="endArrow=classic;html=1;rounded=0;exitX=0.5;exitY=1;exitDx=0;exitDy=0;entryX=0.5;entryY=0;entryDx=0;entryDy=0;" parent="1" source="XtWTOUynfwI3D9E_zNgG-40" target="XtWTOUynfwI3D9E_zNgG-55" edge="1">
          <mxGeometry width="50" height="50" relative="1" as="geometry">
            <mxPoint x="-2890" y="1540" as="sourcePoint" />
            <mxPoint x="-2830" y="1640" as="targetPoint" />
          </mxGeometry>
        </mxCell>
        <mxCell id="XtWTOUynfwI3D9E_zNgG-65" value="" style="endArrow=classic;html=1;rounded=0;entryX=0.5;entryY=0;entryDx=0;entryDy=0;exitX=0.5;exitY=1;exitDx=0;exitDy=0;" parent="1" source="XtWTOUynfwI3D9E_zNgG-18" target="XtWTOUynfwI3D9E_zNgG-29" edge="1">
          <mxGeometry width="50" height="50" relative="1" as="geometry">
            <mxPoint x="-3000" y="820" as="sourcePoint" />
            <mxPoint x="-2950" y="770" as="targetPoint" />
          </mxGeometry>
        </mxCell>
        <mxCell id="iUvvFjzNi27CCmDbadeU-4" value="" style="endArrow=classic;html=1;rounded=0;entryX=0.5;entryY=0;entryDx=0;entryDy=0;exitX=0;exitY=1;exitDx=0;exitDy=0;" parent="1" source="XtWTOUynfwI3D9E_zNgG-17" target="XtWTOUynfwI3D9E_zNgG-18" edge="1">
          <mxGeometry width="50" height="50" relative="1" as="geometry">
            <mxPoint x="-760" y="510" as="sourcePoint" />
            <mxPoint x="-710" y="460" as="targetPoint" />
          </mxGeometry>
        </mxCell>
        <mxCell id="iaCH7gc9dJWfAc2DTMmz-1" value="" style="endArrow=classic;html=1;rounded=0;entryX=0.5;entryY=0;entryDx=0;entryDy=0;exitX=0.25;exitY=1;exitDx=0;exitDy=0;" parent="1" source="XtWTOUynfwI3D9E_zNgG-17" target="XtWTOUynfwI3D9E_zNgG-19" edge="1">
          <mxGeometry width="50" height="50" relative="1" as="geometry">
            <mxPoint x="-550" y="1140" as="sourcePoint" />
            <mxPoint x="-500" y="1090" as="targetPoint" />
          </mxGeometry>
        </mxCell>
        <mxCell id="iaCH7gc9dJWfAc2DTMmz-2" value="" style="endArrow=classic;html=1;rounded=0;entryX=0.5;entryY=0;entryDx=0;entryDy=0;exitX=0.5;exitY=1;exitDx=0;exitDy=0;" parent="1" source="XtWTOUynfwI3D9E_zNgG-19" target="XtWTOUynfwI3D9E_zNgG-30" edge="1">
          <mxGeometry width="50" height="50" relative="1" as="geometry">
            <mxPoint x="-2050" y="990" as="sourcePoint" />
            <mxPoint x="-2240" y="980" as="targetPoint" />
          </mxGeometry>
        </mxCell>
        <mxCell id="iaCH7gc9dJWfAc2DTMmz-7" value="Senior User" style="swimlane;fontStyle=0;childLayout=stackLayout;horizontal=1;startSize=30;horizontalStack=0;resizeParent=1;resizeParentMax=0;resizeLast=0;collapsible=1;marginBottom=0;" parent="1" vertex="1">
          <mxGeometry x="-2290" y="1310" width="140" height="60" as="geometry" />
        </mxCell>
        <mxCell id="iaCH7gc9dJWfAc2DTMmz-8" value="Shaun" style="text;strokeColor=none;fillColor=none;align=center;verticalAlign=middle;spacingLeft=4;spacingRight=4;overflow=hidden;points=[[0,0.5],[1,0.5]];portConstraint=eastwest;rotatable=0;" parent="iaCH7gc9dJWfAc2DTMmz-7" vertex="1">
          <mxGeometry y="30" width="140" height="30" as="geometry" />
        </mxCell>
        <mxCell id="iaCH7gc9dJWfAc2DTMmz-11" value="Executive" style="swimlane;fontStyle=0;childLayout=stackLayout;horizontal=1;startSize=30;horizontalStack=0;resizeParent=1;resizeParentMax=0;resizeLast=0;collapsible=1;marginBottom=0;" parent="1" vertex="1">
          <mxGeometry x="-2120" y="1310" width="140" height="60" as="geometry" />
        </mxCell>
        <mxCell id="iaCH7gc9dJWfAc2DTMmz-12" value="Shaun" style="text;strokeColor=none;fillColor=none;align=center;verticalAlign=middle;spacingLeft=4;spacingRight=4;overflow=hidden;points=[[0,0.5],[1,0.5]];portConstraint=eastwest;rotatable=0;" parent="iaCH7gc9dJWfAc2DTMmz-11" vertex="1">
          <mxGeometry y="30" width="140" height="30" as="geometry" />
        </mxCell>
        <mxCell id="iaCH7gc9dJWfAc2DTMmz-13" value="Senior Supplier" style="swimlane;fontStyle=0;childLayout=stackLayout;horizontal=1;startSize=30;horizontalStack=0;resizeParent=1;resizeParentMax=0;resizeLast=0;collapsible=1;marginBottom=0;" parent="1" vertex="1">
          <mxGeometry x="-1950" y="1310" width="140" height="60" as="geometry" />
        </mxCell>
        <mxCell id="iaCH7gc9dJWfAc2DTMmz-14" value="Shaun" style="text;strokeColor=none;fillColor=none;align=center;verticalAlign=middle;spacingLeft=4;spacingRight=4;overflow=hidden;points=[[0,0.5],[1,0.5]];portConstraint=eastwest;rotatable=0;" parent="iaCH7gc9dJWfAc2DTMmz-13" vertex="1">
          <mxGeometry y="30" width="140" height="30" as="geometry" />
        </mxCell>
        <mxCell id="iaCH7gc9dJWfAc2DTMmz-15" value="Project / Team Manager&#xa;Shaun" style="swimlane;fontStyle=0;childLayout=stackLayout;horizontal=1;startSize=30;horizontalStack=0;resizeParent=1;resizeParentMax=0;resizeLast=0;collapsible=1;marginBottom=0;" parent="1" vertex="1">
          <mxGeometry x="-2119" y="1430" width="140" height="180" as="geometry" />
        </mxCell>
        <mxCell id="Typ8SdLC9rbJ4DN7pZdF-2" value="Product Owner" style="text;strokeColor=none;fillColor=none;align=center;verticalAlign=middle;spacingLeft=4;spacingRight=4;overflow=hidden;points=[[0,0.5],[1,0.5]];portConstraint=eastwest;rotatable=0;" parent="iaCH7gc9dJWfAc2DTMmz-15" vertex="1">
          <mxGeometry y="30" width="140" height="30" as="geometry" />
        </mxCell>
        <mxCell id="iaCH7gc9dJWfAc2DTMmz-18" value="Scrum Master" style="text;strokeColor=none;fillColor=none;align=center;verticalAlign=middle;spacingLeft=4;spacingRight=4;overflow=hidden;points=[[0,0.5],[1,0.5]];portConstraint=eastwest;rotatable=0;" parent="iaCH7gc9dJWfAc2DTMmz-15" vertex="1">
          <mxGeometry y="60" width="140" height="30" as="geometry" />
        </mxCell>
        <mxCell id="iaCH7gc9dJWfAc2DTMmz-16" value="Customer SME" style="text;strokeColor=none;fillColor=none;align=center;verticalAlign=middle;spacingLeft=4;spacingRight=4;overflow=hidden;points=[[0,0.5],[1,0.5]];portConstraint=eastwest;rotatable=0;" parent="iaCH7gc9dJWfAc2DTMmz-15" vertex="1">
          <mxGeometry y="90" width="140" height="30" as="geometry" />
        </mxCell>
        <mxCell id="iaCH7gc9dJWfAc2DTMmz-17" value="Supplier SME" style="text;strokeColor=none;fillColor=none;align=center;verticalAlign=middle;spacingLeft=4;spacingRight=4;overflow=hidden;points=[[0,0.5],[1,0.5]];portConstraint=eastwest;rotatable=0;" parent="iaCH7gc9dJWfAc2DTMmz-15" vertex="1">
          <mxGeometry y="120" width="140" height="30" as="geometry" />
        </mxCell>
        <mxCell id="Typ8SdLC9rbJ4DN7pZdF-1" value="Team quality assurance" style="text;strokeColor=none;fillColor=none;align=center;verticalAlign=middle;spacingLeft=4;spacingRight=4;overflow=hidden;points=[[0,0.5],[1,0.5]];portConstraint=eastwest;rotatable=0;" parent="iaCH7gc9dJWfAc2DTMmz-15" vertex="1">
          <mxGeometry y="150" width="140" height="30" as="geometry" />
        </mxCell>
        <mxCell id="iaCH7gc9dJWfAc2DTMmz-22" value="" style="endArrow=classic;html=1;rounded=0;entryX=0.5;entryY=0;entryDx=0;entryDy=0;exitX=0.507;exitY=0.967;exitDx=0;exitDy=0;exitPerimeter=0;" parent="1" source="iaCH7gc9dJWfAc2DTMmz-12" target="iaCH7gc9dJWfAc2DTMmz-15" edge="1">
          <mxGeometry width="50" height="50" relative="1" as="geometry">
            <mxPoint x="-2590" y="1430" as="sourcePoint" />
            <mxPoint x="-2050" y="1430" as="targetPoint" />
          </mxGeometry>
        </mxCell>
        <mxCell id="iaCH7gc9dJWfAc2DTMmz-23" value="" style="endArrow=classic;startArrow=classic;html=1;rounded=0;entryX=0;entryY=0.25;entryDx=0;entryDy=0;exitX=1;exitY=0.25;exitDx=0;exitDy=0;" parent="1" source="iaCH7gc9dJWfAc2DTMmz-7" target="iaCH7gc9dJWfAc2DTMmz-11" edge="1">
          <mxGeometry width="50" height="50" relative="1" as="geometry">
            <mxPoint x="-2410" y="1450" as="sourcePoint" />
            <mxPoint x="-2360" y="1400" as="targetPoint" />
          </mxGeometry>
        </mxCell>
        <mxCell id="iaCH7gc9dJWfAc2DTMmz-24" value="" style="endArrow=classic;startArrow=classic;html=1;rounded=0;entryX=0;entryY=0.25;entryDx=0;entryDy=0;exitX=1;exitY=0.25;exitDx=0;exitDy=0;" parent="1" source="iaCH7gc9dJWfAc2DTMmz-11" target="iaCH7gc9dJWfAc2DTMmz-13" edge="1">
          <mxGeometry width="50" height="50" relative="1" as="geometry">
            <mxPoint x="-2430" y="1460" as="sourcePoint" />
            <mxPoint x="-2380" y="1410" as="targetPoint" />
          </mxGeometry>
        </mxCell>
        <mxCell id="iaCH7gc9dJWfAc2DTMmz-25" value="Corporate, programme management or the customer&lt;br&gt;Shaun" style="rounded=1;whiteSpace=wrap;html=1;" parent="1" vertex="1">
          <mxGeometry x="-2284" y="1160" width="470" height="60" as="geometry" />
        </mxCell>
        <mxCell id="iaCH7gc9dJWfAc2DTMmz-26" value="" style="endArrow=classic;html=1;rounded=0;entryX=0.5;entryY=0;entryDx=0;entryDy=0;exitX=0.5;exitY=1;exitDx=0;exitDy=0;" parent="1" source="XtWTOUynfwI3D9E_zNgG-30" target="iaCH7gc9dJWfAc2DTMmz-25" edge="1">
          <mxGeometry width="50" height="50" relative="1" as="geometry">
            <mxPoint x="-2290" y="1100" as="sourcePoint" />
            <mxPoint x="-2240" y="1050" as="targetPoint" />
          </mxGeometry>
        </mxCell>
        <mxCell id="iaCH7gc9dJWfAc2DTMmz-27" value="" style="endArrow=classic;html=1;rounded=0;entryX=0.5;entryY=0;entryDx=0;entryDy=0;exitX=0.5;exitY=1;exitDx=0;exitDy=0;" parent="1" source="iaCH7gc9dJWfAc2DTMmz-25" target="iaCH7gc9dJWfAc2DTMmz-11" edge="1">
          <mxGeometry width="50" height="50" relative="1" as="geometry">
            <mxPoint x="-2240" y="1300" as="sourcePoint" />
            <mxPoint x="-2190" y="1250" as="targetPoint" />
          </mxGeometry>
        </mxCell>
        <mxCell id="Typ8SdLC9rbJ4DN7pZdF-3" value="" style="endArrow=classic;html=1;rounded=0;entryX=0.5;entryY=0;entryDx=0;entryDy=0;exitX=0.5;exitY=1;exitDx=0;exitDy=0;" parent="1" source="XtWTOUynfwI3D9E_zNgG-20" target="XtWTOUynfwI3D9E_zNgG-31" edge="1">
          <mxGeometry width="50" height="50" relative="1" as="geometry">
            <mxPoint x="-1620" y="1060" as="sourcePoint" />
            <mxPoint x="-1570" y="1010" as="targetPoint" />
          </mxGeometry>
        </mxCell>
        <mxCell id="Typ8SdLC9rbJ4DN7pZdF-4" value="" style="endArrow=classic;html=1;rounded=0;entryX=0.5;entryY=0;entryDx=0;entryDy=0;exitX=0.5;exitY=1;exitDx=0;exitDy=0;" parent="1" source="XtWTOUynfwI3D9E_zNgG-17" target="XtWTOUynfwI3D9E_zNgG-20" edge="1">
          <mxGeometry width="50" height="50" relative="1" as="geometry">
            <mxPoint x="-300" y="950" as="sourcePoint" />
            <mxPoint x="-250" y="900" as="targetPoint" />
          </mxGeometry>
        </mxCell>
        <mxCell id="Typ8SdLC9rbJ4DN7pZdF-5" value="We will apply the Agile / Scrum Methodology to ascertain Quality" style="shape=process;whiteSpace=wrap;html=1;backgroundOutline=1;" parent="1" vertex="1">
          <mxGeometry x="-1559" y="1151" width="260" height="60" as="geometry" />
        </mxCell>
        <mxCell id="Typ8SdLC9rbJ4DN7pZdF-6" value="" style="endArrow=classic;html=1;rounded=0;entryX=0.5;entryY=0;entryDx=0;entryDy=0;exitX=0.5;exitY=1;exitDx=0;exitDy=0;" parent="1" source="XtWTOUynfwI3D9E_zNgG-31" target="Typ8SdLC9rbJ4DN7pZdF-5" edge="1">
          <mxGeometry width="50" height="50" relative="1" as="geometry">
            <mxPoint x="-1720" y="1040" as="sourcePoint" />
            <mxPoint x="-1670" y="990" as="targetPoint" />
          </mxGeometry>
        </mxCell>
        <mxCell id="Typ8SdLC9rbJ4DN7pZdF-11" value="Quality Planning" style="ellipse;whiteSpace=wrap;html=1;" parent="1" vertex="1">
          <mxGeometry x="-1679" y="1280" width="120" height="80" as="geometry" />
        </mxCell>
        <mxCell id="Typ8SdLC9rbJ4DN7pZdF-12" value="Quality Components" style="ellipse;whiteSpace=wrap;html=1;" parent="1" vertex="1">
          <mxGeometry x="-1490" y="1280" width="120" height="80" as="geometry" />
        </mxCell>
        <mxCell id="Typ8SdLC9rbJ4DN7pZdF-13" value="Quality Control" style="ellipse;whiteSpace=wrap;html=1;" parent="1" vertex="1">
          <mxGeometry x="-1299" y="1280" width="120" height="80" as="geometry" />
        </mxCell>
        <mxCell id="Typ8SdLC9rbJ4DN7pZdF-14" value="" style="endArrow=classic;html=1;rounded=0;entryX=0.5;entryY=0;entryDx=0;entryDy=0;exitX=0.5;exitY=1;exitDx=0;exitDy=0;" parent="1" source="Typ8SdLC9rbJ4DN7pZdF-5" target="Typ8SdLC9rbJ4DN7pZdF-11" edge="1">
          <mxGeometry width="50" height="50" relative="1" as="geometry">
            <mxPoint x="-1530" y="1280" as="sourcePoint" />
            <mxPoint x="-1480" y="1230" as="targetPoint" />
          </mxGeometry>
        </mxCell>
        <mxCell id="Typ8SdLC9rbJ4DN7pZdF-15" value="" style="endArrow=classic;html=1;rounded=0;exitX=0.5;exitY=1;exitDx=0;exitDy=0;entryX=0.5;entryY=0;entryDx=0;entryDy=0;" parent="1" source="Typ8SdLC9rbJ4DN7pZdF-5" target="Typ8SdLC9rbJ4DN7pZdF-12" edge="1">
          <mxGeometry width="50" height="50" relative="1" as="geometry">
            <mxPoint x="-1350" y="1280" as="sourcePoint" />
            <mxPoint x="-1300" y="1230" as="targetPoint" />
          </mxGeometry>
        </mxCell>
        <mxCell id="Typ8SdLC9rbJ4DN7pZdF-16" value="" style="endArrow=classic;html=1;rounded=0;exitX=0.5;exitY=1;exitDx=0;exitDy=0;entryX=0.5;entryY=0;entryDx=0;entryDy=0;" parent="1" source="Typ8SdLC9rbJ4DN7pZdF-5" target="Typ8SdLC9rbJ4DN7pZdF-13" edge="1">
          <mxGeometry width="50" height="50" relative="1" as="geometry">
            <mxPoint x="-1419" y="1221" as="sourcePoint" />
            <mxPoint x="-1420" y="1290" as="targetPoint" />
          </mxGeometry>
        </mxCell>
        <mxCell id="Typ8SdLC9rbJ4DN7pZdF-17" value="&lt;blockquote style=&quot;margin: 0 0 0 40px; border: none; padding: 0px;&quot;&gt;&lt;/blockquote&gt;&lt;ul&gt;&lt;li&gt;&lt;span style=&quot;background-color: initial;&quot;&gt;Epics&lt;/span&gt;&lt;/li&gt;&lt;li&gt;&lt;span style=&quot;background-color: initial;&quot;&gt;User Stories&lt;/span&gt;&lt;/li&gt;&lt;/ul&gt;" style="rounded=0;whiteSpace=wrap;html=1;align=left;" parent="1" vertex="1">
          <mxGeometry x="-1590" y="1440" width="120" height="60" as="geometry" />
        </mxCell>
        <mxCell id="Typ8SdLC9rbJ4DN7pZdF-18" value="&lt;blockquote style=&quot;margin: 0 0 0 40px; border: none; padding: 0px;&quot;&gt;&lt;/blockquote&gt;&lt;ul&gt;&lt;li&gt;Definition of &quot;ready&quot;&lt;/li&gt;&lt;li&gt;TDD [Test-first programming]&lt;/li&gt;&lt;li&gt;BDD [Given, When, Then]&lt;/li&gt;&lt;li&gt;Definition of &quot;done&quot;&lt;/li&gt;&lt;/ul&gt;" style="rounded=0;whiteSpace=wrap;html=1;align=left;" parent="1" vertex="1">
          <mxGeometry x="-1349" y="1440" width="220" height="60" as="geometry" />
        </mxCell>
        <mxCell id="Typ8SdLC9rbJ4DN7pZdF-19" value="" style="endArrow=classic;html=1;rounded=0;exitX=0.5;exitY=1;exitDx=0;exitDy=0;entryX=0.5;entryY=0;entryDx=0;entryDy=0;" parent="1" source="Typ8SdLC9rbJ4DN7pZdF-11" target="Typ8SdLC9rbJ4DN7pZdF-17" edge="1">
          <mxGeometry width="50" height="50" relative="1" as="geometry">
            <mxPoint x="-1720" y="1490" as="sourcePoint" />
            <mxPoint x="-1550" y="1440" as="targetPoint" />
          </mxGeometry>
        </mxCell>
        <mxCell id="Typ8SdLC9rbJ4DN7pZdF-20" value="" style="endArrow=classic;html=1;rounded=0;exitX=0.5;exitY=1;exitDx=0;exitDy=0;entryX=0.5;entryY=0;entryDx=0;entryDy=0;" parent="1" source="Typ8SdLC9rbJ4DN7pZdF-12" target="Typ8SdLC9rbJ4DN7pZdF-17" edge="1">
          <mxGeometry width="50" height="50" relative="1" as="geometry">
            <mxPoint x="-1609" y="1370" as="sourcePoint" />
            <mxPoint x="-1540" y="1450" as="targetPoint" />
          </mxGeometry>
        </mxCell>
        <mxCell id="Typ8SdLC9rbJ4DN7pZdF-21" value="" style="endArrow=classic;html=1;rounded=0;exitX=0.5;exitY=1;exitDx=0;exitDy=0;entryX=0.5;entryY=0;entryDx=0;entryDy=0;" parent="1" source="Typ8SdLC9rbJ4DN7pZdF-13" target="Typ8SdLC9rbJ4DN7pZdF-18" edge="1">
          <mxGeometry width="50" height="50" relative="1" as="geometry">
            <mxPoint x="-1420" y="1370" as="sourcePoint" />
            <mxPoint x="-1520" y="1450" as="targetPoint" />
          </mxGeometry>
        </mxCell>
        <mxCell id="vRdH5xnazJ3HthhxBtj9-2" value="&lt;span style=&quot;text-align: left;&quot;&gt;[Visibility] &lt;br&gt;Allow users to see all tokens they posse in their MetaMask Wallet in all blockchains&amp;nbsp;&lt;/span&gt;" style="rounded=1;whiteSpace=wrap;html=1;" parent="1" vertex="1">
          <mxGeometry x="-1890" y="1680" width="180" height="60" as="geometry" />
        </mxCell>
        <mxCell id="vRdH5xnazJ3HthhxBtj9-3" value="&lt;span style=&quot;text-align: left;&quot;&gt;[Visibility] &lt;br&gt;Allow user to see quantity and price of their tokens&lt;/span&gt;" style="rounded=1;whiteSpace=wrap;html=1;" parent="1" vertex="1">
          <mxGeometry x="-1590" y="1680" width="120" height="60" as="geometry" />
        </mxCell>
        <mxCell id="vRdH5xnazJ3HthhxBtj9-4" value="&lt;span style=&quot;text-align: left;&quot;&gt;[Control] &lt;br&gt;Allow user to buy, sell and exchange tokens&lt;/span&gt;" style="rounded=1;whiteSpace=wrap;html=1;" parent="1" vertex="1">
          <mxGeometry x="-1230" y="1680" width="120" height="60" as="geometry" />
        </mxCell>
        <mxCell id="vRdH5xnazJ3HthhxBtj9-7" value="Epics" style="shape=trapezoid;perimeter=trapezoidPerimeter;whiteSpace=wrap;html=1;fixedSize=1;" parent="1" vertex="1">
          <mxGeometry x="-1590" y="1560" width="120" height="60" as="geometry" />
        </mxCell>
        <mxCell id="vRdH5xnazJ3HthhxBtj9-8" value="User Stories&lt;br&gt;US#" style="shape=hexagon;perimeter=hexagonPerimeter2;whiteSpace=wrap;html=1;fixedSize=1;" parent="1" vertex="1">
          <mxGeometry x="-1590" y="1800" width="120" height="80" as="geometry" />
        </mxCell>
        <mxCell id="vRdH5xnazJ3HthhxBtj9-9" value="" style="endArrow=classic;html=1;rounded=0;entryX=0.5;entryY=0;entryDx=0;entryDy=0;exitX=0.25;exitY=1;exitDx=0;exitDy=0;" parent="1" source="vRdH5xnazJ3HthhxBtj9-7" target="vRdH5xnazJ3HthhxBtj9-2" edge="1">
          <mxGeometry width="50" height="50" relative="1" as="geometry">
            <mxPoint x="-1800" y="1580" as="sourcePoint" />
            <mxPoint x="-1750" y="1530" as="targetPoint" />
          </mxGeometry>
        </mxCell>
        <mxCell id="vRdH5xnazJ3HthhxBtj9-10" value="" style="endArrow=classic;html=1;rounded=0;exitX=0.5;exitY=1;exitDx=0;exitDy=0;" parent="1" source="vRdH5xnazJ3HthhxBtj9-7" target="vRdH5xnazJ3HthhxBtj9-3" edge="1">
          <mxGeometry width="50" height="50" relative="1" as="geometry">
            <mxPoint x="-1550" y="1629.9999999999995" as="sourcePoint" />
            <mxPoint x="-1790" y="1690" as="targetPoint" />
          </mxGeometry>
        </mxCell>
        <mxCell id="vRdH5xnazJ3HthhxBtj9-11" value="" style="endArrow=classic;html=1;rounded=0;exitX=0.75;exitY=1;exitDx=0;exitDy=0;entryX=0.5;entryY=0;entryDx=0;entryDy=0;" parent="1" source="vRdH5xnazJ3HthhxBtj9-7" target="vRdH5xnazJ3HthhxBtj9-4" edge="1">
          <mxGeometry width="50" height="50" relative="1" as="geometry">
            <mxPoint x="-1520" y="1629.9999999999995" as="sourcePoint" />
            <mxPoint x="-1520" y="1690" as="targetPoint" />
          </mxGeometry>
        </mxCell>
        <mxCell id="vRdH5xnazJ3HthhxBtj9-14" value="" style="endArrow=none;dashed=1;html=1;dashPattern=1 3;strokeWidth=2;rounded=0;entryX=0.5;entryY=1;entryDx=0;entryDy=0;exitX=0.5;exitY=0;exitDx=0;exitDy=0;" parent="1" source="vRdH5xnazJ3HthhxBtj9-8" target="vRdH5xnazJ3HthhxBtj9-3" edge="1">
          <mxGeometry width="50" height="50" relative="1" as="geometry">
            <mxPoint x="-1430" y="1840" as="sourcePoint" />
            <mxPoint x="-1380" y="1790" as="targetPoint" />
          </mxGeometry>
        </mxCell>
        <mxCell id="vRdH5xnazJ3HthhxBtj9-16" value="" style="endArrow=none;dashed=1;html=1;rounded=0;" parent="1" target="vRdH5xnazJ3HthhxBtj9-8" edge="1">
          <mxGeometry width="50" height="50" relative="1" as="geometry">
            <mxPoint x="-1930" y="1840" as="sourcePoint" />
            <mxPoint x="-1820" y="1790" as="targetPoint" />
          </mxGeometry>
        </mxCell>
        <mxCell id="vRdH5xnazJ3HthhxBtj9-17" value="" style="endArrow=none;dashed=1;html=1;rounded=0;exitX=1;exitY=0.5;exitDx=0;exitDy=0;" parent="1" source="vRdH5xnazJ3HthhxBtj9-8" edge="1">
          <mxGeometry width="50" height="50" relative="1" as="geometry">
            <mxPoint x="-1440" y="1839.66" as="sourcePoint" />
            <mxPoint x="-1050" y="1839" as="targetPoint" />
          </mxGeometry>
        </mxCell>
        <mxCell id="vRdH5xnazJ3HthhxBtj9-18" value="" style="endArrow=classic;html=1;rounded=0;exitX=0.5;exitY=1;exitDx=0;exitDy=0;entryX=0.5;entryY=0;entryDx=0;entryDy=0;" parent="1" source="vRdH5xnazJ3HthhxBtj9-2" target="vRdH5xnazJ3HthhxBtj9-19" edge="1">
          <mxGeometry width="50" height="50" relative="1" as="geometry">
            <mxPoint x="-1850" y="1950" as="sourcePoint" />
            <mxPoint x="-1800" y="1900" as="targetPoint" />
          </mxGeometry>
        </mxCell>
        <mxCell id="vRdH5xnazJ3HthhxBtj9-19" value="US#1" style="swimlane;fontStyle=0;childLayout=stackLayout;horizontal=1;startSize=30;horizontalStack=0;resizeParent=1;resizeParentMax=0;resizeLast=0;collapsible=1;marginBottom=0;" parent="1" vertex="1">
          <mxGeometry x="-1920" y="1920" width="240" height="240" as="geometry">
            <mxRectangle x="-1190" y="1920" width="70" height="30" as="alternateBounds" />
          </mxGeometry>
        </mxCell>
        <mxCell id="vRdH5xnazJ3HthhxBtj9-20" value="As A user" style="text;strokeColor=none;fillColor=none;align=left;verticalAlign=middle;spacingLeft=4;spacingRight=4;overflow=hidden;points=[[0,0.5],[1,0.5]];portConstraint=eastwest;rotatable=0;" parent="vRdH5xnazJ3HthhxBtj9-19" vertex="1">
          <mxGeometry y="30" width="240" height="30" as="geometry" />
        </mxCell>
        <mxCell id="vRdH5xnazJ3HthhxBtj9-21" value="I WANT TO login in a website to see all the tokens I bought via Metamask" style="text;strokeColor=none;fillColor=none;align=left;verticalAlign=middle;spacingLeft=4;spacingRight=4;overflow=hidden;points=[[0,0.5],[1,0.5]];portConstraint=eastwest;rotatable=0;whiteSpace=wrap;" parent="vRdH5xnazJ3HthhxBtj9-19" vertex="1">
          <mxGeometry y="60" width="240" height="30" as="geometry" />
        </mxCell>
        <mxCell id="vRdH5xnazJ3HthhxBtj9-22" value="SO THAT I can easily access them" style="text;strokeColor=none;fillColor=none;align=left;verticalAlign=middle;spacingLeft=4;spacingRight=4;overflow=hidden;points=[[0,0.5],[1,0.5]];portConstraint=eastwest;rotatable=0;" parent="vRdH5xnazJ3HthhxBtj9-19" vertex="1">
          <mxGeometry y="90" width="240" height="30" as="geometry" />
        </mxCell>
        <mxCell id="vRdH5xnazJ3HthhxBtj9-23" value="Business Value 13" style="text;strokeColor=#d6b656;fillColor=#fff2cc;align=left;verticalAlign=middle;spacingLeft=4;spacingRight=4;overflow=hidden;points=[[0,0.5],[1,0.5]];portConstraint=eastwest;rotatable=0;" parent="vRdH5xnazJ3HthhxBtj9-19" vertex="1">
          <mxGeometry y="120" width="240" height="30" as="geometry" />
        </mxCell>
        <mxCell id="vRdH5xnazJ3HthhxBtj9-24" value="Effort 3" style="text;strokeColor=#d79b00;fillColor=#ffe6cc;align=left;verticalAlign=middle;spacingLeft=4;spacingRight=4;overflow=hidden;points=[[0,0.5],[1,0.5]];portConstraint=eastwest;rotatable=0;" parent="vRdH5xnazJ3HthhxBtj9-19" vertex="1">
          <mxGeometry y="150" width="240" height="30" as="geometry" />
        </mxCell>
        <mxCell id="k1PRUhjrjEu_5gplpjs3-1" value="Complexity 5" style="text;strokeColor=#6c8ebf;fillColor=#dae8fc;align=left;verticalAlign=middle;spacingLeft=4;spacingRight=4;overflow=hidden;points=[[0,0.5],[1,0.5]];portConstraint=eastwest;rotatable=0;" parent="vRdH5xnazJ3HthhxBtj9-19" vertex="1">
          <mxGeometry y="180" width="240" height="30" as="geometry" />
        </mxCell>
        <mxCell id="vRdH5xnazJ3HthhxBtj9-32" value="Quality Criteria" style="text;strokeColor=none;fillColor=none;align=left;verticalAlign=middle;spacingLeft=4;spacingRight=4;overflow=hidden;points=[[0,0.5],[1,0.5]];portConstraint=eastwest;rotatable=0;" parent="vRdH5xnazJ3HthhxBtj9-19" vertex="1">
          <mxGeometry y="210" width="240" height="30" as="geometry" />
        </mxCell>
        <mxCell id="vRdH5xnazJ3HthhxBtj9-25" value="US#2" style="swimlane;fontStyle=0;childLayout=stackLayout;horizontal=1;startSize=30;horizontalStack=0;resizeParent=1;resizeParentMax=0;resizeLast=0;collapsible=1;marginBottom=0;" parent="1" vertex="1">
          <mxGeometry x="-1650" y="1920" width="240" height="240" as="geometry">
            <mxRectangle x="-1190" y="1920" width="70" height="30" as="alternateBounds" />
          </mxGeometry>
        </mxCell>
        <mxCell id="vRdH5xnazJ3HthhxBtj9-26" value="As A user" style="text;strokeColor=none;fillColor=none;align=left;verticalAlign=middle;spacingLeft=4;spacingRight=4;overflow=hidden;points=[[0,0.5],[1,0.5]];portConstraint=eastwest;rotatable=0;" parent="vRdH5xnazJ3HthhxBtj9-25" vertex="1">
          <mxGeometry y="30" width="240" height="30" as="geometry" />
        </mxCell>
        <mxCell id="vRdH5xnazJ3HthhxBtj9-27" value="I WANT TO see on the price and quantity of each token I posse" style="text;strokeColor=none;fillColor=none;align=left;verticalAlign=middle;spacingLeft=4;spacingRight=4;overflow=hidden;points=[[0,0.5],[1,0.5]];portConstraint=eastwest;rotatable=0;whiteSpace=wrap;" parent="vRdH5xnazJ3HthhxBtj9-25" vertex="1">
          <mxGeometry y="60" width="240" height="30" as="geometry" />
        </mxCell>
        <mxCell id="vRdH5xnazJ3HthhxBtj9-28" value="SO THAT I can quickly evaluate my exposure to the crypto markets" style="text;strokeColor=none;fillColor=none;align=left;verticalAlign=middle;spacingLeft=4;spacingRight=4;overflow=hidden;points=[[0,0.5],[1,0.5]];portConstraint=eastwest;rotatable=0;whiteSpace=wrap;" parent="vRdH5xnazJ3HthhxBtj9-25" vertex="1">
          <mxGeometry y="90" width="240" height="30" as="geometry" />
        </mxCell>
        <mxCell id="vRdH5xnazJ3HthhxBtj9-29" value="Business Value 8" style="text;strokeColor=#d6b656;fillColor=#fff2cc;align=left;verticalAlign=middle;spacingLeft=4;spacingRight=4;overflow=hidden;points=[[0,0.5],[1,0.5]];portConstraint=eastwest;rotatable=0;" parent="vRdH5xnazJ3HthhxBtj9-25" vertex="1">
          <mxGeometry y="120" width="240" height="30" as="geometry" />
        </mxCell>
        <mxCell id="vRdH5xnazJ3HthhxBtj9-30" value="Effort 1" style="text;strokeColor=#d79b00;fillColor=#ffe6cc;align=left;verticalAlign=middle;spacingLeft=4;spacingRight=4;overflow=hidden;points=[[0,0.5],[1,0.5]];portConstraint=eastwest;rotatable=0;" parent="vRdH5xnazJ3HthhxBtj9-25" vertex="1">
          <mxGeometry y="150" width="240" height="30" as="geometry" />
        </mxCell>
        <mxCell id="k1PRUhjrjEu_5gplpjs3-2" value="Complexity 1" style="text;strokeColor=#6c8ebf;fillColor=#dae8fc;align=left;verticalAlign=middle;spacingLeft=4;spacingRight=4;overflow=hidden;points=[[0,0.5],[1,0.5]];portConstraint=eastwest;rotatable=0;" parent="vRdH5xnazJ3HthhxBtj9-25" vertex="1">
          <mxGeometry y="180" width="240" height="30" as="geometry" />
        </mxCell>
        <mxCell id="vRdH5xnazJ3HthhxBtj9-33" value="Quality Criteria" style="text;strokeColor=none;fillColor=none;align=left;verticalAlign=middle;spacingLeft=4;spacingRight=4;overflow=hidden;points=[[0,0.5],[1,0.5]];portConstraint=eastwest;rotatable=0;" parent="vRdH5xnazJ3HthhxBtj9-25" vertex="1">
          <mxGeometry y="210" width="240" height="30" as="geometry" />
        </mxCell>
        <mxCell id="vRdH5xnazJ3HthhxBtj9-34" value="US#3" style="swimlane;fontStyle=0;childLayout=stackLayout;horizontal=1;startSize=30;horizontalStack=0;resizeParent=1;resizeParentMax=0;resizeLast=0;collapsible=1;marginBottom=0;" parent="1" vertex="1">
          <mxGeometry x="-1290" y="1920" width="240" height="270" as="geometry">
            <mxRectangle x="-1190" y="1920" width="70" height="30" as="alternateBounds" />
          </mxGeometry>
        </mxCell>
        <mxCell id="vRdH5xnazJ3HthhxBtj9-35" value="As A user" style="text;strokeColor=none;fillColor=none;align=left;verticalAlign=middle;spacingLeft=4;spacingRight=4;overflow=hidden;points=[[0,0.5],[1,0.5]];portConstraint=eastwest;rotatable=0;" parent="vRdH5xnazJ3HthhxBtj9-34" vertex="1">
          <mxGeometry y="30" width="240" height="30" as="geometry" />
        </mxCell>
        <mxCell id="vRdH5xnazJ3HthhxBtj9-36" value="I WANT TO buy and sell each of my tokens with the native currency on their respective blockchain [Ether on Ethereum, Matic on Polygon...]" style="text;strokeColor=none;fillColor=none;align=left;verticalAlign=middle;spacingLeft=4;spacingRight=4;overflow=hidden;points=[[0,0.5],[1,0.5]];portConstraint=eastwest;rotatable=0;whiteSpace=wrap;" parent="vRdH5xnazJ3HthhxBtj9-34" vertex="1">
          <mxGeometry y="60" width="240" height="60" as="geometry" />
        </mxCell>
        <mxCell id="vRdH5xnazJ3HthhxBtj9-37" value="SO THAT I can quickly change my exposure to the crypto markets" style="text;strokeColor=none;fillColor=none;align=left;verticalAlign=middle;spacingLeft=4;spacingRight=4;overflow=hidden;points=[[0,0.5],[1,0.5]];portConstraint=eastwest;rotatable=0;whiteSpace=wrap;" parent="vRdH5xnazJ3HthhxBtj9-34" vertex="1">
          <mxGeometry y="120" width="240" height="30" as="geometry" />
        </mxCell>
        <mxCell id="vRdH5xnazJ3HthhxBtj9-38" value="Business Value 20" style="text;strokeColor=#d6b656;fillColor=#fff2cc;align=left;verticalAlign=middle;spacingLeft=4;spacingRight=4;overflow=hidden;points=[[0,0.5],[1,0.5]];portConstraint=eastwest;rotatable=0;" parent="vRdH5xnazJ3HthhxBtj9-34" vertex="1">
          <mxGeometry y="150" width="240" height="30" as="geometry" />
        </mxCell>
        <mxCell id="vRdH5xnazJ3HthhxBtj9-39" value="Effort 8" style="text;strokeColor=#d79b00;fillColor=#ffe6cc;align=left;verticalAlign=middle;spacingLeft=4;spacingRight=4;overflow=hidden;points=[[0,0.5],[1,0.5]];portConstraint=eastwest;rotatable=0;" parent="vRdH5xnazJ3HthhxBtj9-34" vertex="1">
          <mxGeometry y="180" width="240" height="30" as="geometry" />
        </mxCell>
        <mxCell id="k1PRUhjrjEu_5gplpjs3-3" value="Complexity 5" style="text;strokeColor=#6c8ebf;fillColor=#dae8fc;align=left;verticalAlign=middle;spacingLeft=4;spacingRight=4;overflow=hidden;points=[[0,0.5],[1,0.5]];portConstraint=eastwest;rotatable=0;" parent="vRdH5xnazJ3HthhxBtj9-34" vertex="1">
          <mxGeometry y="210" width="240" height="30" as="geometry" />
        </mxCell>
        <mxCell id="vRdH5xnazJ3HthhxBtj9-40" value="Quality Criteria" style="text;strokeColor=none;fillColor=none;align=left;verticalAlign=middle;spacingLeft=4;spacingRight=4;overflow=hidden;points=[[0,0.5],[1,0.5]];portConstraint=eastwest;rotatable=0;" parent="vRdH5xnazJ3HthhxBtj9-34" vertex="1">
          <mxGeometry y="240" width="240" height="30" as="geometry" />
        </mxCell>
        <mxCell id="vRdH5xnazJ3HthhxBtj9-41" value="US#4" style="swimlane;fontStyle=0;childLayout=stackLayout;horizontal=1;startSize=30;horizontalStack=0;resizeParent=1;resizeParentMax=0;resizeLast=0;collapsible=1;marginBottom=0;" parent="1" vertex="1">
          <mxGeometry x="-1290" y="2200" width="240" height="260" as="geometry">
            <mxRectangle x="-1190" y="1920" width="70" height="30" as="alternateBounds" />
          </mxGeometry>
        </mxCell>
        <mxCell id="vRdH5xnazJ3HthhxBtj9-42" value="As A user" style="text;strokeColor=none;fillColor=none;align=left;verticalAlign=middle;spacingLeft=4;spacingRight=4;overflow=hidden;points=[[0,0.5],[1,0.5]];portConstraint=eastwest;rotatable=0;" parent="vRdH5xnazJ3HthhxBtj9-41" vertex="1">
          <mxGeometry y="30" width="240" height="30" as="geometry" />
        </mxCell>
        <mxCell id="vRdH5xnazJ3HthhxBtj9-43" value="I WANT TO exchange each of my tokens with other tokens on their respective blockchain" style="text;strokeColor=none;fillColor=none;align=left;verticalAlign=middle;spacingLeft=4;spacingRight=4;overflow=hidden;points=[[0,0.5],[1,0.5]];portConstraint=eastwest;rotatable=0;whiteSpace=wrap;" parent="vRdH5xnazJ3HthhxBtj9-41" vertex="1">
          <mxGeometry y="60" width="240" height="50" as="geometry" />
        </mxCell>
        <mxCell id="vRdH5xnazJ3HthhxBtj9-44" value="SO THAT I can easily manage my portfolio" style="text;strokeColor=none;fillColor=none;align=left;verticalAlign=middle;spacingLeft=4;spacingRight=4;overflow=hidden;points=[[0,0.5],[1,0.5]];portConstraint=eastwest;rotatable=0;whiteSpace=wrap;" parent="vRdH5xnazJ3HthhxBtj9-41" vertex="1">
          <mxGeometry y="110" width="240" height="30" as="geometry" />
        </mxCell>
        <mxCell id="vRdH5xnazJ3HthhxBtj9-45" value="Business Value 20" style="text;strokeColor=#d6b656;fillColor=#fff2cc;align=left;verticalAlign=middle;spacingLeft=4;spacingRight=4;overflow=hidden;points=[[0,0.5],[1,0.5]];portConstraint=eastwest;rotatable=0;" parent="vRdH5xnazJ3HthhxBtj9-41" vertex="1">
          <mxGeometry y="140" width="240" height="30" as="geometry" />
        </mxCell>
        <mxCell id="vRdH5xnazJ3HthhxBtj9-46" value="Effort 8" style="text;strokeColor=#d79b00;fillColor=#ffe6cc;align=left;verticalAlign=middle;spacingLeft=4;spacingRight=4;overflow=hidden;points=[[0,0.5],[1,0.5]];portConstraint=eastwest;rotatable=0;" parent="vRdH5xnazJ3HthhxBtj9-41" vertex="1">
          <mxGeometry y="170" width="240" height="30" as="geometry" />
        </mxCell>
        <mxCell id="k1PRUhjrjEu_5gplpjs3-4" value="ComplexityÂ 13" style="text;strokeColor=#6c8ebf;fillColor=#dae8fc;align=left;verticalAlign=middle;spacingLeft=4;spacingRight=4;overflow=hidden;points=[[0,0.5],[1,0.5]];portConstraint=eastwest;rotatable=0;" parent="vRdH5xnazJ3HthhxBtj9-41" vertex="1">
          <mxGeometry y="200" width="240" height="30" as="geometry" />
        </mxCell>
        <mxCell id="vRdH5xnazJ3HthhxBtj9-47" value="Quality Criteria" style="text;strokeColor=none;fillColor=none;align=left;verticalAlign=middle;spacingLeft=4;spacingRight=4;overflow=hidden;points=[[0,0.5],[1,0.5]];portConstraint=eastwest;rotatable=0;" parent="vRdH5xnazJ3HthhxBtj9-41" vertex="1">
          <mxGeometry y="230" width="240" height="30" as="geometry" />
        </mxCell>
        <mxCell id="vRdH5xnazJ3HthhxBtj9-48" value="US#5" style="swimlane;fontStyle=0;childLayout=stackLayout;horizontal=1;startSize=30;horizontalStack=0;resizeParent=1;resizeParentMax=0;resizeLast=0;collapsible=1;marginBottom=0;" parent="1" vertex="1">
          <mxGeometry x="-1290" y="2470" width="240" height="260" as="geometry">
            <mxRectangle x="-1190" y="1920" width="70" height="30" as="alternateBounds" />
          </mxGeometry>
        </mxCell>
        <mxCell id="vRdH5xnazJ3HthhxBtj9-49" value="As A user" style="text;strokeColor=none;fillColor=none;align=left;verticalAlign=middle;spacingLeft=4;spacingRight=4;overflow=hidden;points=[[0,0.5],[1,0.5]];portConstraint=eastwest;rotatable=0;" parent="vRdH5xnazJ3HthhxBtj9-48" vertex="1">
          <mxGeometry y="30" width="240" height="30" as="geometry" />
        </mxCell>
        <mxCell id="vRdH5xnazJ3HthhxBtj9-50" value="I WANT TO exchange each of my tokens from one blockchain with their equivalent tokens on a different blockchain" style="text;strokeColor=none;fillColor=none;align=left;verticalAlign=middle;spacingLeft=4;spacingRight=4;overflow=hidden;points=[[0,0.5],[1,0.5]];portConstraint=eastwest;rotatable=0;whiteSpace=wrap;" parent="vRdH5xnazJ3HthhxBtj9-48" vertex="1">
          <mxGeometry y="60" width="240" height="50" as="geometry" />
        </mxCell>
        <mxCell id="vRdH5xnazJ3HthhxBtj9-51" value="SO THAT I can quickly modify exposure to a specific blockchain network" style="text;strokeColor=none;fillColor=none;align=left;verticalAlign=middle;spacingLeft=4;spacingRight=4;overflow=hidden;points=[[0,0.5],[1,0.5]];portConstraint=eastwest;rotatable=0;whiteSpace=wrap;" parent="vRdH5xnazJ3HthhxBtj9-48" vertex="1">
          <mxGeometry y="110" width="240" height="30" as="geometry" />
        </mxCell>
        <mxCell id="vRdH5xnazJ3HthhxBtj9-52" value="Business Value 13" style="text;strokeColor=#d6b656;fillColor=#fff2cc;align=left;verticalAlign=middle;spacingLeft=4;spacingRight=4;overflow=hidden;points=[[0,0.5],[1,0.5]];portConstraint=eastwest;rotatable=0;" parent="vRdH5xnazJ3HthhxBtj9-48" vertex="1">
          <mxGeometry y="140" width="240" height="30" as="geometry" />
        </mxCell>
        <mxCell id="vRdH5xnazJ3HthhxBtj9-53" value="Effort 8" style="text;strokeColor=#d79b00;fillColor=#ffe6cc;align=left;verticalAlign=middle;spacingLeft=4;spacingRight=4;overflow=hidden;points=[[0,0.5],[1,0.5]];portConstraint=eastwest;rotatable=0;" parent="vRdH5xnazJ3HthhxBtj9-48" vertex="1">
          <mxGeometry y="170" width="240" height="30" as="geometry" />
        </mxCell>
        <mxCell id="k1PRUhjrjEu_5gplpjs3-5" value="ComplexityÂ 20" style="text;strokeColor=#6c8ebf;fillColor=#dae8fc;align=left;verticalAlign=middle;spacingLeft=4;spacingRight=4;overflow=hidden;points=[[0,0.5],[1,0.5]];portConstraint=eastwest;rotatable=0;" parent="vRdH5xnazJ3HthhxBtj9-48" vertex="1">
          <mxGeometry y="200" width="240" height="30" as="geometry" />
        </mxCell>
        <mxCell id="vRdH5xnazJ3HthhxBtj9-54" value="Quality Criteria" style="text;strokeColor=none;fillColor=none;align=left;verticalAlign=middle;spacingLeft=4;spacingRight=4;overflow=hidden;points=[[0,0.5],[1,0.5]];portConstraint=eastwest;rotatable=0;" parent="vRdH5xnazJ3HthhxBtj9-48" vertex="1">
          <mxGeometry y="230" width="240" height="30" as="geometry" />
        </mxCell>
        <mxCell id="vRdH5xnazJ3HthhxBtj9-55" value="" style="endArrow=classic;html=1;rounded=0;exitX=0.5;exitY=1;exitDx=0;exitDy=0;entryX=0.5;entryY=0;entryDx=0;entryDy=0;" parent="1" source="vRdH5xnazJ3HthhxBtj9-4" target="vRdH5xnazJ3HthhxBtj9-34" edge="1">
          <mxGeometry width="50" height="50" relative="1" as="geometry">
            <mxPoint x="-1300" y="1850" as="sourcePoint" />
            <mxPoint x="-1250" y="1800" as="targetPoint" />
          </mxGeometry>
        </mxCell>
        <mxCell id="vRdH5xnazJ3HthhxBtj9-56" value="" style="endArrow=classic;html=1;rounded=0;exitX=0;exitY=0.5;exitDx=0;exitDy=0;entryX=-0.013;entryY=0.086;entryDx=0;entryDy=0;entryPerimeter=0;fillColor=#f8cecc;strokeColor=#000000;" parent="1" source="vRdH5xnazJ3HthhxBtj9-4" target="vRdH5xnazJ3HthhxBtj9-34" edge="1">
          <mxGeometry width="50" height="50" relative="1" as="geometry">
            <mxPoint x="-1360" y="1790" as="sourcePoint" />
            <mxPoint x="-1330" y="1710" as="targetPoint" />
            <Array as="points">
              <mxPoint x="-1330" y="1710" />
              <mxPoint x="-1330" y="1943" />
            </Array>
          </mxGeometry>
        </mxCell>
        <mxCell id="vRdH5xnazJ3HthhxBtj9-57" value="" style="endArrow=classic;html=1;rounded=0;entryX=-0.013;entryY=0.078;entryDx=0;entryDy=0;entryPerimeter=0;" parent="1" target="vRdH5xnazJ3HthhxBtj9-41" edge="1">
          <mxGeometry width="50" height="50" relative="1" as="geometry">
            <mxPoint x="-1330" y="1940" as="sourcePoint" />
            <mxPoint x="-1360" y="2200" as="targetPoint" />
            <Array as="points">
              <mxPoint x="-1330" y="2218" />
            </Array>
          </mxGeometry>
        </mxCell>
        <mxCell id="vRdH5xnazJ3HthhxBtj9-58" value="" style="endArrow=classic;html=1;rounded=0;entryX=-0.001;entryY=0.079;entryDx=0;entryDy=0;entryPerimeter=0;" parent="1" target="vRdH5xnazJ3HthhxBtj9-48" edge="1">
          <mxGeometry width="50" height="50" relative="1" as="geometry">
            <mxPoint x="-1330" y="2220" as="sourcePoint" />
            <mxPoint x="-1450" y="2360" as="targetPoint" />
            <Array as="points">
              <mxPoint x="-1330" y="2488" />
            </Array>
          </mxGeometry>
        </mxCell>
        <mxCell id="vRdH5xnazJ3HthhxBtj9-59" value="" style="endArrow=classic;html=1;rounded=0;exitX=1;exitY=0.079;exitDx=0;exitDy=0;exitPerimeter=0;entryX=0.007;entryY=0.079;entryDx=0;entryDy=0;entryPerimeter=0;fontColor=#CC0000;strokeColor=#b85450;fillColor=#f8cecc;" parent="1" source="vRdH5xnazJ3HthhxBtj9-19" target="vRdH5xnazJ3HthhxBtj9-25" edge="1">
          <mxGeometry width="50" height="50" relative="1" as="geometry">
            <mxPoint x="-1760" y="2250" as="sourcePoint" />
            <mxPoint x="-1710" y="2200" as="targetPoint" />
          </mxGeometry>
        </mxCell>
        <mxCell id="vRdH5xnazJ3HthhxBtj9-60" value="" style="endArrow=classic;html=1;rounded=0;exitX=0.996;exitY=0.092;exitDx=0;exitDy=0;exitPerimeter=0;strokeColor=#b85450;fillColor=#f8cecc;" parent="1" source="vRdH5xnazJ3HthhxBtj9-25" edge="1">
          <mxGeometry width="50" height="50" relative="1" as="geometry">
            <mxPoint x="-1650" y="2300" as="sourcePoint" />
            <mxPoint x="-1330" y="1942" as="targetPoint" />
          </mxGeometry>
        </mxCell>
        <mxCell id="vRdH5xnazJ3HthhxBtj9-62" value="" style="endArrow=none;dashed=1;html=1;rounded=0;fontColor=#CC0000;strokeColor=#000000;entryX=0.5;entryY=1;entryDx=0;entryDy=0;" parent="1" target="Typ8SdLC9rbJ4DN7pZdF-17" edge="1">
          <mxGeometry width="50" height="50" relative="1" as="geometry">
            <mxPoint x="-1530" y="1560" as="sourcePoint" />
            <mxPoint x="-1670" y="1510" as="targetPoint" />
          </mxGeometry>
        </mxCell>
        <mxCell id="vRdH5xnazJ3HthhxBtj9-65" value="Who?" style="swimlane;fontStyle=0;childLayout=stackLayout;horizontal=1;startSize=30;horizontalStack=0;resizeParent=1;resizeParentMax=0;resizeLast=0;collapsible=1;marginBottom=0;fontColor=#000000;" parent="1" vertex="1">
          <mxGeometry x="-1090" y="1440" width="210" height="150" as="geometry" />
        </mxCell>
        <mxCell id="vRdH5xnazJ3HthhxBtj9-66" value="Shaun will fulfill the following roles:" style="text;strokeColor=none;fillColor=none;align=left;verticalAlign=middle;spacingLeft=4;spacingRight=4;overflow=hidden;points=[[0,0.5],[1,0.5]];portConstraint=eastwest;rotatable=0;fontColor=#000000;" parent="vRdH5xnazJ3HthhxBtj9-65" vertex="1">
          <mxGeometry y="30" width="210" height="30" as="geometry" />
        </mxCell>
        <mxCell id="vRdH5xnazJ3HthhxBtj9-67" value="Product Owner" style="text;strokeColor=none;fillColor=none;align=center;verticalAlign=middle;spacingLeft=4;spacingRight=4;overflow=hidden;points=[[0,0.5],[1,0.5]];portConstraint=eastwest;rotatable=0;fontColor=#000000;" parent="vRdH5xnazJ3HthhxBtj9-65" vertex="1">
          <mxGeometry y="60" width="210" height="30" as="geometry" />
        </mxCell>
        <mxCell id="vRdH5xnazJ3HthhxBtj9-68" value="Scrum Master" style="text;strokeColor=none;fillColor=none;align=center;verticalAlign=middle;spacingLeft=4;spacingRight=4;overflow=hidden;points=[[0,0.5],[1,0.5]];portConstraint=eastwest;rotatable=0;fontColor=#000000;" parent="vRdH5xnazJ3HthhxBtj9-65" vertex="1">
          <mxGeometry y="90" width="210" height="30" as="geometry" />
        </mxCell>
        <mxCell id="vRdH5xnazJ3HthhxBtj9-69" value="Delivery Team" style="text;strokeColor=none;fillColor=none;align=center;verticalAlign=middle;spacingLeft=4;spacingRight=4;overflow=hidden;points=[[0,0.5],[1,0.5]];portConstraint=eastwest;rotatable=0;fontColor=#000000;" parent="vRdH5xnazJ3HthhxBtj9-65" vertex="1">
          <mxGeometry y="120" width="210" height="30" as="geometry" />
        </mxCell>
        <mxCell id="vRdH5xnazJ3HthhxBtj9-70" value="" style="endArrow=classic;html=1;rounded=0;fontColor=#000000;strokeColor=#000000;entryX=0;entryY=0;entryDx=0;entryDy=0;exitX=1;exitY=0;exitDx=0;exitDy=0;" parent="1" source="Typ8SdLC9rbJ4DN7pZdF-18" target="vRdH5xnazJ3HthhxBtj9-65" edge="1">
          <mxGeometry width="50" height="50" relative="1" as="geometry">
            <mxPoint x="-1280" y="1590" as="sourcePoint" />
            <mxPoint x="-1230" y="1540" as="targetPoint" />
          </mxGeometry>
        </mxCell>
        <mxCell id="hx6C-yntCGoD2sHFQmVH-1" value="" style="endArrow=classic;html=1;rounded=0;entryX=0.5;entryY=0;entryDx=0;entryDy=0;exitX=0.5;exitY=1;exitDx=0;exitDy=0;" parent="1" source="XtWTOUynfwI3D9E_zNgG-17" target="XtWTOUynfwI3D9E_zNgG-21" edge="1">
          <mxGeometry width="50" height="50" relative="1" as="geometry">
            <mxPoint x="-330" y="1120" as="sourcePoint" />
            <mxPoint x="-280" y="1070" as="targetPoint" />
          </mxGeometry>
        </mxCell>
        <mxCell id="hx6C-yntCGoD2sHFQmVH-2" value="" style="endArrow=classic;html=1;rounded=0;entryX=0.5;entryY=0;entryDx=0;entryDy=0;exitX=0.5;exitY=1;exitDx=0;exitDy=0;" parent="1" source="XtWTOUynfwI3D9E_zNgG-21" target="XtWTOUynfwI3D9E_zNgG-32" edge="1">
          <mxGeometry width="50" height="50" relative="1" as="geometry">
            <mxPoint x="-450" y="1050" as="sourcePoint" />
            <mxPoint x="-400" y="1000" as="targetPoint" />
          </mxGeometry>
        </mxCell>
        <mxCell id="hx6C-yntCGoD2sHFQmVH-18" value="Effort Evaluation" style="swimlane;fontStyle=0;childLayout=stackLayout;horizontal=1;startSize=30;horizontalStack=0;resizeParent=1;resizeParentMax=0;resizeLast=0;collapsible=1;marginBottom=0;whiteSpace=wrap;" parent="1" vertex="1">
          <mxGeometry x="-540" y="1085" width="260" height="210" as="geometry" />
        </mxCell>
        <mxCell id="hx6C-yntCGoD2sHFQmVH-19" value="We will be using in this project the Fibonacci sequence to evaluate effortÂ " style="text;strokeColor=none;fillColor=default;align=left;verticalAlign=middle;spacingLeft=4;spacingRight=4;overflow=hidden;points=[[0,0.5],[1,0.5]];portConstraint=eastwest;rotatable=0;whiteSpace=wrap;" parent="hx6C-yntCGoD2sHFQmVH-18" vertex="1">
          <mxGeometry y="30" width="260" height="30" as="geometry" />
        </mxCell>
        <mxCell id="hx6C-yntCGoD2sHFQmVH-20" value="1,2,3,5,8,13,20,40,100" style="text;strokeColor=none;fillColor=default;align=left;verticalAlign=middle;spacingLeft=4;spacingRight=4;overflow=hidden;points=[[0,0.5],[1,0.5]];portConstraint=eastwest;rotatable=0;" parent="hx6C-yntCGoD2sHFQmVH-18" vertex="1">
          <mxGeometry y="60" width="260" height="30" as="geometry" />
        </mxCell>
        <mxCell id="hx6C-yntCGoD2sHFQmVH-21" value="Basis of the effort: If a task is evaluated at 1 a then task evaluated 2 will be estimated needing 2 x more effort to produce" style="text;strokeColor=none;fillColor=default;align=left;verticalAlign=middle;spacingLeft=4;spacingRight=4;overflow=hidden;points=[[0,0.5],[1,0.5]];portConstraint=eastwest;rotatable=0;whiteSpace=wrap;" parent="hx6C-yntCGoD2sHFQmVH-18" vertex="1">
          <mxGeometry y="90" width="260" height="60" as="geometry" />
        </mxCell>
        <mxCell id="hx6C-yntCGoD2sHFQmVH-27" value="Definition of Effort: The amount of time and energy required to achieve a goalÂ " style="text;strokeColor=none;fillColor=default;align=left;verticalAlign=middle;spacingLeft=4;spacingRight=4;overflow=hidden;points=[[0,0.5],[1,0.5]];portConstraint=eastwest;rotatable=0;whiteSpace=wrap;" parent="hx6C-yntCGoD2sHFQmVH-18" vertex="1">
          <mxGeometry y="150" width="260" height="60" as="geometry" />
        </mxCell>
        <mxCell id="hx6C-yntCGoD2sHFQmVH-22" value="Complexity Evaluation" style="swimlane;fontStyle=0;childLayout=stackLayout;horizontal=1;startSize=30;horizontalStack=0;resizeParent=1;resizeParentMax=0;resizeLast=0;collapsible=1;marginBottom=0;whiteSpace=wrap;" parent="1" vertex="1">
          <mxGeometry x="-129" y="1400" width="260" height="210" as="geometry" />
        </mxCell>
        <mxCell id="hx6C-yntCGoD2sHFQmVH-23" value="We will be using in this project the Fibonacci sequence to evaluate effortÂ " style="text;align=left;verticalAlign=middle;spacingLeft=4;spacingRight=4;overflow=hidden;points=[[0,0.5],[1,0.5]];portConstraint=eastwest;rotatable=0;whiteSpace=wrap;fillColor=default;" parent="hx6C-yntCGoD2sHFQmVH-22" vertex="1">
          <mxGeometry y="30" width="260" height="30" as="geometry" />
        </mxCell>
        <mxCell id="hx6C-yntCGoD2sHFQmVH-24" value="1,2,3,5,8,13,20,40,100" style="text;align=left;verticalAlign=middle;spacingLeft=4;spacingRight=4;overflow=hidden;points=[[0,0.5],[1,0.5]];portConstraint=eastwest;rotatable=0;fillColor=default;" parent="hx6C-yntCGoD2sHFQmVH-22" vertex="1">
          <mxGeometry y="60" width="260" height="30" as="geometry" />
        </mxCell>
        <mxCell id="hx6C-yntCGoD2sHFQmVH-25" value="Basis of the complexity: If a task is evaluated at 1 a then task evaluated 2 will be estimatedÂ  2 x more complexe to produce." style="text;align=left;verticalAlign=middle;spacingLeft=4;spacingRight=4;overflow=hidden;points=[[0,0.5],[1,0.5]];portConstraint=eastwest;rotatable=0;whiteSpace=wrap;fillColor=default;" parent="hx6C-yntCGoD2sHFQmVH-22" vertex="1">
          <mxGeometry y="90" width="260" height="60" as="geometry" />
        </mxCell>
        <mxCell id="hx6C-yntCGoD2sHFQmVH-26" value="Definition of Complexity: The amount of considerations and issues needing to be resolve to achieve a particular goal" style="text;align=left;verticalAlign=middle;spacingLeft=4;spacingRight=4;overflow=hidden;points=[[0,0.5],[1,0.5]];portConstraint=eastwest;rotatable=0;whiteSpace=wrap;fillColor=default;" parent="hx6C-yntCGoD2sHFQmVH-22" vertex="1">
          <mxGeometry y="150" width="260" height="60" as="geometry" />
        </mxCell>
        <mxCell id="hx6C-yntCGoD2sHFQmVH-28" value="" style="endArrow=classic;html=1;rounded=0;entryX=1;entryY=0;entryDx=0;entryDy=0;exitX=0;exitY=0.75;exitDx=0;exitDy=0;" parent="1" source="XtWTOUynfwI3D9E_zNgG-32" target="hx6C-yntCGoD2sHFQmVH-18" edge="1">
          <mxGeometry width="50" height="50" relative="1" as="geometry">
            <mxPoint x="-460" y="1050" as="sourcePoint" />
            <mxPoint x="-410" y="1000" as="targetPoint" />
          </mxGeometry>
        </mxCell>
        <mxCell id="hx6C-yntCGoD2sHFQmVH-29" value="" style="endArrow=classic;html=1;rounded=0;exitX=0.5;exitY=1;exitDx=0;exitDy=0;entryX=0.5;entryY=0;entryDx=0;entryDy=0;" parent="1" source="XtWTOUynfwI3D9E_zNgG-32" target="hx6C-yntCGoD2sHFQmVH-22" edge="1">
          <mxGeometry width="50" height="50" relative="1" as="geometry">
            <mxPoint x="160" y="1130" as="sourcePoint" />
            <mxPoint x="210" y="1080" as="targetPoint" />
          </mxGeometry>
        </mxCell>
        <mxCell id="hx6C-yntCGoD2sHFQmVH-30" value="Business Value Evaluation" style="swimlane;fontStyle=0;childLayout=stackLayout;horizontal=1;startSize=30;horizontalStack=0;resizeParent=1;resizeParentMax=0;resizeLast=0;collapsible=1;marginBottom=0;whiteSpace=wrap;" parent="1" vertex="1">
          <mxGeometry x="280" y="1085" width="260" height="210" as="geometry" />
        </mxCell>
        <mxCell id="hx6C-yntCGoD2sHFQmVH-31" value="We will be using in this project the Fibonacci sequence to evaluate effortÂ " style="text;strokeColor=none;fillColor=default;align=left;verticalAlign=middle;spacingLeft=4;spacingRight=4;overflow=hidden;points=[[0,0.5],[1,0.5]];portConstraint=eastwest;rotatable=0;whiteSpace=wrap;" parent="hx6C-yntCGoD2sHFQmVH-30" vertex="1">
          <mxGeometry y="30" width="260" height="30" as="geometry" />
        </mxCell>
        <mxCell id="hx6C-yntCGoD2sHFQmVH-32" value="1,2,3,5,8,13,20,40,100" style="text;strokeColor=none;fillColor=default;align=left;verticalAlign=middle;spacingLeft=4;spacingRight=4;overflow=hidden;points=[[0,0.5],[1,0.5]];portConstraint=eastwest;rotatable=0;" parent="hx6C-yntCGoD2sHFQmVH-30" vertex="1">
          <mxGeometry y="60" width="260" height="30" as="geometry" />
        </mxCell>
        <mxCell id="hx6C-yntCGoD2sHFQmVH-33" value="Basis of the Business Value: If a task is evaluated at 1 a then task evaluated 2 will be estimatedÂ  2 x more beneficial to the business buttom line to be achieved." style="text;strokeColor=none;fillColor=default;align=left;verticalAlign=middle;spacingLeft=4;spacingRight=4;overflow=hidden;points=[[0,0.5],[1,0.5]];portConstraint=eastwest;rotatable=0;whiteSpace=wrap;" parent="hx6C-yntCGoD2sHFQmVH-30" vertex="1">
          <mxGeometry y="90" width="260" height="60" as="geometry" />
        </mxCell>
        <mxCell id="hx6C-yntCGoD2sHFQmVH-34" value="Definition of Business Value: How valuable is a task for the business model to be achieved." style="text;strokeColor=none;fillColor=default;align=left;verticalAlign=middle;spacingLeft=4;spacingRight=4;overflow=hidden;points=[[0,0.5],[1,0.5]];portConstraint=eastwest;rotatable=0;whiteSpace=wrap;" parent="hx6C-yntCGoD2sHFQmVH-30" vertex="1">
          <mxGeometry y="150" width="260" height="60" as="geometry" />
        </mxCell>
        <mxCell id="hx6C-yntCGoD2sHFQmVH-35" value="" style="endArrow=classic;html=1;rounded=0;entryX=0;entryY=0;entryDx=0;entryDy=0;exitX=1;exitY=0.75;exitDx=0;exitDy=0;" parent="1" source="XtWTOUynfwI3D9E_zNgG-32" target="hx6C-yntCGoD2sHFQmVH-30" edge="1">
          <mxGeometry width="50" height="50" relative="1" as="geometry">
            <mxPoint x="-80" y="1490" as="sourcePoint" />
            <mxPoint x="-30" y="1440" as="targetPoint" />
          </mxGeometry>
        </mxCell>
        <mxCell id="k1PRUhjrjEu_5gplpjs3-6" value="UCEP&lt;br&gt;Backlog" style="rounded=1;whiteSpace=wrap;html=1;" parent="1" vertex="1">
          <mxGeometry x="-59" y="2520" width="120" height="60" as="geometry" />
        </mxCell>
        <mxCell id="k1PRUhjrjEu_5gplpjs3-8" value="US#1" style="swimlane;fontStyle=0;childLayout=stackLayout;horizontal=1;startSize=30;horizontalStack=0;resizeParent=1;resizeParentMax=0;resizeLast=0;collapsible=1;marginBottom=0;" parent="1" vertex="1">
          <mxGeometry x="-119" y="2620" width="240" height="240" as="geometry">
            <mxRectangle x="-1190" y="1920" width="70" height="30" as="alternateBounds" />
          </mxGeometry>
        </mxCell>
        <mxCell id="k1PRUhjrjEu_5gplpjs3-9" value="As A user" style="text;strokeColor=none;fillColor=none;align=left;verticalAlign=middle;spacingLeft=4;spacingRight=4;overflow=hidden;points=[[0,0.5],[1,0.5]];portConstraint=eastwest;rotatable=0;" parent="k1PRUhjrjEu_5gplpjs3-8" vertex="1">
          <mxGeometry y="30" width="240" height="30" as="geometry" />
        </mxCell>
        <mxCell id="k1PRUhjrjEu_5gplpjs3-10" value="I WANT TO login in a website to see all the tokens I bought via Metamask" style="text;strokeColor=none;fillColor=none;align=left;verticalAlign=middle;spacingLeft=4;spacingRight=4;overflow=hidden;points=[[0,0.5],[1,0.5]];portConstraint=eastwest;rotatable=0;whiteSpace=wrap;" parent="k1PRUhjrjEu_5gplpjs3-8" vertex="1">
          <mxGeometry y="60" width="240" height="30" as="geometry" />
        </mxCell>
        <mxCell id="k1PRUhjrjEu_5gplpjs3-11" value="SO THAT I can easily access them" style="text;strokeColor=none;fillColor=none;align=left;verticalAlign=middle;spacingLeft=4;spacingRight=4;overflow=hidden;points=[[0,0.5],[1,0.5]];portConstraint=eastwest;rotatable=0;" parent="k1PRUhjrjEu_5gplpjs3-8" vertex="1">
          <mxGeometry y="90" width="240" height="30" as="geometry" />
        </mxCell>
        <mxCell id="k1PRUhjrjEu_5gplpjs3-12" value="Business Value 13" style="text;strokeColor=#d6b656;fillColor=#fff2cc;align=left;verticalAlign=middle;spacingLeft=4;spacingRight=4;overflow=hidden;points=[[0,0.5],[1,0.5]];portConstraint=eastwest;rotatable=0;" parent="k1PRUhjrjEu_5gplpjs3-8" vertex="1">
          <mxGeometry y="120" width="240" height="30" as="geometry" />
        </mxCell>
        <mxCell id="k1PRUhjrjEu_5gplpjs3-13" value="Effort 3" style="text;strokeColor=#d79b00;fillColor=#ffe6cc;align=left;verticalAlign=middle;spacingLeft=4;spacingRight=4;overflow=hidden;points=[[0,0.5],[1,0.5]];portConstraint=eastwest;rotatable=0;" parent="k1PRUhjrjEu_5gplpjs3-8" vertex="1">
          <mxGeometry y="150" width="240" height="30" as="geometry" />
        </mxCell>
        <mxCell id="k1PRUhjrjEu_5gplpjs3-14" value="Complexity 8" style="text;strokeColor=#6c8ebf;fillColor=#dae8fc;align=left;verticalAlign=middle;spacingLeft=4;spacingRight=4;overflow=hidden;points=[[0,0.5],[1,0.5]];portConstraint=eastwest;rotatable=0;" parent="k1PRUhjrjEu_5gplpjs3-8" vertex="1">
          <mxGeometry y="180" width="240" height="30" as="geometry" />
        </mxCell>
        <mxCell id="k1PRUhjrjEu_5gplpjs3-15" value="Quality Criteria" style="text;strokeColor=none;fillColor=none;align=left;verticalAlign=middle;spacingLeft=4;spacingRight=4;overflow=hidden;points=[[0,0.5],[1,0.5]];portConstraint=eastwest;rotatable=0;" parent="k1PRUhjrjEu_5gplpjs3-8" vertex="1">
          <mxGeometry y="210" width="240" height="30" as="geometry" />
        </mxCell>
        <mxCell id="k1PRUhjrjEu_5gplpjs3-16" value="US#2" style="swimlane;fontStyle=0;childLayout=stackLayout;horizontal=1;startSize=30;horizontalStack=0;resizeParent=1;resizeParentMax=0;resizeLast=0;collapsible=1;marginBottom=0;" parent="1" vertex="1">
          <mxGeometry x="-119" y="2900" width="240" height="240" as="geometry">
            <mxRectangle x="-1190" y="1920" width="70" height="30" as="alternateBounds" />
          </mxGeometry>
        </mxCell>
        <mxCell id="k1PRUhjrjEu_5gplpjs3-17" value="AS A user" style="text;strokeColor=none;fillColor=none;align=left;verticalAlign=middle;spacingLeft=4;spacingRight=4;overflow=hidden;points=[[0,0.5],[1,0.5]];portConstraint=eastwest;rotatable=0;" parent="k1PRUhjrjEu_5gplpjs3-16" vertex="1">
          <mxGeometry y="30" width="240" height="30" as="geometry" />
        </mxCell>
        <mxCell id="k1PRUhjrjEu_5gplpjs3-18" value="I WANT TO see on the price and quantity of each token I posse" style="text;strokeColor=none;fillColor=none;align=left;verticalAlign=middle;spacingLeft=4;spacingRight=4;overflow=hidden;points=[[0,0.5],[1,0.5]];portConstraint=eastwest;rotatable=0;whiteSpace=wrap;" parent="k1PRUhjrjEu_5gplpjs3-16" vertex="1">
          <mxGeometry y="60" width="240" height="30" as="geometry" />
        </mxCell>
        <mxCell id="k1PRUhjrjEu_5gplpjs3-19" value="SO THAT I can quickly evaluate my exposure to the crypto markets" style="text;strokeColor=none;fillColor=none;align=left;verticalAlign=middle;spacingLeft=4;spacingRight=4;overflow=hidden;points=[[0,0.5],[1,0.5]];portConstraint=eastwest;rotatable=0;whiteSpace=wrap;" parent="k1PRUhjrjEu_5gplpjs3-16" vertex="1">
          <mxGeometry y="90" width="240" height="30" as="geometry" />
        </mxCell>
        <mxCell id="k1PRUhjrjEu_5gplpjs3-20" value="Business Value 8" style="text;strokeColor=#d6b656;fillColor=#fff2cc;align=left;verticalAlign=middle;spacingLeft=4;spacingRight=4;overflow=hidden;points=[[0,0.5],[1,0.5]];portConstraint=eastwest;rotatable=0;" parent="k1PRUhjrjEu_5gplpjs3-16" vertex="1">
          <mxGeometry y="120" width="240" height="30" as="geometry" />
        </mxCell>
        <mxCell id="k1PRUhjrjEu_5gplpjs3-21" value="Effort 1" style="text;strokeColor=#d79b00;fillColor=#ffe6cc;align=left;verticalAlign=middle;spacingLeft=4;spacingRight=4;overflow=hidden;points=[[0,0.5],[1,0.5]];portConstraint=eastwest;rotatable=0;" parent="k1PRUhjrjEu_5gplpjs3-16" vertex="1">
          <mxGeometry y="150" width="240" height="30" as="geometry" />
        </mxCell>
        <mxCell id="k1PRUhjrjEu_5gplpjs3-22" value="Complexity 1" style="text;strokeColor=#6c8ebf;fillColor=#dae8fc;align=left;verticalAlign=middle;spacingLeft=4;spacingRight=4;overflow=hidden;points=[[0,0.5],[1,0.5]];portConstraint=eastwest;rotatable=0;" parent="k1PRUhjrjEu_5gplpjs3-16" vertex="1">
          <mxGeometry y="180" width="240" height="30" as="geometry" />
        </mxCell>
        <mxCell id="k1PRUhjrjEu_5gplpjs3-23" value="Quality Criteria" style="text;strokeColor=none;fillColor=none;align=left;verticalAlign=middle;spacingLeft=4;spacingRight=4;overflow=hidden;points=[[0,0.5],[1,0.5]];portConstraint=eastwest;rotatable=0;" parent="k1PRUhjrjEu_5gplpjs3-16" vertex="1">
          <mxGeometry y="210" width="240" height="30" as="geometry" />
        </mxCell>
        <mxCell id="k1PRUhjrjEu_5gplpjs3-24" value="US#3" style="swimlane;fontStyle=0;childLayout=stackLayout;horizontal=1;startSize=30;horizontalStack=0;resizeParent=1;resizeParentMax=0;resizeLast=0;collapsible=1;marginBottom=0;" parent="1" vertex="1">
          <mxGeometry x="-119" y="3180" width="240" height="270" as="geometry">
            <mxRectangle x="-1190" y="1920" width="70" height="30" as="alternateBounds" />
          </mxGeometry>
        </mxCell>
        <mxCell id="k1PRUhjrjEu_5gplpjs3-25" value="AS A user" style="text;strokeColor=none;fillColor=none;align=left;verticalAlign=middle;spacingLeft=4;spacingRight=4;overflow=hidden;points=[[0,0.5],[1,0.5]];portConstraint=eastwest;rotatable=0;" parent="k1PRUhjrjEu_5gplpjs3-24" vertex="1">
          <mxGeometry y="30" width="240" height="30" as="geometry" />
        </mxCell>
        <mxCell id="k1PRUhjrjEu_5gplpjs3-26" value="I WANT TO buy and sell each of my tokens with the native currency on their respective blockchain [Ether on Ethereum, Matic on Polygon...]" style="text;strokeColor=none;fillColor=none;align=left;verticalAlign=middle;spacingLeft=4;spacingRight=4;overflow=hidden;points=[[0,0.5],[1,0.5]];portConstraint=eastwest;rotatable=0;whiteSpace=wrap;" parent="k1PRUhjrjEu_5gplpjs3-24" vertex="1">
          <mxGeometry y="60" width="240" height="60" as="geometry" />
        </mxCell>
        <mxCell id="k1PRUhjrjEu_5gplpjs3-27" value="SO THAT I can quickly change my exposure to the crypto markets" style="text;strokeColor=none;fillColor=none;align=left;verticalAlign=middle;spacingLeft=4;spacingRight=4;overflow=hidden;points=[[0,0.5],[1,0.5]];portConstraint=eastwest;rotatable=0;whiteSpace=wrap;" parent="k1PRUhjrjEu_5gplpjs3-24" vertex="1">
          <mxGeometry y="120" width="240" height="30" as="geometry" />
        </mxCell>
        <mxCell id="k1PRUhjrjEu_5gplpjs3-28" value="Business Value 20" style="text;strokeColor=#d6b656;fillColor=#fff2cc;align=left;verticalAlign=middle;spacingLeft=4;spacingRight=4;overflow=hidden;points=[[0,0.5],[1,0.5]];portConstraint=eastwest;rotatable=0;" parent="k1PRUhjrjEu_5gplpjs3-24" vertex="1">
          <mxGeometry y="150" width="240" height="30" as="geometry" />
        </mxCell>
        <mxCell id="k1PRUhjrjEu_5gplpjs3-29" value="Effort 5" style="text;strokeColor=#d79b00;fillColor=#ffe6cc;align=left;verticalAlign=middle;spacingLeft=4;spacingRight=4;overflow=hidden;points=[[0,0.5],[1,0.5]];portConstraint=eastwest;rotatable=0;" parent="k1PRUhjrjEu_5gplpjs3-24" vertex="1">
          <mxGeometry y="180" width="240" height="30" as="geometry" />
        </mxCell>
        <mxCell id="k1PRUhjrjEu_5gplpjs3-30" value="Complexity 8" style="text;strokeColor=#6c8ebf;fillColor=#dae8fc;align=left;verticalAlign=middle;spacingLeft=4;spacingRight=4;overflow=hidden;points=[[0,0.5],[1,0.5]];portConstraint=eastwest;rotatable=0;" parent="k1PRUhjrjEu_5gplpjs3-24" vertex="1">
          <mxGeometry y="210" width="240" height="30" as="geometry" />
        </mxCell>
        <mxCell id="k1PRUhjrjEu_5gplpjs3-31" value="Quality Criteria" style="text;strokeColor=none;fillColor=none;align=left;verticalAlign=middle;spacingLeft=4;spacingRight=4;overflow=hidden;points=[[0,0.5],[1,0.5]];portConstraint=eastwest;rotatable=0;" parent="k1PRUhjrjEu_5gplpjs3-24" vertex="1">
          <mxGeometry y="240" width="240" height="30" as="geometry" />
        </mxCell>
        <mxCell id="k1PRUhjrjEu_5gplpjs3-32" value="US#4" style="swimlane;fontStyle=0;childLayout=stackLayout;horizontal=1;startSize=30;horizontalStack=0;resizeParent=1;resizeParentMax=0;resizeLast=0;collapsible=1;marginBottom=0;" parent="1" vertex="1">
          <mxGeometry x="-119" y="3500" width="240" height="260" as="geometry">
            <mxRectangle x="-1190" y="1920" width="70" height="30" as="alternateBounds" />
          </mxGeometry>
        </mxCell>
        <mxCell id="k1PRUhjrjEu_5gplpjs3-33" value="AS A user" style="text;strokeColor=none;fillColor=none;align=left;verticalAlign=middle;spacingLeft=4;spacingRight=4;overflow=hidden;points=[[0,0.5],[1,0.5]];portConstraint=eastwest;rotatable=0;" parent="k1PRUhjrjEu_5gplpjs3-32" vertex="1">
          <mxGeometry y="30" width="240" height="30" as="geometry" />
        </mxCell>
        <mxCell id="k1PRUhjrjEu_5gplpjs3-34" value="I WANT TO exchange each of my tokens with other tokens on their respective blockchain" style="text;strokeColor=none;fillColor=none;align=left;verticalAlign=middle;spacingLeft=4;spacingRight=4;overflow=hidden;points=[[0,0.5],[1,0.5]];portConstraint=eastwest;rotatable=0;whiteSpace=wrap;" parent="k1PRUhjrjEu_5gplpjs3-32" vertex="1">
          <mxGeometry y="60" width="240" height="50" as="geometry" />
        </mxCell>
        <mxCell id="k1PRUhjrjEu_5gplpjs3-35" value="SO THAT I can easily manage my portfolio" style="text;strokeColor=none;fillColor=none;align=left;verticalAlign=middle;spacingLeft=4;spacingRight=4;overflow=hidden;points=[[0,0.5],[1,0.5]];portConstraint=eastwest;rotatable=0;whiteSpace=wrap;" parent="k1PRUhjrjEu_5gplpjs3-32" vertex="1">
          <mxGeometry y="110" width="240" height="30" as="geometry" />
        </mxCell>
        <mxCell id="k1PRUhjrjEu_5gplpjs3-36" value="Business Value 20" style="text;strokeColor=#d6b656;fillColor=#fff2cc;align=left;verticalAlign=middle;spacingLeft=4;spacingRight=4;overflow=hidden;points=[[0,0.5],[1,0.5]];portConstraint=eastwest;rotatable=0;" parent="k1PRUhjrjEu_5gplpjs3-32" vertex="1">
          <mxGeometry y="140" width="240" height="30" as="geometry" />
        </mxCell>
        <mxCell id="k1PRUhjrjEu_5gplpjs3-37" value="Effort 8" style="text;strokeColor=#d79b00;fillColor=#ffe6cc;align=left;verticalAlign=middle;spacingLeft=4;spacingRight=4;overflow=hidden;points=[[0,0.5],[1,0.5]];portConstraint=eastwest;rotatable=0;" parent="k1PRUhjrjEu_5gplpjs3-32" vertex="1">
          <mxGeometry y="170" width="240" height="30" as="geometry" />
        </mxCell>
        <mxCell id="k1PRUhjrjEu_5gplpjs3-38" value="ComplexityÂ 13" style="text;strokeColor=#6c8ebf;fillColor=#dae8fc;align=left;verticalAlign=middle;spacingLeft=4;spacingRight=4;overflow=hidden;points=[[0,0.5],[1,0.5]];portConstraint=eastwest;rotatable=0;" parent="k1PRUhjrjEu_5gplpjs3-32" vertex="1">
          <mxGeometry y="200" width="240" height="30" as="geometry" />
        </mxCell>
        <mxCell id="k1PRUhjrjEu_5gplpjs3-39" value="Quality Criteria" style="text;strokeColor=none;fillColor=none;align=left;verticalAlign=middle;spacingLeft=4;spacingRight=4;overflow=hidden;points=[[0,0.5],[1,0.5]];portConstraint=eastwest;rotatable=0;" parent="k1PRUhjrjEu_5gplpjs3-32" vertex="1">
          <mxGeometry y="230" width="240" height="30" as="geometry" />
        </mxCell>
        <mxCell id="k1PRUhjrjEu_5gplpjs3-40" value="US#5" style="swimlane;fontStyle=0;childLayout=stackLayout;horizontal=1;startSize=30;horizontalStack=0;resizeParent=1;resizeParentMax=0;resizeLast=0;collapsible=1;marginBottom=0;" parent="1" vertex="1">
          <mxGeometry x="-119" y="3820" width="240" height="260" as="geometry">
            <mxRectangle x="-1190" y="1920" width="70" height="30" as="alternateBounds" />
          </mxGeometry>
        </mxCell>
        <mxCell id="k1PRUhjrjEu_5gplpjs3-41" value="AS A user" style="text;strokeColor=none;fillColor=none;align=left;verticalAlign=middle;spacingLeft=4;spacingRight=4;overflow=hidden;points=[[0,0.5],[1,0.5]];portConstraint=eastwest;rotatable=0;" parent="k1PRUhjrjEu_5gplpjs3-40" vertex="1">
          <mxGeometry y="30" width="240" height="30" as="geometry" />
        </mxCell>
        <mxCell id="k1PRUhjrjEu_5gplpjs3-42" value="I WANT TO exchange each of my tokens from one blockchain with their equivalent tokens on a different blockchain" style="text;strokeColor=none;fillColor=none;align=left;verticalAlign=middle;spacingLeft=4;spacingRight=4;overflow=hidden;points=[[0,0.5],[1,0.5]];portConstraint=eastwest;rotatable=0;whiteSpace=wrap;" parent="k1PRUhjrjEu_5gplpjs3-40" vertex="1">
          <mxGeometry y="60" width="240" height="50" as="geometry" />
        </mxCell>
        <mxCell id="k1PRUhjrjEu_5gplpjs3-43" value="SO THAT I can quickly modify exposure to a specific blockchain network" style="text;strokeColor=none;fillColor=none;align=left;verticalAlign=middle;spacingLeft=4;spacingRight=4;overflow=hidden;points=[[0,0.5],[1,0.5]];portConstraint=eastwest;rotatable=0;whiteSpace=wrap;" parent="k1PRUhjrjEu_5gplpjs3-40" vertex="1">
          <mxGeometry y="110" width="240" height="30" as="geometry" />
        </mxCell>
        <mxCell id="k1PRUhjrjEu_5gplpjs3-44" value="Business Value 20" style="text;strokeColor=#d6b656;fillColor=#fff2cc;align=left;verticalAlign=middle;spacingLeft=4;spacingRight=4;overflow=hidden;points=[[0,0.5],[1,0.5]];portConstraint=eastwest;rotatable=0;" parent="k1PRUhjrjEu_5gplpjs3-40" vertex="1">
          <mxGeometry y="140" width="240" height="30" as="geometry" />
        </mxCell>
        <mxCell id="k1PRUhjrjEu_5gplpjs3-45" value="Effort 13" style="text;strokeColor=#d79b00;fillColor=#ffe6cc;align=left;verticalAlign=middle;spacingLeft=4;spacingRight=4;overflow=hidden;points=[[0,0.5],[1,0.5]];portConstraint=eastwest;rotatable=0;" parent="k1PRUhjrjEu_5gplpjs3-40" vertex="1">
          <mxGeometry y="170" width="240" height="30" as="geometry" />
        </mxCell>
        <mxCell id="k1PRUhjrjEu_5gplpjs3-46" value="Complexity 20" style="text;strokeColor=#6c8ebf;fillColor=#dae8fc;align=left;verticalAlign=middle;spacingLeft=4;spacingRight=4;overflow=hidden;points=[[0,0.5],[1,0.5]];portConstraint=eastwest;rotatable=0;" parent="k1PRUhjrjEu_5gplpjs3-40" vertex="1">
          <mxGeometry y="200" width="240" height="30" as="geometry" />
        </mxCell>
        <mxCell id="k1PRUhjrjEu_5gplpjs3-47" value="Quality Criteria" style="text;strokeColor=none;fillColor=none;align=left;verticalAlign=middle;spacingLeft=4;spacingRight=4;overflow=hidden;points=[[0,0.5],[1,0.5]];portConstraint=eastwest;rotatable=0;" parent="k1PRUhjrjEu_5gplpjs3-40" vertex="1">
          <mxGeometry y="230" width="240" height="30" as="geometry" />
        </mxCell>
        <mxCell id="k1PRUhjrjEu_5gplpjs3-52" value="UCEP&lt;br&gt;Plan" style="rounded=1;whiteSpace=wrap;html=1;" parent="1" vertex="1">
          <mxGeometry x="-60" y="4280" width="120" height="60" as="geometry" />
        </mxCell>
        <mxCell id="k1PRUhjrjEu_5gplpjs3-53" value="" style="endArrow=classic;html=1;rounded=0;entryX=0.5;entryY=0;entryDx=0;entryDy=0;exitX=0.5;exitY=1;exitDx=0;exitDy=0;" parent="1" source="k1PRUhjrjEu_5gplpjs3-6" target="k1PRUhjrjEu_5gplpjs3-8" edge="1">
          <mxGeometry width="50" height="50" relative="1" as="geometry">
            <mxPoint x="-270" y="2430" as="sourcePoint" />
            <mxPoint x="-220" y="2380" as="targetPoint" />
          </mxGeometry>
        </mxCell>
        <mxCell id="k1PRUhjrjEu_5gplpjs3-54" value="" style="endArrow=classic;html=1;rounded=0;entryX=0.5;entryY=0;entryDx=0;entryDy=0;" parent="1" target="k1PRUhjrjEu_5gplpjs3-16" edge="1">
          <mxGeometry width="50" height="50" relative="1" as="geometry">
            <mxPoint x="1" y="2860" as="sourcePoint" />
            <mxPoint x="11" y="2630" as="targetPoint" />
          </mxGeometry>
        </mxCell>
        <mxCell id="k1PRUhjrjEu_5gplpjs3-55" value="" style="endArrow=classic;html=1;rounded=0;entryX=0.5;entryY=0;entryDx=0;entryDy=0;" parent="1" target="k1PRUhjrjEu_5gplpjs3-24" edge="1">
          <mxGeometry width="50" height="50" relative="1" as="geometry">
            <mxPoint x="1" y="3140" as="sourcePoint" />
            <mxPoint x="11" y="2910" as="targetPoint" />
          </mxGeometry>
        </mxCell>
        <mxCell id="k1PRUhjrjEu_5gplpjs3-56" value="" style="endArrow=classic;html=1;rounded=0;entryX=0.5;entryY=0;entryDx=0;entryDy=0;" parent="1" target="k1PRUhjrjEu_5gplpjs3-32" edge="1">
          <mxGeometry width="50" height="50" relative="1" as="geometry">
            <mxPoint x="1" y="3450" as="sourcePoint" />
            <mxPoint x="11" y="3190" as="targetPoint" />
          </mxGeometry>
        </mxCell>
        <mxCell id="k1PRUhjrjEu_5gplpjs3-57" value="" style="endArrow=classic;html=1;rounded=0;entryX=0.5;entryY=0;entryDx=0;entryDy=0;" parent="1" target="k1PRUhjrjEu_5gplpjs3-40" edge="1">
          <mxGeometry width="50" height="50" relative="1" as="geometry">
            <mxPoint y="3760" as="sourcePoint" />
            <mxPoint x="-10" y="3820" as="targetPoint" />
          </mxGeometry>
        </mxCell>
        <mxCell id="k1PRUhjrjEu_5gplpjs3-58" value="" style="endArrow=classic;html=1;rounded=0;entryX=0.5;entryY=0;entryDx=0;entryDy=0;" parent="1" target="k1PRUhjrjEu_5gplpjs3-52" edge="1">
          <mxGeometry width="50" height="50" relative="1" as="geometry">
            <mxPoint y="4080" as="sourcePoint" />
            <mxPoint x="11" y="3830" as="targetPoint" />
          </mxGeometry>
        </mxCell>
        <mxCell id="k1PRUhjrjEu_5gplpjs3-59" value="" style="endArrow=classic;html=1;rounded=0;exitX=0.75;exitY=1;exitDx=0;exitDy=0;entryX=0.5;entryY=0;entryDx=0;entryDy=0;" parent="1" source="XtWTOUynfwI3D9E_zNgG-17" target="XtWTOUynfwI3D9E_zNgG-22" edge="1">
          <mxGeometry width="50" height="50" relative="1" as="geometry">
            <mxPoint x="100" y="920" as="sourcePoint" />
            <mxPoint x="1020" y="990" as="targetPoint" />
          </mxGeometry>
        </mxCell>
        <mxCell id="k1PRUhjrjEu_5gplpjs3-60" value="" style="endArrow=classic;html=1;rounded=0;exitX=0.5;exitY=1;exitDx=0;exitDy=0;entryX=0.5;entryY=0;entryDx=0;entryDy=0;" parent="1" source="XtWTOUynfwI3D9E_zNgG-22" target="XtWTOUynfwI3D9E_zNgG-33" edge="1">
          <mxGeometry width="50" height="50" relative="1" as="geometry">
            <mxPoint x="1255" y="1207" as="sourcePoint" />
            <mxPoint x="1305" y="1157" as="targetPoint" />
          </mxGeometry>
        </mxCell>
        <mxCell id="k1PRUhjrjEu_5gplpjs3-64" value="Management of Risk&lt;br&gt;M_o_R" style="rounded=1;whiteSpace=wrap;html=1;fillColor=default;" parent="1" vertex="1">
          <mxGeometry x="1360" y="1400" width="120" height="60" as="geometry" />
        </mxCell>
        <mxCell id="k1PRUhjrjEu_5gplpjs3-66" value="Prototyping/Spiking" style="rounded=1;whiteSpace=wrap;html=1;fillColor=default;" parent="1" vertex="1">
          <mxGeometry x="1220" y="1490" width="120" height="60" as="geometry" />
        </mxCell>
        <mxCell id="k1PRUhjrjEu_5gplpjs3-68" value="Need Scrum&lt;br&gt;to Breakdown backlogs into sprints" style="shape=callout;whiteSpace=wrap;html=1;perimeter=calloutPerimeter;fillColor=#d5e8d4;size=30;position=0;position2=0;strokeColor=#82b366;" parent="1" vertex="1">
          <mxGeometry x="60" y="4200" width="120" height="80" as="geometry" />
        </mxCell>
        <mxCell id="o5IEWMfPLHSK6R93jNDo-14" value="&lt;a href=&quot;https://drive.google.com/file/d/1cet7AQ7Vf_5-I0kTatl1ZezCBSEvYZp7/view?usp=sharing&quot;&gt;Risk Management Procedure&lt;/a&gt;" style="rounded=1;whiteSpace=wrap;html=1;" parent="1" vertex="1">
          <mxGeometry x="1220" y="1160" width="120" height="60" as="geometry" />
        </mxCell>
        <mxCell id="o5IEWMfPLHSK6R93jNDo-15" value="&lt;a href=&quot;https://drive.google.com/file/d/18VNWYdvqrIJVhNzBTqq_2BzanB7jByoG/view?usp=sharing&quot;&gt;Risk Register&lt;/a&gt;" style="rounded=1;whiteSpace=wrap;html=1;" parent="1" vertex="1">
          <mxGeometry x="1360" y="1280" width="120" height="60" as="geometry" />
        </mxCell>
        <mxCell id="o5IEWMfPLHSK6R93jNDo-16" value="&lt;a href=&quot;https://drive.google.com/file/d/11XBhLTyuHNqBXtKSfv7aXtc3-fHZAzDR/view?usp=sharing&quot;&gt;Agilometer&lt;/a&gt;" style="rounded=1;whiteSpace=wrap;html=1;" parent="1" vertex="1">
          <mxGeometry x="1095.5" y="1280" width="120" height="60" as="geometry" />
        </mxCell>
        <mxCell id="o5IEWMfPLHSK6R93jNDo-17" value="&lt;a href=&quot;https://drive.google.com/file/d/1p-OGWlN7Gae8UdLYFOh4zx6h0b8HBk1S/view?usp=sharing&quot;&gt;Burn Down Chart&lt;/a&gt;" style="rounded=1;whiteSpace=wrap;html=1;" parent="1" vertex="1">
          <mxGeometry x="1095.5" y="1400" width="120" height="60" as="geometry" />
        </mxCell>
        <mxCell id="o5IEWMfPLHSK6R93jNDo-18" value="" style="endArrow=classic;html=1;rounded=0;entryX=0.5;entryY=0;entryDx=0;entryDy=0;exitX=0.5;exitY=1;exitDx=0;exitDy=0;" parent="1" source="XtWTOUynfwI3D9E_zNgG-33" target="o5IEWMfPLHSK6R93jNDo-14" edge="1">
          <mxGeometry width="50" height="50" relative="1" as="geometry">
            <mxPoint x="1040" y="1090" as="sourcePoint" />
            <mxPoint x="1090" y="1040" as="targetPoint" />
          </mxGeometry>
        </mxCell>
        <mxCell id="o5IEWMfPLHSK6R93jNDo-19" value="" style="endArrow=classic;html=1;rounded=0;exitX=0.25;exitY=1;exitDx=0;exitDy=0;entryX=0.75;entryY=0;entryDx=0;entryDy=0;" parent="1" source="o5IEWMfPLHSK6R93jNDo-14" target="o5IEWMfPLHSK6R93jNDo-16" edge="1">
          <mxGeometry width="50" height="50" relative="1" as="geometry">
            <mxPoint x="1280" y="1330" as="sourcePoint" />
            <mxPoint x="1330" y="1280" as="targetPoint" />
          </mxGeometry>
        </mxCell>
        <mxCell id="o5IEWMfPLHSK6R93jNDo-20" value="" style="endArrow=classic;html=1;rounded=0;exitX=0.75;exitY=1;exitDx=0;exitDy=0;entryX=0.25;entryY=0;entryDx=0;entryDy=0;" parent="1" source="o5IEWMfPLHSK6R93jNDo-14" target="o5IEWMfPLHSK6R93jNDo-15" edge="1">
          <mxGeometry width="50" height="50" relative="1" as="geometry">
            <mxPoint x="1260" y="1230" as="sourcePoint" />
            <mxPoint x="1195.5" y="1290" as="targetPoint" />
          </mxGeometry>
        </mxCell>
        <mxCell id="o5IEWMfPLHSK6R93jNDo-21" value="" style="endArrow=classic;html=1;rounded=0;exitX=0.5;exitY=1;exitDx=0;exitDy=0;entryX=1;entryY=0;entryDx=0;entryDy=0;" parent="1" source="o5IEWMfPLHSK6R93jNDo-14" target="o5IEWMfPLHSK6R93jNDo-17" edge="1">
          <mxGeometry width="50" height="50" relative="1" as="geometry">
            <mxPoint x="1320" y="1230" as="sourcePoint" />
            <mxPoint x="1400" y="1290" as="targetPoint" />
          </mxGeometry>
        </mxCell>
        <mxCell id="o5IEWMfPLHSK6R93jNDo-22" value="" style="endArrow=classic;html=1;rounded=0;exitX=0.5;exitY=1;exitDx=0;exitDy=0;entryX=0;entryY=0;entryDx=0;entryDy=0;" parent="1" source="o5IEWMfPLHSK6R93jNDo-14" target="k1PRUhjrjEu_5gplpjs3-64" edge="1">
          <mxGeometry width="50" height="50" relative="1" as="geometry">
            <mxPoint x="1290" y="1230" as="sourcePoint" />
            <mxPoint x="1225.5" y="1410" as="targetPoint" />
          </mxGeometry>
        </mxCell>
        <mxCell id="o5IEWMfPLHSK6R93jNDo-23" value="" style="endArrow=classic;html=1;rounded=0;exitX=0.5;exitY=1;exitDx=0;exitDy=0;entryX=0.5;entryY=0;entryDx=0;entryDy=0;" parent="1" source="o5IEWMfPLHSK6R93jNDo-14" target="k1PRUhjrjEu_5gplpjs3-66" edge="1">
          <mxGeometry width="50" height="50" relative="1" as="geometry">
            <mxPoint x="1290" y="1230" as="sourcePoint" />
            <mxPoint x="1370" y="1410" as="targetPoint" />
          </mxGeometry>
        </mxCell>
        <mxCell id="o5IEWMfPLHSK6R93jNDo-24" value="" style="endArrow=classic;html=1;rounded=0;exitX=0.5;exitY=1;exitDx=0;exitDy=0;entryX=0.5;entryY=0;entryDx=0;entryDy=0;" parent="1" source="XtWTOUynfwI3D9E_zNgG-17" target="XtWTOUynfwI3D9E_zNgG-23" edge="1">
          <mxGeometry width="50" height="50" relative="1" as="geometry">
            <mxPoint x="710" y="810" as="sourcePoint" />
            <mxPoint x="760" y="760" as="targetPoint" />
          </mxGeometry>
        </mxCell>
        <mxCell id="o5IEWMfPLHSK6R93jNDo-25" value="" style="endArrow=classic;html=1;rounded=0;entryX=0.5;entryY=0;entryDx=0;entryDy=0;exitX=0.5;exitY=1;exitDx=0;exitDy=0;" parent="1" source="XtWTOUynfwI3D9E_zNgG-23" target="XtWTOUynfwI3D9E_zNgG-34" edge="1">
          <mxGeometry width="50" height="50" relative="1" as="geometry">
            <mxPoint x="1500" y="830" as="sourcePoint" />
            <mxPoint x="1550" y="780" as="targetPoint" />
          </mxGeometry>
        </mxCell>
        <mxCell id="o5IEWMfPLHSK6R93jNDo-26" value="In this project, we will breakdown changes in 3 categories:&lt;br&gt;&lt;ol&gt;&lt;li&gt;High Level Changes: which will affect the project baseline &amp;amp; require&amp;nbsp; Corporate, Programme Management or Customer approval&lt;/li&gt;&lt;li&gt;Intermediate Level Changes: which may affect the project baseline &amp;amp; require Project Board or Project Manager approval&lt;/li&gt;&lt;li&gt;Low Level Changes: which will not affect project baseline &amp;amp; can be managed at the Team delivery level&lt;/li&gt;&lt;/ol&gt;" style="shape=process;whiteSpace=wrap;html=1;backgroundOutline=1;align=left;" parent="1" vertex="1">
          <mxGeometry x="1821.5" y="1160" width="319" height="220" as="geometry" />
        </mxCell>
        <mxCell id="o5IEWMfPLHSK6R93jNDo-29" value="&lt;a href=&quot;https://drive.google.com/file/d/184ReXQi2ReZrLzXkziREQrEBEkcVZHau/view?usp=sharing&quot;&gt;Level of Change illustration&lt;/a&gt;" style="rounded=1;whiteSpace=wrap;html=1;" parent="1" vertex="1">
          <mxGeometry x="1921" y="1460" width="120" height="60" as="geometry" />
        </mxCell>
        <mxCell id="o5IEWMfPLHSK6R93jNDo-30" value="" style="endArrow=classic;html=1;rounded=0;exitX=0.5;exitY=1;exitDx=0;exitDy=0;entryX=0.5;entryY=0;entryDx=0;entryDy=0;" parent="1" source="XtWTOUynfwI3D9E_zNgG-34" target="o5IEWMfPLHSK6R93jNDo-26" edge="1">
          <mxGeometry width="50" height="50" relative="1" as="geometry">
            <mxPoint x="2070" y="1150" as="sourcePoint" />
            <mxPoint x="2120" y="1100" as="targetPoint" />
          </mxGeometry>
        </mxCell>
        <mxCell id="o5IEWMfPLHSK6R93jNDo-31" value="" style="endArrow=classic;html=1;rounded=0;exitX=0.5;exitY=1;exitDx=0;exitDy=0;entryX=0.5;entryY=0;entryDx=0;entryDy=0;" parent="1" source="o5IEWMfPLHSK6R93jNDo-26" target="o5IEWMfPLHSK6R93jNDo-29" edge="1">
          <mxGeometry width="50" height="50" relative="1" as="geometry">
            <mxPoint x="1979.81" y="1389.9999999999998" as="sourcePoint" />
            <mxPoint x="1979.81" y="1449.9999999999998" as="targetPoint" />
          </mxGeometry>
        </mxCell>
        <mxCell id="utWg4M2H93-L9yyQu2mk-1" value="Change Structure&amp;nbsp;&lt;br&gt;for UCEP" style="rounded=1;whiteSpace=wrap;html=1;" parent="1" vertex="1">
          <mxGeometry x="1921" y="1560" width="120" height="60" as="geometry" />
        </mxCell>
        <mxCell id="utWg4M2H93-L9yyQu2mk-2" value="" style="endArrow=classic;html=1;rounded=0;entryX=0.5;entryY=0;entryDx=0;entryDy=0;exitX=0.5;exitY=1;exitDx=0;exitDy=0;" parent="1" source="o5IEWMfPLHSK6R93jNDo-29" target="utWg4M2H93-L9yyQu2mk-1" edge="1">
          <mxGeometry width="50" height="50" relative="1" as="geometry">
            <mxPoint x="1610" y="1470" as="sourcePoint" />
            <mxPoint x="1660" y="1420" as="targetPoint" />
          </mxGeometry>
        </mxCell>
        <mxCell id="utWg4M2H93-L9yyQu2mk-3" value="UCEP is a one man Project&lt;br&gt;Therefor low, intermediate and high level of change will be managed by &lt;br&gt;Shaun.&lt;br&gt;" style="ellipse;whiteSpace=wrap;html=1;aspect=fixed;" parent="1" vertex="1">
          <mxGeometry x="1865" y="1690" width="230" height="230" as="geometry" />
        </mxCell>
        <mxCell id="utWg4M2H93-L9yyQu2mk-6" value="Since the project is Baseline, &lt;br&gt;any High level changes will be &lt;br&gt;recorded as changes &lt;br&gt;in the Baseline" style="rhombus;whiteSpace=wrap;html=1;" parent="1" vertex="1">
          <mxGeometry x="1580" y="1697.5" width="220" height="215" as="geometry" />
        </mxCell>
        <mxCell id="utWg4M2H93-L9yyQu2mk-7" value="Intermediate &lt;br&gt;changes will &lt;br&gt;be baselined only if they &lt;br&gt;impact the project baseline.&lt;br&gt;Otherwise, they will be &lt;br&gt;managed&lt;br&gt;as User Stories in &lt;br&gt;the Backlog" style="rhombus;whiteSpace=wrap;html=1;" parent="1" vertex="1">
          <mxGeometry x="2160" y="1697" width="220" height="215" as="geometry" />
        </mxCell>
        <mxCell id="utWg4M2H93-L9yyQu2mk-8" value="Low Level Changes will&lt;br&gt;be managed as&amp;nbsp;&lt;br&gt;User Stories in&lt;br&gt;the Backlog" style="rhombus;whiteSpace=wrap;html=1;" parent="1" vertex="1">
          <mxGeometry x="1870" y="2000" width="220" height="215" as="geometry" />
        </mxCell>
        <mxCell id="utWg4M2H93-L9yyQu2mk-9" value="" style="endArrow=none;dashed=1;html=1;rounded=0;entryX=0;entryY=0.5;entryDx=0;entryDy=0;exitX=1;exitY=0.5;exitDx=0;exitDy=0;" parent="1" source="utWg4M2H93-L9yyQu2mk-6" target="utWg4M2H93-L9yyQu2mk-3" edge="1">
          <mxGeometry width="50" height="50" relative="1" as="geometry">
            <mxPoint x="1790" y="1710" as="sourcePoint" />
            <mxPoint x="1840" y="1660" as="targetPoint" />
          </mxGeometry>
        </mxCell>
        <mxCell id="utWg4M2H93-L9yyQu2mk-10" value="" style="endArrow=none;dashed=1;html=1;rounded=0;entryX=0;entryY=0.5;entryDx=0;entryDy=0;exitX=1;exitY=0.5;exitDx=0;exitDy=0;" parent="1" source="utWg4M2H93-L9yyQu2mk-3" target="utWg4M2H93-L9yyQu2mk-7" edge="1">
          <mxGeometry width="50" height="50" relative="1" as="geometry">
            <mxPoint x="2130" y="1900" as="sourcePoint" />
            <mxPoint x="2180" y="1850" as="targetPoint" />
          </mxGeometry>
        </mxCell>
        <mxCell id="utWg4M2H93-L9yyQu2mk-11" value="" style="endArrow=none;dashed=1;html=1;rounded=0;entryX=0.5;entryY=0;entryDx=0;entryDy=0;exitX=0.5;exitY=1;exitDx=0;exitDy=0;" parent="1" source="utWg4M2H93-L9yyQu2mk-3" target="utWg4M2H93-L9yyQu2mk-8" edge="1">
          <mxGeometry width="50" height="50" relative="1" as="geometry">
            <mxPoint x="1780" y="2040" as="sourcePoint" />
            <mxPoint x="1830" y="1990" as="targetPoint" />
          </mxGeometry>
        </mxCell>
        <mxCell id="utWg4M2H93-L9yyQu2mk-12" value="" style="endArrow=classic;html=1;rounded=0;entryX=0.5;entryY=0;entryDx=0;entryDy=0;exitX=0.5;exitY=1;exitDx=0;exitDy=0;" parent="1" source="utWg4M2H93-L9yyQu2mk-1" target="utWg4M2H93-L9yyQu2mk-3" edge="1">
          <mxGeometry width="50" height="50" relative="1" as="geometry">
            <mxPoint x="1800" y="1580" as="sourcePoint" />
            <mxPoint x="1850" y="1530" as="targetPoint" />
          </mxGeometry>
        </mxCell>
        <mxCell id="utWg4M2H93-L9yyQu2mk-13" value="" style="endArrow=classic;html=1;rounded=0;exitX=0.5;exitY=1;exitDx=0;exitDy=0;entryX=0.5;entryY=0;entryDx=0;entryDy=0;" parent="1" source="XtWTOUynfwI3D9E_zNgG-17" target="XtWTOUynfwI3D9E_zNgG-24" edge="1">
          <mxGeometry width="50" height="50" relative="1" as="geometry">
            <mxPoint y="860" as="sourcePoint" />
            <mxPoint x="2490" y="880" as="targetPoint" />
          </mxGeometry>
        </mxCell>
        <mxCell id="utWg4M2H93-L9yyQu2mk-14" value="" style="endArrow=classic;html=1;rounded=0;entryX=0.5;entryY=0;entryDx=0;entryDy=0;exitX=0.5;exitY=1;exitDx=0;exitDy=0;" parent="1" source="XtWTOUynfwI3D9E_zNgG-24" target="XtWTOUynfwI3D9E_zNgG-35" edge="1">
          <mxGeometry width="50" height="50" relative="1" as="geometry">
            <mxPoint x="2860" y="1020" as="sourcePoint" />
            <mxPoint x="2910" y="970" as="targetPoint" />
          </mxGeometry>
        </mxCell>
        <mxCell id="utWg4M2H93-L9yyQu2mk-15" value="In UCEP Project, the progress will be measured via an&lt;br&gt;Information Radiator which will include the following:&lt;br&gt;&lt;a href=&quot;https://drive.google.com/file/d/1ShPYzMAoQx3FQH0FvvUpc45PMzbWnm0T/view?usp=sharing&quot;&gt;Example&lt;/a&gt;" style="rounded=1;whiteSpace=wrap;html=1;" parent="1" vertex="1">
          <mxGeometry x="2880" y="1180" width="200" height="90" as="geometry" />
        </mxCell>
        <mxCell id="utWg4M2H93-L9yyQu2mk-16" value="" style="endArrow=classic;html=1;rounded=0;entryX=0.5;entryY=0;entryDx=0;entryDy=0;exitX=0.5;exitY=1;exitDx=0;exitDy=0;" parent="1" source="XtWTOUynfwI3D9E_zNgG-35" target="utWg4M2H93-L9yyQu2mk-15" edge="1">
          <mxGeometry width="50" height="50" relative="1" as="geometry">
            <mxPoint x="2730" y="1080" as="sourcePoint" />
            <mxPoint x="2780" y="1030" as="targetPoint" />
          </mxGeometry>
        </mxCell>
        <mxCell id="utWg4M2H93-L9yyQu2mk-17" value="&lt;a href=&quot;https://drive.google.com/file/d/1p-OGWlN7Gae8UdLYFOh4zx6h0b8HBk1S/view?usp=sharing&quot;&gt;Burn Down Chart&lt;/a&gt;" style="rounded=1;whiteSpace=wrap;html=1;" parent="1" vertex="1">
          <mxGeometry x="2680" y="1120" width="120" height="60" as="geometry" />
        </mxCell>
        <mxCell id="utWg4M2H93-L9yyQu2mk-18" value="Work In Progress&lt;br&gt;[WIP]" style="rounded=1;whiteSpace=wrap;html=1;" parent="1" vertex="1">
          <mxGeometry x="3160" y="1120" width="120" height="60" as="geometry" />
        </mxCell>
        <mxCell id="utWg4M2H93-L9yyQu2mk-19" value="Goal" style="rounded=1;whiteSpace=wrap;html=1;" parent="1" vertex="1">
          <mxGeometry x="3160" y="1240" width="120" height="60" as="geometry" />
        </mxCell>
        <mxCell id="utWg4M2H93-L9yyQu2mk-20" value="Team Rules" style="rounded=1;whiteSpace=wrap;html=1;" parent="1" vertex="1">
          <mxGeometry x="2680" y="1240" width="120" height="60" as="geometry" />
        </mxCell>
        <mxCell id="utWg4M2H93-L9yyQu2mk-21" value="" style="endArrow=classic;html=1;rounded=0;entryX=0;entryY=0;entryDx=0;entryDy=0;exitX=1;exitY=0.5;exitDx=0;exitDy=0;" parent="1" source="utWg4M2H93-L9yyQu2mk-17" target="utWg4M2H93-L9yyQu2mk-15" edge="1">
          <mxGeometry width="50" height="50" relative="1" as="geometry">
            <mxPoint x="2760" y="1060" as="sourcePoint" />
            <mxPoint x="2810" y="1010" as="targetPoint" />
          </mxGeometry>
        </mxCell>
        <mxCell id="utWg4M2H93-L9yyQu2mk-22" value="" style="endArrow=classic;html=1;rounded=0;entryX=1;entryY=0;entryDx=0;entryDy=0;exitX=0;exitY=0.5;exitDx=0;exitDy=0;" parent="1" source="utWg4M2H93-L9yyQu2mk-18" target="utWg4M2H93-L9yyQu2mk-15" edge="1">
          <mxGeometry width="50" height="50" relative="1" as="geometry">
            <mxPoint x="2810" y="1160" as="sourcePoint" />
            <mxPoint x="2890" y="1190" as="targetPoint" />
          </mxGeometry>
        </mxCell>
        <mxCell id="utWg4M2H93-L9yyQu2mk-23" value="" style="endArrow=classic;html=1;rounded=0;entryX=1;entryY=0.75;entryDx=0;entryDy=0;exitX=0;exitY=0.5;exitDx=0;exitDy=0;" parent="1" source="utWg4M2H93-L9yyQu2mk-19" target="utWg4M2H93-L9yyQu2mk-15" edge="1">
          <mxGeometry width="50" height="50" relative="1" as="geometry">
            <mxPoint x="3170" y="1160" as="sourcePoint" />
            <mxPoint x="3090" y="1190" as="targetPoint" />
          </mxGeometry>
        </mxCell>
        <mxCell id="utWg4M2H93-L9yyQu2mk-24" value="" style="endArrow=classic;html=1;rounded=0;entryX=0;entryY=0.75;entryDx=0;entryDy=0;exitX=1;exitY=0.5;exitDx=0;exitDy=0;" parent="1" source="utWg4M2H93-L9yyQu2mk-20" target="utWg4M2H93-L9yyQu2mk-15" edge="1">
          <mxGeometry width="50" height="50" relative="1" as="geometry">
            <mxPoint x="3170" y="1280" as="sourcePoint" />
            <mxPoint x="3090" y="1280" as="targetPoint" />
          </mxGeometry>
        </mxCell>
        <mxCell id="utWg4M2H93-L9yyQu2mk-25" value="Since Shaun is the only team member in this project, he will use the 15min daily meeting to update the Information Radiator to track his progress" style="shape=hexagon;perimeter=hexagonPerimeter2;whiteSpace=wrap;html=1;fixedSize=1;" parent="1" vertex="1">
          <mxGeometry x="2840" y="1350" width="280" height="90" as="geometry" />
        </mxCell>
        <mxCell id="utWg4M2H93-L9yyQu2mk-27" value="" style="endArrow=classic;html=1;rounded=0;entryX=0.5;entryY=0;entryDx=0;entryDy=0;exitX=0.5;exitY=1;exitDx=0;exitDy=0;" parent="1" source="utWg4M2H93-L9yyQu2mk-15" target="utWg4M2H93-L9yyQu2mk-25" edge="1">
          <mxGeometry width="50" height="50" relative="1" as="geometry">
            <mxPoint x="2830" y="1320" as="sourcePoint" />
            <mxPoint x="2880" y="1270" as="targetPoint" />
          </mxGeometry>
        </mxCell>
        <mxCell id="u2Ux1-ScnYIHnxnn0vt9-1" value="Vision / Goal" style="swimlane;fontStyle=0;childLayout=stackLayout;horizontal=1;startSize=30;horizontalStack=0;resizeParent=1;resizeParentMax=0;resizeLast=0;collapsible=1;marginBottom=0;" parent="1" vertex="1">
          <mxGeometry x="-3080" y="1170" width="360" height="60" as="geometry" />
        </mxCell>
        <mxCell id="u2Ux1-ScnYIHnxnn0vt9-2" value="To allow users to easily, efficiently and safely manage their tokens" style="text;strokeColor=none;fillColor=none;align=left;verticalAlign=middle;spacingLeft=4;spacingRight=4;overflow=hidden;points=[[0,0.5],[1,0.5]];portConstraint=eastwest;rotatable=0;whiteSpace=wrap;" parent="u2Ux1-ScnYIHnxnn0vt9-1" vertex="1">
          <mxGeometry y="30" width="360" height="30" as="geometry" />
        </mxCell>
        <mxCell id="u2Ux1-ScnYIHnxnn0vt9-5" value="" style="endArrow=classic;html=1;rounded=0;entryX=0.5;entryY=0;entryDx=0;entryDy=0;exitX=0.5;exitY=1;exitDx=0;exitDy=0;" parent="1" source="XtWTOUynfwI3D9E_zNgG-29" target="u2Ux1-ScnYIHnxnn0vt9-1" edge="1">
          <mxGeometry width="50" height="50" relative="1" as="geometry">
            <mxPoint x="-3220" y="1090" as="sourcePoint" />
            <mxPoint x="-3170" y="1040" as="targetPoint" />
          </mxGeometry>
        </mxCell>
        <mxCell id="u2Ux1-ScnYIHnxnn0vt9-6" value="TS#1.1" style="swimlane;fontStyle=0;childLayout=stackLayout;horizontal=1;startSize=30;horizontalStack=0;resizeParent=1;resizeParentMax=0;resizeLast=0;collapsible=1;marginBottom=0;" parent="1" vertex="1">
          <mxGeometry x="250" y="2620" width="240" height="260" as="geometry">
            <mxRectangle x="-1190" y="1920" width="70" height="30" as="alternateBounds" />
          </mxGeometry>
        </mxCell>
        <mxCell id="u2Ux1-ScnYIHnxnn0vt9-7" value="AS the website" style="text;strokeColor=none;fillColor=none;align=left;verticalAlign=middle;spacingLeft=4;spacingRight=4;overflow=hidden;points=[[0,0.5],[1,0.5]];portConstraint=eastwest;rotatable=0;" parent="u2Ux1-ScnYIHnxnn0vt9-6" vertex="1">
          <mxGeometry y="30" width="240" height="30" as="geometry" />
        </mxCell>
        <mxCell id="u2Ux1-ScnYIHnxnn0vt9-8" value="IT NEEDS TO connect with Metamask" style="text;strokeColor=none;fillColor=none;align=left;verticalAlign=middle;spacingLeft=4;spacingRight=4;overflow=hidden;points=[[0,0.5],[1,0.5]];portConstraint=eastwest;rotatable=0;whiteSpace=wrap;" parent="u2Ux1-ScnYIHnxnn0vt9-6" vertex="1">
          <mxGeometry y="60" width="240" height="30" as="geometry" />
        </mxCell>
        <mxCell id="u2Ux1-ScnYIHnxnn0vt9-9" value="SO THAT IT can enquire the list of tokens the user hasÂ " style="text;strokeColor=none;fillColor=none;align=left;verticalAlign=middle;spacingLeft=4;spacingRight=4;overflow=hidden;points=[[0,0.5],[1,0.5]];portConstraint=eastwest;rotatable=0;whiteSpace=wrap;" parent="u2Ux1-ScnYIHnxnn0vt9-6" vertex="1">
          <mxGeometry y="90" width="240" height="50" as="geometry" />
        </mxCell>
        <mxCell id="u2Ux1-ScnYIHnxnn0vt9-10" value="Business Value 13" style="text;strokeColor=#d6b656;fillColor=#fff2cc;align=left;verticalAlign=middle;spacingLeft=4;spacingRight=4;overflow=hidden;points=[[0,0.5],[1,0.5]];portConstraint=eastwest;rotatable=0;" parent="u2Ux1-ScnYIHnxnn0vt9-6" vertex="1">
          <mxGeometry y="140" width="240" height="30" as="geometry" />
        </mxCell>
        <mxCell id="u2Ux1-ScnYIHnxnn0vt9-11" value="Effort 2" style="text;strokeColor=#d79b00;fillColor=#ffe6cc;align=left;verticalAlign=middle;spacingLeft=4;spacingRight=4;overflow=hidden;points=[[0,0.5],[1,0.5]];portConstraint=eastwest;rotatable=0;" parent="u2Ux1-ScnYIHnxnn0vt9-6" vertex="1">
          <mxGeometry y="170" width="240" height="30" as="geometry" />
        </mxCell>
        <mxCell id="u2Ux1-ScnYIHnxnn0vt9-12" value="Complexity 3" style="text;strokeColor=#6c8ebf;fillColor=#dae8fc;align=left;verticalAlign=middle;spacingLeft=4;spacingRight=4;overflow=hidden;points=[[0,0.5],[1,0.5]];portConstraint=eastwest;rotatable=0;" parent="u2Ux1-ScnYIHnxnn0vt9-6" vertex="1">
          <mxGeometry y="200" width="240" height="30" as="geometry" />
        </mxCell>
        <mxCell id="u2Ux1-ScnYIHnxnn0vt9-13" value="Quality Criteria" style="text;strokeColor=none;fillColor=none;align=left;verticalAlign=middle;spacingLeft=4;spacingRight=4;overflow=hidden;points=[[0,0.5],[1,0.5]];portConstraint=eastwest;rotatable=0;" parent="u2Ux1-ScnYIHnxnn0vt9-6" vertex="1">
          <mxGeometry y="230" width="240" height="30" as="geometry" />
        </mxCell>
        <mxCell id="u2Ux1-ScnYIHnxnn0vt9-14" value="TS#1.2" style="swimlane;fontStyle=0;childLayout=stackLayout;horizontal=1;startSize=30;horizontalStack=0;resizeParent=1;resizeParentMax=0;resizeLast=0;collapsible=1;marginBottom=0;" parent="1" vertex="1">
          <mxGeometry x="520" y="2620" width="240" height="260" as="geometry">
            <mxRectangle x="-1190" y="1920" width="70" height="30" as="alternateBounds" />
          </mxGeometry>
        </mxCell>
        <mxCell id="u2Ux1-ScnYIHnxnn0vt9-15" value="AS the website" style="text;strokeColor=none;fillColor=none;align=left;verticalAlign=middle;spacingLeft=4;spacingRight=4;overflow=hidden;points=[[0,0.5],[1,0.5]];portConstraint=eastwest;rotatable=0;" parent="u2Ux1-ScnYIHnxnn0vt9-14" vertex="1">
          <mxGeometry y="30" width="240" height="30" as="geometry" />
        </mxCell>
        <mxCell id="u2Ux1-ScnYIHnxnn0vt9-16" value="IT NEEDS TO generate a boardÂ " style="text;strokeColor=none;fillColor=none;align=left;verticalAlign=middle;spacingLeft=4;spacingRight=4;overflow=hidden;points=[[0,0.5],[1,0.5]];portConstraint=eastwest;rotatable=0;whiteSpace=wrap;" parent="u2Ux1-ScnYIHnxnn0vt9-14" vertex="1">
          <mxGeometry y="60" width="240" height="30" as="geometry" />
        </mxCell>
        <mxCell id="u2Ux1-ScnYIHnxnn0vt9-17" value="SO THAT IT can show the user how many tokens he has on a particular network" style="text;strokeColor=none;fillColor=none;align=left;verticalAlign=middle;spacingLeft=4;spacingRight=4;overflow=hidden;points=[[0,0.5],[1,0.5]];portConstraint=eastwest;rotatable=0;whiteSpace=wrap;" parent="u2Ux1-ScnYIHnxnn0vt9-14" vertex="1">
          <mxGeometry y="90" width="240" height="50" as="geometry" />
        </mxCell>
        <mxCell id="u2Ux1-ScnYIHnxnn0vt9-18" value="Business Value 13" style="text;strokeColor=#d6b656;fillColor=#fff2cc;align=left;verticalAlign=middle;spacingLeft=4;spacingRight=4;overflow=hidden;points=[[0,0.5],[1,0.5]];portConstraint=eastwest;rotatable=0;" parent="u2Ux1-ScnYIHnxnn0vt9-14" vertex="1">
          <mxGeometry y="140" width="240" height="30" as="geometry" />
        </mxCell>
        <mxCell id="u2Ux1-ScnYIHnxnn0vt9-19" value="Effort 3" style="text;strokeColor=#d79b00;fillColor=#ffe6cc;align=left;verticalAlign=middle;spacingLeft=4;spacingRight=4;overflow=hidden;points=[[0,0.5],[1,0.5]];portConstraint=eastwest;rotatable=0;" parent="u2Ux1-ScnYIHnxnn0vt9-14" vertex="1">
          <mxGeometry y="170" width="240" height="30" as="geometry" />
        </mxCell>
        <mxCell id="u2Ux1-ScnYIHnxnn0vt9-20" value="Complexity 8" style="text;strokeColor=#6c8ebf;fillColor=#dae8fc;align=left;verticalAlign=middle;spacingLeft=4;spacingRight=4;overflow=hidden;points=[[0,0.5],[1,0.5]];portConstraint=eastwest;rotatable=0;" parent="u2Ux1-ScnYIHnxnn0vt9-14" vertex="1">
          <mxGeometry y="200" width="240" height="30" as="geometry" />
        </mxCell>
        <mxCell id="u2Ux1-ScnYIHnxnn0vt9-21" value="Quality Criteria" style="text;strokeColor=none;fillColor=none;align=left;verticalAlign=middle;spacingLeft=4;spacingRight=4;overflow=hidden;points=[[0,0.5],[1,0.5]];portConstraint=eastwest;rotatable=0;" parent="u2Ux1-ScnYIHnxnn0vt9-14" vertex="1">
          <mxGeometry y="230" width="240" height="30" as="geometry" />
        </mxCell>
        <mxCell id="u2Ux1-ScnYIHnxnn0vt9-22" value="TS#1.3" style="swimlane;fontStyle=0;childLayout=stackLayout;horizontal=1;startSize=30;horizontalStack=0;resizeParent=1;resizeParentMax=0;resizeLast=0;collapsible=1;marginBottom=0;" parent="1" vertex="1">
          <mxGeometry x="792" y="2620" width="240" height="260" as="geometry">
            <mxRectangle x="-1190" y="1920" width="70" height="30" as="alternateBounds" />
          </mxGeometry>
        </mxCell>
        <mxCell id="u2Ux1-ScnYIHnxnn0vt9-23" value="AS the website" style="text;strokeColor=none;fillColor=none;align=left;verticalAlign=middle;spacingLeft=4;spacingRight=4;overflow=hidden;points=[[0,0.5],[1,0.5]];portConstraint=eastwest;rotatable=0;" parent="u2Ux1-ScnYIHnxnn0vt9-22" vertex="1">
          <mxGeometry y="30" width="240" height="30" as="geometry" />
        </mxCell>
        <mxCell id="u2Ux1-ScnYIHnxnn0vt9-24" value="IT NEEDS TO enquire Metamask for tokens that the users hasn&#39;t selected" style="text;strokeColor=none;fillColor=none;align=left;verticalAlign=middle;spacingLeft=4;spacingRight=4;overflow=hidden;points=[[0,0.5],[1,0.5]];portConstraint=eastwest;rotatable=0;whiteSpace=wrap;" parent="u2Ux1-ScnYIHnxnn0vt9-22" vertex="1">
          <mxGeometry y="60" width="240" height="30" as="geometry" />
        </mxCell>
        <mxCell id="u2Ux1-ScnYIHnxnn0vt9-25" value="SO THAT IT can show the tokens the user purchased in all networks in one board" style="text;strokeColor=none;fillColor=none;align=left;verticalAlign=middle;spacingLeft=4;spacingRight=4;overflow=hidden;points=[[0,0.5],[1,0.5]];portConstraint=eastwest;rotatable=0;whiteSpace=wrap;" parent="u2Ux1-ScnYIHnxnn0vt9-22" vertex="1">
          <mxGeometry y="90" width="240" height="50" as="geometry" />
        </mxCell>
        <mxCell id="u2Ux1-ScnYIHnxnn0vt9-26" value="Business Value 13" style="text;strokeColor=#d6b656;fillColor=#fff2cc;align=left;verticalAlign=middle;spacingLeft=4;spacingRight=4;overflow=hidden;points=[[0,0.5],[1,0.5]];portConstraint=eastwest;rotatable=0;" parent="u2Ux1-ScnYIHnxnn0vt9-22" vertex="1">
          <mxGeometry y="140" width="240" height="30" as="geometry" />
        </mxCell>
        <mxCell id="u2Ux1-ScnYIHnxnn0vt9-27" value="Effort 3" style="text;strokeColor=#d79b00;fillColor=#ffe6cc;align=left;verticalAlign=middle;spacingLeft=4;spacingRight=4;overflow=hidden;points=[[0,0.5],[1,0.5]];portConstraint=eastwest;rotatable=0;" parent="u2Ux1-ScnYIHnxnn0vt9-22" vertex="1">
          <mxGeometry y="170" width="240" height="30" as="geometry" />
        </mxCell>
        <mxCell id="u2Ux1-ScnYIHnxnn0vt9-28" value="Complexity 5" style="text;strokeColor=#6c8ebf;fillColor=#dae8fc;align=left;verticalAlign=middle;spacingLeft=4;spacingRight=4;overflow=hidden;points=[[0,0.5],[1,0.5]];portConstraint=eastwest;rotatable=0;" parent="u2Ux1-ScnYIHnxnn0vt9-22" vertex="1">
          <mxGeometry y="200" width="240" height="30" as="geometry" />
        </mxCell>
        <mxCell id="u2Ux1-ScnYIHnxnn0vt9-29" value="Quality Criteria" style="text;strokeColor=none;fillColor=none;align=left;verticalAlign=middle;spacingLeft=4;spacingRight=4;overflow=hidden;points=[[0,0.5],[1,0.5]];portConstraint=eastwest;rotatable=0;" parent="u2Ux1-ScnYIHnxnn0vt9-22" vertex="1">
          <mxGeometry y="230" width="240" height="30" as="geometry" />
        </mxCell>
        <mxCell id="u2Ux1-ScnYIHnxnn0vt9-30" value="TS#2.1" style="swimlane;fontStyle=0;childLayout=stackLayout;horizontal=1;startSize=30;horizontalStack=0;resizeParent=1;resizeParentMax=0;resizeLast=0;collapsible=1;marginBottom=0;" parent="1" vertex="1">
          <mxGeometry x="250" y="2900" width="240" height="260" as="geometry">
            <mxRectangle x="-1190" y="1920" width="70" height="30" as="alternateBounds" />
          </mxGeometry>
        </mxCell>
        <mxCell id="u2Ux1-ScnYIHnxnn0vt9-31" value="AS the system" style="text;strokeColor=none;fillColor=none;align=left;verticalAlign=middle;spacingLeft=4;spacingRight=4;overflow=hidden;points=[[0,0.5],[1,0.5]];portConstraint=eastwest;rotatable=0;" parent="u2Ux1-ScnYIHnxnn0vt9-30" vertex="1">
          <mxGeometry y="30" width="240" height="30" as="geometry" />
        </mxCell>
        <mxCell id="u2Ux1-ScnYIHnxnn0vt9-32" value="IT NEEDS TO connect with the token smart contracts" style="text;strokeColor=none;fillColor=none;align=left;verticalAlign=middle;spacingLeft=4;spacingRight=4;overflow=hidden;points=[[0,0.5],[1,0.5]];portConstraint=eastwest;rotatable=0;whiteSpace=wrap;" parent="u2Ux1-ScnYIHnxnn0vt9-30" vertex="1">
          <mxGeometry y="60" width="240" height="30" as="geometry" />
        </mxCell>
        <mxCell id="u2Ux1-ScnYIHnxnn0vt9-33" value="SO THAT IT can display the tokens price on the board [Price to be updated every minute]" style="text;strokeColor=none;fillColor=none;align=left;verticalAlign=middle;spacingLeft=4;spacingRight=4;overflow=hidden;points=[[0,0.5],[1,0.5]];portConstraint=eastwest;rotatable=0;whiteSpace=wrap;" parent="u2Ux1-ScnYIHnxnn0vt9-30" vertex="1">
          <mxGeometry y="90" width="240" height="50" as="geometry" />
        </mxCell>
        <mxCell id="u2Ux1-ScnYIHnxnn0vt9-34" value="Business Value 8" style="text;strokeColor=#d6b656;fillColor=#fff2cc;align=left;verticalAlign=middle;spacingLeft=4;spacingRight=4;overflow=hidden;points=[[0,0.5],[1,0.5]];portConstraint=eastwest;rotatable=0;" parent="u2Ux1-ScnYIHnxnn0vt9-30" vertex="1">
          <mxGeometry y="140" width="240" height="30" as="geometry" />
        </mxCell>
        <mxCell id="u2Ux1-ScnYIHnxnn0vt9-35" value="EffortÂ  1" style="text;strokeColor=#d79b00;fillColor=#ffe6cc;align=left;verticalAlign=middle;spacingLeft=4;spacingRight=4;overflow=hidden;points=[[0,0.5],[1,0.5]];portConstraint=eastwest;rotatable=0;" parent="u2Ux1-ScnYIHnxnn0vt9-30" vertex="1">
          <mxGeometry y="170" width="240" height="30" as="geometry" />
        </mxCell>
        <mxCell id="u2Ux1-ScnYIHnxnn0vt9-36" value="Complexity 1" style="text;strokeColor=#6c8ebf;fillColor=#dae8fc;align=left;verticalAlign=middle;spacingLeft=4;spacingRight=4;overflow=hidden;points=[[0,0.5],[1,0.5]];portConstraint=eastwest;rotatable=0;" parent="u2Ux1-ScnYIHnxnn0vt9-30" vertex="1">
          <mxGeometry y="200" width="240" height="30" as="geometry" />
        </mxCell>
        <mxCell id="u2Ux1-ScnYIHnxnn0vt9-37" value="Quality Criteria" style="text;strokeColor=none;fillColor=none;align=left;verticalAlign=middle;spacingLeft=4;spacingRight=4;overflow=hidden;points=[[0,0.5],[1,0.5]];portConstraint=eastwest;rotatable=0;" parent="u2Ux1-ScnYIHnxnn0vt9-30" vertex="1">
          <mxGeometry y="230" width="240" height="30" as="geometry" />
        </mxCell>
        <mxCell id="u2Ux1-ScnYIHnxnn0vt9-38" value="TS#3.1" style="swimlane;fontStyle=0;childLayout=stackLayout;horizontal=1;startSize=30;horizontalStack=0;resizeParent=1;resizeParentMax=0;resizeLast=0;collapsible=1;marginBottom=0;fillColor=#ffcd28;gradientColor=#ffa500;strokeColor=#d79b00;" parent="1" vertex="1">
          <mxGeometry x="250" y="3180" width="240" height="260" as="geometry">
            <mxRectangle x="-1190" y="1920" width="70" height="30" as="alternateBounds" />
          </mxGeometry>
        </mxCell>
        <mxCell id="u2Ux1-ScnYIHnxnn0vt9-39" value="AS the system" style="text;strokeColor=none;fillColor=none;align=left;verticalAlign=middle;spacingLeft=4;spacingRight=4;overflow=hidden;points=[[0,0.5],[1,0.5]];portConstraint=eastwest;rotatable=0;" parent="u2Ux1-ScnYIHnxnn0vt9-38" vertex="1">
          <mxGeometry y="30" width="240" height="30" as="geometry" />
        </mxCell>
        <mxCell id="u2Ux1-ScnYIHnxnn0vt9-40" value="IT NEEDS TO issue buying orders to Metamask specifying the qty and price" style="text;strokeColor=none;fillColor=none;align=left;verticalAlign=middle;spacingLeft=4;spacingRight=4;overflow=hidden;points=[[0,0.5],[1,0.5]];portConstraint=eastwest;rotatable=0;whiteSpace=wrap;" parent="u2Ux1-ScnYIHnxnn0vt9-38" vertex="1">
          <mxGeometry y="60" width="240" height="30" as="geometry" />
        </mxCell>
        <mxCell id="u2Ux1-ScnYIHnxnn0vt9-41" value="SO THAT IT can change the users&#39; exposure to that token" style="text;strokeColor=none;fillColor=none;align=left;verticalAlign=middle;spacingLeft=4;spacingRight=4;overflow=hidden;points=[[0,0.5],[1,0.5]];portConstraint=eastwest;rotatable=0;whiteSpace=wrap;" parent="u2Ux1-ScnYIHnxnn0vt9-38" vertex="1">
          <mxGeometry y="90" width="240" height="50" as="geometry" />
        </mxCell>
        <mxCell id="u2Ux1-ScnYIHnxnn0vt9-42" value="Business Value 20" style="text;strokeColor=#d6b656;fillColor=#fff2cc;align=left;verticalAlign=middle;spacingLeft=4;spacingRight=4;overflow=hidden;points=[[0,0.5],[1,0.5]];portConstraint=eastwest;rotatable=0;" parent="u2Ux1-ScnYIHnxnn0vt9-38" vertex="1">
          <mxGeometry y="140" width="240" height="30" as="geometry" />
        </mxCell>
        <mxCell id="u2Ux1-ScnYIHnxnn0vt9-43" value="EffortÂ  5" style="text;strokeColor=#d79b00;fillColor=#ffe6cc;align=left;verticalAlign=middle;spacingLeft=4;spacingRight=4;overflow=hidden;points=[[0,0.5],[1,0.5]];portConstraint=eastwest;rotatable=0;" parent="u2Ux1-ScnYIHnxnn0vt9-38" vertex="1">
          <mxGeometry y="170" width="240" height="30" as="geometry" />
        </mxCell>
        <mxCell id="u2Ux1-ScnYIHnxnn0vt9-44" value="Complexity 8" style="text;strokeColor=#6c8ebf;fillColor=#dae8fc;align=left;verticalAlign=middle;spacingLeft=4;spacingRight=4;overflow=hidden;points=[[0,0.5],[1,0.5]];portConstraint=eastwest;rotatable=0;" parent="u2Ux1-ScnYIHnxnn0vt9-38" vertex="1">
          <mxGeometry y="200" width="240" height="30" as="geometry" />
        </mxCell>
        <mxCell id="u2Ux1-ScnYIHnxnn0vt9-45" value="Quality Criteria" style="text;strokeColor=none;fillColor=none;align=left;verticalAlign=middle;spacingLeft=4;spacingRight=4;overflow=hidden;points=[[0,0.5],[1,0.5]];portConstraint=eastwest;rotatable=0;" parent="u2Ux1-ScnYIHnxnn0vt9-38" vertex="1">
          <mxGeometry y="230" width="240" height="30" as="geometry" />
        </mxCell>
        <mxCell id="u2Ux1-ScnYIHnxnn0vt9-46" value="TS#3.2" style="swimlane;fontStyle=0;childLayout=stackLayout;horizontal=1;startSize=30;horizontalStack=0;resizeParent=1;resizeParentMax=0;resizeLast=0;collapsible=1;marginBottom=0;fillColor=#ffcd28;gradientColor=#ffa500;strokeColor=#d79b00;" parent="1" vertex="1">
          <mxGeometry x="520" y="3180" width="240" height="260" as="geometry">
            <mxRectangle x="-1190" y="1920" width="70" height="30" as="alternateBounds" />
          </mxGeometry>
        </mxCell>
        <mxCell id="u2Ux1-ScnYIHnxnn0vt9-47" value="AS the system" style="text;strokeColor=none;fillColor=none;align=left;verticalAlign=middle;spacingLeft=4;spacingRight=4;overflow=hidden;points=[[0,0.5],[1,0.5]];portConstraint=eastwest;rotatable=0;" parent="u2Ux1-ScnYIHnxnn0vt9-46" vertex="1">
          <mxGeometry y="30" width="240" height="30" as="geometry" />
        </mxCell>
        <mxCell id="u2Ux1-ScnYIHnxnn0vt9-48" value="IT NEEDS TO issue selling orders to Metamask specifying the qty and price" style="text;strokeColor=none;fillColor=none;align=left;verticalAlign=middle;spacingLeft=4;spacingRight=4;overflow=hidden;points=[[0,0.5],[1,0.5]];portConstraint=eastwest;rotatable=0;whiteSpace=wrap;" parent="u2Ux1-ScnYIHnxnn0vt9-46" vertex="1">
          <mxGeometry y="60" width="240" height="30" as="geometry" />
        </mxCell>
        <mxCell id="u2Ux1-ScnYIHnxnn0vt9-49" value="SO THAT IT can change the users&#39; exposure to that token" style="text;strokeColor=none;fillColor=none;align=left;verticalAlign=middle;spacingLeft=4;spacingRight=4;overflow=hidden;points=[[0,0.5],[1,0.5]];portConstraint=eastwest;rotatable=0;whiteSpace=wrap;" parent="u2Ux1-ScnYIHnxnn0vt9-46" vertex="1">
          <mxGeometry y="90" width="240" height="50" as="geometry" />
        </mxCell>
        <mxCell id="u2Ux1-ScnYIHnxnn0vt9-50" value="Business Value 20" style="text;strokeColor=#d6b656;fillColor=#fff2cc;align=left;verticalAlign=middle;spacingLeft=4;spacingRight=4;overflow=hidden;points=[[0,0.5],[1,0.5]];portConstraint=eastwest;rotatable=0;" parent="u2Ux1-ScnYIHnxnn0vt9-46" vertex="1">
          <mxGeometry y="140" width="240" height="30" as="geometry" />
        </mxCell>
        <mxCell id="u2Ux1-ScnYIHnxnn0vt9-51" value="EffortÂ  5" style="text;strokeColor=#d79b00;fillColor=#ffe6cc;align=left;verticalAlign=middle;spacingLeft=4;spacingRight=4;overflow=hidden;points=[[0,0.5],[1,0.5]];portConstraint=eastwest;rotatable=0;" parent="u2Ux1-ScnYIHnxnn0vt9-46" vertex="1">
          <mxGeometry y="170" width="240" height="30" as="geometry" />
        </mxCell>
        <mxCell id="u2Ux1-ScnYIHnxnn0vt9-52" value="Complexity 8" style="text;strokeColor=#6c8ebf;fillColor=#dae8fc;align=left;verticalAlign=middle;spacingLeft=4;spacingRight=4;overflow=hidden;points=[[0,0.5],[1,0.5]];portConstraint=eastwest;rotatable=0;" parent="u2Ux1-ScnYIHnxnn0vt9-46" vertex="1">
          <mxGeometry y="200" width="240" height="30" as="geometry" />
        </mxCell>
        <mxCell id="u2Ux1-ScnYIHnxnn0vt9-53" value="Quality Criteria" style="text;strokeColor=none;fillColor=none;align=left;verticalAlign=middle;spacingLeft=4;spacingRight=4;overflow=hidden;points=[[0,0.5],[1,0.5]];portConstraint=eastwest;rotatable=0;" parent="u2Ux1-ScnYIHnxnn0vt9-46" vertex="1">
          <mxGeometry y="230" width="240" height="30" as="geometry" />
        </mxCell>
        <mxCell id="u2Ux1-ScnYIHnxnn0vt9-54" value="US#1.4" style="swimlane;fontStyle=0;childLayout=stackLayout;horizontal=1;startSize=30;horizontalStack=0;resizeParent=1;resizeParentMax=0;resizeLast=0;collapsible=1;marginBottom=0;" parent="1" vertex="1">
          <mxGeometry x="1070" y="2620" width="240" height="260" as="geometry">
            <mxRectangle x="-1190" y="1920" width="70" height="30" as="alternateBounds" />
          </mxGeometry>
        </mxCell>
        <mxCell id="u2Ux1-ScnYIHnxnn0vt9-55" value="AS the user" style="text;strokeColor=none;fillColor=none;align=left;verticalAlign=middle;spacingLeft=4;spacingRight=4;overflow=hidden;points=[[0,0.5],[1,0.5]];portConstraint=eastwest;rotatable=0;" parent="u2Ux1-ScnYIHnxnn0vt9-54" vertex="1">
          <mxGeometry y="30" width="240" height="30" as="geometry" />
        </mxCell>
        <mxCell id="u2Ux1-ScnYIHnxnn0vt9-56" value="HE NEEDS TO login to the website with a password" style="text;strokeColor=none;fillColor=none;align=left;verticalAlign=middle;spacingLeft=4;spacingRight=4;overflow=hidden;points=[[0,0.5],[1,0.5]];portConstraint=eastwest;rotatable=0;whiteSpace=wrap;" parent="u2Ux1-ScnYIHnxnn0vt9-54" vertex="1">
          <mxGeometry y="60" width="240" height="30" as="geometry" />
        </mxCell>
        <mxCell id="u2Ux1-ScnYIHnxnn0vt9-57" value="SO THAT his website account isÂ  secured" style="text;strokeColor=none;fillColor=none;align=left;verticalAlign=middle;spacingLeft=4;spacingRight=4;overflow=hidden;points=[[0,0.5],[1,0.5]];portConstraint=eastwest;rotatable=0;whiteSpace=wrap;" parent="u2Ux1-ScnYIHnxnn0vt9-54" vertex="1">
          <mxGeometry y="90" width="240" height="50" as="geometry" />
        </mxCell>
        <mxCell id="u2Ux1-ScnYIHnxnn0vt9-58" value="Business Value 13" style="text;strokeColor=#d6b656;fillColor=#fff2cc;align=left;verticalAlign=middle;spacingLeft=4;spacingRight=4;overflow=hidden;points=[[0,0.5],[1,0.5]];portConstraint=eastwest;rotatable=0;" parent="u2Ux1-ScnYIHnxnn0vt9-54" vertex="1">
          <mxGeometry y="140" width="240" height="30" as="geometry" />
        </mxCell>
        <mxCell id="u2Ux1-ScnYIHnxnn0vt9-59" value="Effort 3" style="text;strokeColor=#d79b00;fillColor=#ffe6cc;align=left;verticalAlign=middle;spacingLeft=4;spacingRight=4;overflow=hidden;points=[[0,0.5],[1,0.5]];portConstraint=eastwest;rotatable=0;" parent="u2Ux1-ScnYIHnxnn0vt9-54" vertex="1">
          <mxGeometry y="170" width="240" height="30" as="geometry" />
        </mxCell>
        <mxCell id="u2Ux1-ScnYIHnxnn0vt9-60" value="Complexity 8" style="text;strokeColor=#6c8ebf;fillColor=#dae8fc;align=left;verticalAlign=middle;spacingLeft=4;spacingRight=4;overflow=hidden;points=[[0,0.5],[1,0.5]];portConstraint=eastwest;rotatable=0;" parent="u2Ux1-ScnYIHnxnn0vt9-54" vertex="1">
          <mxGeometry y="200" width="240" height="30" as="geometry" />
        </mxCell>
        <mxCell id="u2Ux1-ScnYIHnxnn0vt9-61" value="Quality Criteria" style="text;strokeColor=none;fillColor=none;align=left;verticalAlign=middle;spacingLeft=4;spacingRight=4;overflow=hidden;points=[[0,0.5],[1,0.5]];portConstraint=eastwest;rotatable=0;" parent="u2Ux1-ScnYIHnxnn0vt9-54" vertex="1">
          <mxGeometry y="230" width="240" height="30" as="geometry" />
        </mxCell>
        <mxCell id="u2Ux1-ScnYIHnxnn0vt9-62" value="TS#3.4" style="swimlane;fontStyle=0;childLayout=stackLayout;horizontal=1;startSize=30;horizontalStack=0;resizeParent=1;resizeParentMax=0;resizeLast=0;collapsible=1;marginBottom=0;fillColor=#ffcd28;gradientColor=#ffa500;strokeColor=#d79b00;" parent="1" vertex="1">
          <mxGeometry x="792" y="3180" width="240" height="260" as="geometry">
            <mxRectangle x="-1190" y="1920" width="70" height="30" as="alternateBounds" />
          </mxGeometry>
        </mxCell>
        <mxCell id="u2Ux1-ScnYIHnxnn0vt9-63" value="AS the system" style="text;strokeColor=none;fillColor=none;align=left;verticalAlign=middle;spacingLeft=4;spacingRight=4;overflow=hidden;points=[[0,0.5],[1,0.5]];portConstraint=eastwest;rotatable=0;" parent="u2Ux1-ScnYIHnxnn0vt9-62" vertex="1">
          <mxGeometry y="30" width="240" height="30" as="geometry" />
        </mxCell>
        <mxCell id="u2Ux1-ScnYIHnxnn0vt9-64" value="IT NEEDS TO ask the user his password" style="text;strokeColor=none;fillColor=none;align=left;verticalAlign=middle;spacingLeft=4;spacingRight=4;overflow=hidden;points=[[0,0.5],[1,0.5]];portConstraint=eastwest;rotatable=0;whiteSpace=wrap;" parent="u2Ux1-ScnYIHnxnn0vt9-62" vertex="1">
          <mxGeometry y="60" width="240" height="30" as="geometry" />
        </mxCell>
        <mxCell id="u2Ux1-ScnYIHnxnn0vt9-65" value="SO THAT IT can ensure the owner of the account is requesting the transaction" style="text;strokeColor=none;fillColor=none;align=left;verticalAlign=middle;spacingLeft=4;spacingRight=4;overflow=hidden;points=[[0,0.5],[1,0.5]];portConstraint=eastwest;rotatable=0;whiteSpace=wrap;" parent="u2Ux1-ScnYIHnxnn0vt9-62" vertex="1">
          <mxGeometry y="90" width="240" height="50" as="geometry" />
        </mxCell>
        <mxCell id="u2Ux1-ScnYIHnxnn0vt9-66" value="Business Value 20" style="text;strokeColor=#d6b656;fillColor=#fff2cc;align=left;verticalAlign=middle;spacingLeft=4;spacingRight=4;overflow=hidden;points=[[0,0.5],[1,0.5]];portConstraint=eastwest;rotatable=0;" parent="u2Ux1-ScnYIHnxnn0vt9-62" vertex="1">
          <mxGeometry y="140" width="240" height="30" as="geometry" />
        </mxCell>
        <mxCell id="u2Ux1-ScnYIHnxnn0vt9-67" value="EffortÂ  5" style="text;strokeColor=#d79b00;fillColor=#ffe6cc;align=left;verticalAlign=middle;spacingLeft=4;spacingRight=4;overflow=hidden;points=[[0,0.5],[1,0.5]];portConstraint=eastwest;rotatable=0;" parent="u2Ux1-ScnYIHnxnn0vt9-62" vertex="1">
          <mxGeometry y="170" width="240" height="30" as="geometry" />
        </mxCell>
        <mxCell id="u2Ux1-ScnYIHnxnn0vt9-68" value="Complexity 8" style="text;strokeColor=#6c8ebf;fillColor=#dae8fc;align=left;verticalAlign=middle;spacingLeft=4;spacingRight=4;overflow=hidden;points=[[0,0.5],[1,0.5]];portConstraint=eastwest;rotatable=0;" parent="u2Ux1-ScnYIHnxnn0vt9-62" vertex="1">
          <mxGeometry y="200" width="240" height="30" as="geometry" />
        </mxCell>
        <mxCell id="u2Ux1-ScnYIHnxnn0vt9-69" value="Quality Criteria" style="text;strokeColor=none;fillColor=none;align=left;verticalAlign=middle;spacingLeft=4;spacingRight=4;overflow=hidden;points=[[0,0.5],[1,0.5]];portConstraint=eastwest;rotatable=0;" parent="u2Ux1-ScnYIHnxnn0vt9-62" vertex="1">
          <mxGeometry y="230" width="240" height="30" as="geometry" />
        </mxCell>
        <mxCell id="7Yq0cxZVf5I47nGyU1iZ-1" value="TS#4.1" style="swimlane;fontStyle=0;childLayout=stackLayout;horizontal=1;startSize=30;horizontalStack=0;resizeParent=1;resizeParentMax=0;resizeLast=0;collapsible=1;marginBottom=0;" vertex="1" parent="1">
          <mxGeometry x="250" y="3500" width="240" height="260" as="geometry">
            <mxRectangle x="-1190" y="1920" width="70" height="30" as="alternateBounds" />
          </mxGeometry>
        </mxCell>
        <mxCell id="7Yq0cxZVf5I47nGyU1iZ-2" value="AS the system" style="text;strokeColor=none;fillColor=none;align=left;verticalAlign=middle;spacingLeft=4;spacingRight=4;overflow=hidden;points=[[0,0.5],[1,0.5]];portConstraint=eastwest;rotatable=0;" vertex="1" parent="7Yq0cxZVf5I47nGyU1iZ-1">
          <mxGeometry y="30" width="240" height="30" as="geometry" />
        </mxCell>
        <mxCell id="7Yq0cxZVf5I47nGyU1iZ-3" value="IT NEEDS TO exchange the token with the native currency of the first network" style="text;strokeColor=none;fillColor=none;align=left;verticalAlign=middle;spacingLeft=4;spacingRight=4;overflow=hidden;points=[[0,0.5],[1,0.5]];portConstraint=eastwest;rotatable=0;whiteSpace=wrap;" vertex="1" parent="7Yq0cxZVf5I47nGyU1iZ-1">
          <mxGeometry y="60" width="240" height="50" as="geometry" />
        </mxCell>
        <mxCell id="7Yq0cxZVf5I47nGyU1iZ-4" value="SO THAT IT can make the conversion" style="text;strokeColor=none;fillColor=none;align=left;verticalAlign=middle;spacingLeft=4;spacingRight=4;overflow=hidden;points=[[0,0.5],[1,0.5]];portConstraint=eastwest;rotatable=0;whiteSpace=wrap;" vertex="1" parent="7Yq0cxZVf5I47nGyU1iZ-1">
          <mxGeometry y="110" width="240" height="30" as="geometry" />
        </mxCell>
        <mxCell id="7Yq0cxZVf5I47nGyU1iZ-5" value="Business Value 20" style="text;strokeColor=#d6b656;fillColor=#fff2cc;align=left;verticalAlign=middle;spacingLeft=4;spacingRight=4;overflow=hidden;points=[[0,0.5],[1,0.5]];portConstraint=eastwest;rotatable=0;" vertex="1" parent="7Yq0cxZVf5I47nGyU1iZ-1">
          <mxGeometry y="140" width="240" height="30" as="geometry" />
        </mxCell>
        <mxCell id="7Yq0cxZVf5I47nGyU1iZ-6" value="Effort 5" style="text;strokeColor=#d79b00;fillColor=#ffe6cc;align=left;verticalAlign=middle;spacingLeft=4;spacingRight=4;overflow=hidden;points=[[0,0.5],[1,0.5]];portConstraint=eastwest;rotatable=0;" vertex="1" parent="7Yq0cxZVf5I47nGyU1iZ-1">
          <mxGeometry y="170" width="240" height="30" as="geometry" />
        </mxCell>
        <mxCell id="7Yq0cxZVf5I47nGyU1iZ-7" value="Complexity 8" style="text;strokeColor=#6c8ebf;fillColor=#dae8fc;align=left;verticalAlign=middle;spacingLeft=4;spacingRight=4;overflow=hidden;points=[[0,0.5],[1,0.5]];portConstraint=eastwest;rotatable=0;" vertex="1" parent="7Yq0cxZVf5I47nGyU1iZ-1">
          <mxGeometry y="200" width="240" height="30" as="geometry" />
        </mxCell>
        <mxCell id="7Yq0cxZVf5I47nGyU1iZ-8" value="Quality Criteria" style="text;strokeColor=none;fillColor=none;align=left;verticalAlign=middle;spacingLeft=4;spacingRight=4;overflow=hidden;points=[[0,0.5],[1,0.5]];portConstraint=eastwest;rotatable=0;" vertex="1" parent="7Yq0cxZVf5I47nGyU1iZ-1">
          <mxGeometry y="230" width="240" height="30" as="geometry" />
        </mxCell>
        <mxCell id="7Yq0cxZVf5I47nGyU1iZ-9" value="TS#4.2" style="swimlane;fontStyle=0;childLayout=stackLayout;horizontal=1;startSize=30;horizontalStack=0;resizeParent=1;resizeParentMax=0;resizeLast=0;collapsible=1;marginBottom=0;" vertex="1" parent="1">
          <mxGeometry x="520" y="3500" width="240" height="260" as="geometry">
            <mxRectangle x="-1190" y="1920" width="70" height="30" as="alternateBounds" />
          </mxGeometry>
        </mxCell>
        <mxCell id="7Yq0cxZVf5I47nGyU1iZ-10" value="AS the system" style="text;strokeColor=none;fillColor=none;align=left;verticalAlign=middle;spacingLeft=4;spacingRight=4;overflow=hidden;points=[[0,0.5],[1,0.5]];portConstraint=eastwest;rotatable=0;" vertex="1" parent="7Yq0cxZVf5I47nGyU1iZ-9">
          <mxGeometry y="30" width="240" height="30" as="geometry" />
        </mxCell>
        <mxCell id="7Yq0cxZVf5I47nGyU1iZ-11" value="IT NEEDS TO exchange the native currency of the first network with the native currency of the second network" style="text;strokeColor=none;fillColor=none;align=left;verticalAlign=middle;spacingLeft=4;spacingRight=4;overflow=hidden;points=[[0,0.5],[1,0.5]];portConstraint=eastwest;rotatable=0;whiteSpace=wrap;" vertex="1" parent="7Yq0cxZVf5I47nGyU1iZ-9">
          <mxGeometry y="60" width="240" height="50" as="geometry" />
        </mxCell>
        <mxCell id="7Yq0cxZVf5I47nGyU1iZ-12" value="SO THAT IT can make the conversion" style="text;strokeColor=none;fillColor=none;align=left;verticalAlign=middle;spacingLeft=4;spacingRight=4;overflow=hidden;points=[[0,0.5],[1,0.5]];portConstraint=eastwest;rotatable=0;whiteSpace=wrap;" vertex="1" parent="7Yq0cxZVf5I47nGyU1iZ-9">
          <mxGeometry y="110" width="240" height="30" as="geometry" />
        </mxCell>
        <mxCell id="7Yq0cxZVf5I47nGyU1iZ-13" value="Business Value 20" style="text;strokeColor=#d6b656;fillColor=#fff2cc;align=left;verticalAlign=middle;spacingLeft=4;spacingRight=4;overflow=hidden;points=[[0,0.5],[1,0.5]];portConstraint=eastwest;rotatable=0;" vertex="1" parent="7Yq0cxZVf5I47nGyU1iZ-9">
          <mxGeometry y="140" width="240" height="30" as="geometry" />
        </mxCell>
        <mxCell id="7Yq0cxZVf5I47nGyU1iZ-14" value="Effort 8" style="text;strokeColor=#d79b00;fillColor=#ffe6cc;align=left;verticalAlign=middle;spacingLeft=4;spacingRight=4;overflow=hidden;points=[[0,0.5],[1,0.5]];portConstraint=eastwest;rotatable=0;" vertex="1" parent="7Yq0cxZVf5I47nGyU1iZ-9">
          <mxGeometry y="170" width="240" height="30" as="geometry" />
        </mxCell>
        <mxCell id="7Yq0cxZVf5I47nGyU1iZ-15" value="Complexity 13" style="text;strokeColor=#6c8ebf;fillColor=#dae8fc;align=left;verticalAlign=middle;spacingLeft=4;spacingRight=4;overflow=hidden;points=[[0,0.5],[1,0.5]];portConstraint=eastwest;rotatable=0;" vertex="1" parent="7Yq0cxZVf5I47nGyU1iZ-9">
          <mxGeometry y="200" width="240" height="30" as="geometry" />
        </mxCell>
        <mxCell id="7Yq0cxZVf5I47nGyU1iZ-16" value="Quality Criteria" style="text;strokeColor=none;fillColor=none;align=left;verticalAlign=middle;spacingLeft=4;spacingRight=4;overflow=hidden;points=[[0,0.5],[1,0.5]];portConstraint=eastwest;rotatable=0;" vertex="1" parent="7Yq0cxZVf5I47nGyU1iZ-9">
          <mxGeometry y="230" width="240" height="30" as="geometry" />
        </mxCell>
        <mxCell id="7Yq0cxZVf5I47nGyU1iZ-25" value="TS#4.3" style="swimlane;fontStyle=0;childLayout=stackLayout;horizontal=1;startSize=30;horizontalStack=0;resizeParent=1;resizeParentMax=0;resizeLast=0;collapsible=1;marginBottom=0;" vertex="1" parent="1">
          <mxGeometry x="792" y="3500" width="240" height="260" as="geometry">
            <mxRectangle x="-1190" y="1920" width="70" height="30" as="alternateBounds" />
          </mxGeometry>
        </mxCell>
        <mxCell id="7Yq0cxZVf5I47nGyU1iZ-26" value="AS the system" style="text;strokeColor=none;fillColor=none;align=left;verticalAlign=middle;spacingLeft=4;spacingRight=4;overflow=hidden;points=[[0,0.5],[1,0.5]];portConstraint=eastwest;rotatable=0;" vertex="1" parent="7Yq0cxZVf5I47nGyU1iZ-25">
          <mxGeometry y="30" width="240" height="30" as="geometry" />
        </mxCell>
        <mxCell id="7Yq0cxZVf5I47nGyU1iZ-27" value="IT NEEDS TO exchange the native currencyÂ with the token of the second network" style="text;strokeColor=none;fillColor=none;align=left;verticalAlign=middle;spacingLeft=4;spacingRight=4;overflow=hidden;points=[[0,0.5],[1,0.5]];portConstraint=eastwest;rotatable=0;whiteSpace=wrap;" vertex="1" parent="7Yq0cxZVf5I47nGyU1iZ-25">
          <mxGeometry y="60" width="240" height="50" as="geometry" />
        </mxCell>
        <mxCell id="7Yq0cxZVf5I47nGyU1iZ-28" value="SO THAT IT can make the conversion" style="text;strokeColor=none;fillColor=none;align=left;verticalAlign=middle;spacingLeft=4;spacingRight=4;overflow=hidden;points=[[0,0.5],[1,0.5]];portConstraint=eastwest;rotatable=0;whiteSpace=wrap;" vertex="1" parent="7Yq0cxZVf5I47nGyU1iZ-25">
          <mxGeometry y="110" width="240" height="30" as="geometry" />
        </mxCell>
        <mxCell id="7Yq0cxZVf5I47nGyU1iZ-29" value="Business Value 20" style="text;strokeColor=#d6b656;fillColor=#fff2cc;align=left;verticalAlign=middle;spacingLeft=4;spacingRight=4;overflow=hidden;points=[[0,0.5],[1,0.5]];portConstraint=eastwest;rotatable=0;" vertex="1" parent="7Yq0cxZVf5I47nGyU1iZ-25">
          <mxGeometry y="140" width="240" height="30" as="geometry" />
        </mxCell>
        <mxCell id="7Yq0cxZVf5I47nGyU1iZ-30" value="Effort 5" style="text;strokeColor=#d79b00;fillColor=#ffe6cc;align=left;verticalAlign=middle;spacingLeft=4;spacingRight=4;overflow=hidden;points=[[0,0.5],[1,0.5]];portConstraint=eastwest;rotatable=0;" vertex="1" parent="7Yq0cxZVf5I47nGyU1iZ-25">
          <mxGeometry y="170" width="240" height="30" as="geometry" />
        </mxCell>
        <mxCell id="7Yq0cxZVf5I47nGyU1iZ-31" value="Complexity 8" style="text;strokeColor=#6c8ebf;fillColor=#dae8fc;align=left;verticalAlign=middle;spacingLeft=4;spacingRight=4;overflow=hidden;points=[[0,0.5],[1,0.5]];portConstraint=eastwest;rotatable=0;" vertex="1" parent="7Yq0cxZVf5I47nGyU1iZ-25">
          <mxGeometry y="200" width="240" height="30" as="geometry" />
        </mxCell>
        <mxCell id="7Yq0cxZVf5I47nGyU1iZ-32" value="Quality Criteria" style="text;strokeColor=none;fillColor=none;align=left;verticalAlign=middle;spacingLeft=4;spacingRight=4;overflow=hidden;points=[[0,0.5],[1,0.5]];portConstraint=eastwest;rotatable=0;" vertex="1" parent="7Yq0cxZVf5I47nGyU1iZ-25">
          <mxGeometry y="230" width="240" height="30" as="geometry" />
        </mxCell>
        <mxCell id="7Yq0cxZVf5I47nGyU1iZ-33" value="TS#5.1" style="swimlane;fontStyle=0;childLayout=stackLayout;horizontal=1;startSize=30;horizontalStack=0;resizeParent=1;resizeParentMax=0;resizeLast=0;collapsible=1;marginBottom=0;" vertex="1" parent="1">
          <mxGeometry x="250" y="3820" width="240" height="260" as="geometry">
            <mxRectangle x="-1190" y="1920" width="70" height="30" as="alternateBounds" />
          </mxGeometry>
        </mxCell>
        <mxCell id="7Yq0cxZVf5I47nGyU1iZ-34" value="AS the system" style="text;strokeColor=none;fillColor=none;align=left;verticalAlign=middle;spacingLeft=4;spacingRight=4;overflow=hidden;points=[[0,0.5],[1,0.5]];portConstraint=eastwest;rotatable=0;" vertex="1" parent="7Yq0cxZVf5I47nGyU1iZ-33">
          <mxGeometry y="30" width="240" height="30" as="geometry" />
        </mxCell>
        <mxCell id="7Yq0cxZVf5I47nGyU1iZ-35" value="IT NEEDS TO exchange the token A with the native currency of the first network" style="text;strokeColor=none;fillColor=none;align=left;verticalAlign=middle;spacingLeft=4;spacingRight=4;overflow=hidden;points=[[0,0.5],[1,0.5]];portConstraint=eastwest;rotatable=0;whiteSpace=wrap;" vertex="1" parent="7Yq0cxZVf5I47nGyU1iZ-33">
          <mxGeometry y="60" width="240" height="50" as="geometry" />
        </mxCell>
        <mxCell id="7Yq0cxZVf5I47nGyU1iZ-36" value="SO THAT IT can make the conversion" style="text;strokeColor=none;fillColor=none;align=left;verticalAlign=middle;spacingLeft=4;spacingRight=4;overflow=hidden;points=[[0,0.5],[1,0.5]];portConstraint=eastwest;rotatable=0;whiteSpace=wrap;" vertex="1" parent="7Yq0cxZVf5I47nGyU1iZ-33">
          <mxGeometry y="110" width="240" height="30" as="geometry" />
        </mxCell>
        <mxCell id="7Yq0cxZVf5I47nGyU1iZ-37" value="Business Value 20" style="text;strokeColor=#d6b656;fillColor=#fff2cc;align=left;verticalAlign=middle;spacingLeft=4;spacingRight=4;overflow=hidden;points=[[0,0.5],[1,0.5]];portConstraint=eastwest;rotatable=0;" vertex="1" parent="7Yq0cxZVf5I47nGyU1iZ-33">
          <mxGeometry y="140" width="240" height="30" as="geometry" />
        </mxCell>
        <mxCell id="7Yq0cxZVf5I47nGyU1iZ-38" value="Effort 5" style="text;strokeColor=#d79b00;fillColor=#ffe6cc;align=left;verticalAlign=middle;spacingLeft=4;spacingRight=4;overflow=hidden;points=[[0,0.5],[1,0.5]];portConstraint=eastwest;rotatable=0;" vertex="1" parent="7Yq0cxZVf5I47nGyU1iZ-33">
          <mxGeometry y="170" width="240" height="30" as="geometry" />
        </mxCell>
        <mxCell id="7Yq0cxZVf5I47nGyU1iZ-39" value="Complexity 8" style="text;strokeColor=#6c8ebf;fillColor=#dae8fc;align=left;verticalAlign=middle;spacingLeft=4;spacingRight=4;overflow=hidden;points=[[0,0.5],[1,0.5]];portConstraint=eastwest;rotatable=0;" vertex="1" parent="7Yq0cxZVf5I47nGyU1iZ-33">
          <mxGeometry y="200" width="240" height="30" as="geometry" />
        </mxCell>
        <mxCell id="7Yq0cxZVf5I47nGyU1iZ-40" value="Quality Criteria" style="text;strokeColor=none;fillColor=none;align=left;verticalAlign=middle;spacingLeft=4;spacingRight=4;overflow=hidden;points=[[0,0.5],[1,0.5]];portConstraint=eastwest;rotatable=0;" vertex="1" parent="7Yq0cxZVf5I47nGyU1iZ-33">
          <mxGeometry y="230" width="240" height="30" as="geometry" />
        </mxCell>
        <mxCell id="7Yq0cxZVf5I47nGyU1iZ-41" value="TS#5.2" style="swimlane;fontStyle=0;childLayout=stackLayout;horizontal=1;startSize=30;horizontalStack=0;resizeParent=1;resizeParentMax=0;resizeLast=0;collapsible=1;marginBottom=0;" vertex="1" parent="1">
          <mxGeometry x="520" y="3820" width="240" height="260" as="geometry">
            <mxRectangle x="-1190" y="1920" width="70" height="30" as="alternateBounds" />
          </mxGeometry>
        </mxCell>
        <mxCell id="7Yq0cxZVf5I47nGyU1iZ-42" value="AS the system" style="text;strokeColor=none;fillColor=none;align=left;verticalAlign=middle;spacingLeft=4;spacingRight=4;overflow=hidden;points=[[0,0.5],[1,0.5]];portConstraint=eastwest;rotatable=0;" vertex="1" parent="7Yq0cxZVf5I47nGyU1iZ-41">
          <mxGeometry y="30" width="240" height="30" as="geometry" />
        </mxCell>
        <mxCell id="7Yq0cxZVf5I47nGyU1iZ-43" value="IT NEEDS TO exchange the native currency of the first network with the native currency of the second network" style="text;strokeColor=none;fillColor=none;align=left;verticalAlign=middle;spacingLeft=4;spacingRight=4;overflow=hidden;points=[[0,0.5],[1,0.5]];portConstraint=eastwest;rotatable=0;whiteSpace=wrap;" vertex="1" parent="7Yq0cxZVf5I47nGyU1iZ-41">
          <mxGeometry y="60" width="240" height="50" as="geometry" />
        </mxCell>
        <mxCell id="7Yq0cxZVf5I47nGyU1iZ-44" value="SO THAT IT can make the conversion" style="text;strokeColor=none;fillColor=none;align=left;verticalAlign=middle;spacingLeft=4;spacingRight=4;overflow=hidden;points=[[0,0.5],[1,0.5]];portConstraint=eastwest;rotatable=0;whiteSpace=wrap;" vertex="1" parent="7Yq0cxZVf5I47nGyU1iZ-41">
          <mxGeometry y="110" width="240" height="30" as="geometry" />
        </mxCell>
        <mxCell id="7Yq0cxZVf5I47nGyU1iZ-45" value="Business Value 20" style="text;strokeColor=#d6b656;fillColor=#fff2cc;align=left;verticalAlign=middle;spacingLeft=4;spacingRight=4;overflow=hidden;points=[[0,0.5],[1,0.5]];portConstraint=eastwest;rotatable=0;" vertex="1" parent="7Yq0cxZVf5I47nGyU1iZ-41">
          <mxGeometry y="140" width="240" height="30" as="geometry" />
        </mxCell>
        <mxCell id="7Yq0cxZVf5I47nGyU1iZ-46" value="Effort 8" style="text;strokeColor=#d79b00;fillColor=#ffe6cc;align=left;verticalAlign=middle;spacingLeft=4;spacingRight=4;overflow=hidden;points=[[0,0.5],[1,0.5]];portConstraint=eastwest;rotatable=0;" vertex="1" parent="7Yq0cxZVf5I47nGyU1iZ-41">
          <mxGeometry y="170" width="240" height="30" as="geometry" />
        </mxCell>
        <mxCell id="7Yq0cxZVf5I47nGyU1iZ-47" value="Complexity 13" style="text;strokeColor=#6c8ebf;fillColor=#dae8fc;align=left;verticalAlign=middle;spacingLeft=4;spacingRight=4;overflow=hidden;points=[[0,0.5],[1,0.5]];portConstraint=eastwest;rotatable=0;" vertex="1" parent="7Yq0cxZVf5I47nGyU1iZ-41">
          <mxGeometry y="200" width="240" height="30" as="geometry" />
        </mxCell>
        <mxCell id="7Yq0cxZVf5I47nGyU1iZ-48" value="Quality Criteria" style="text;strokeColor=none;fillColor=none;align=left;verticalAlign=middle;spacingLeft=4;spacingRight=4;overflow=hidden;points=[[0,0.5],[1,0.5]];portConstraint=eastwest;rotatable=0;" vertex="1" parent="7Yq0cxZVf5I47nGyU1iZ-41">
          <mxGeometry y="230" width="240" height="30" as="geometry" />
        </mxCell>
        <mxCell id="7Yq0cxZVf5I47nGyU1iZ-49" value="TS#5.3" style="swimlane;fontStyle=0;childLayout=stackLayout;horizontal=1;startSize=30;horizontalStack=0;resizeParent=1;resizeParentMax=0;resizeLast=0;collapsible=1;marginBottom=0;" vertex="1" parent="1">
          <mxGeometry x="792" y="3820" width="240" height="260" as="geometry">
            <mxRectangle x="-1190" y="1920" width="70" height="30" as="alternateBounds" />
          </mxGeometry>
        </mxCell>
        <mxCell id="7Yq0cxZVf5I47nGyU1iZ-50" value="AS the system" style="text;strokeColor=none;fillColor=none;align=left;verticalAlign=middle;spacingLeft=4;spacingRight=4;overflow=hidden;points=[[0,0.5],[1,0.5]];portConstraint=eastwest;rotatable=0;" vertex="1" parent="7Yq0cxZVf5I47nGyU1iZ-49">
          <mxGeometry y="30" width="240" height="30" as="geometry" />
        </mxCell>
        <mxCell id="7Yq0cxZVf5I47nGyU1iZ-51" value="IT NEEDS TO exchange the native currencyÂ with the token B of the second network" style="text;strokeColor=none;fillColor=none;align=left;verticalAlign=middle;spacingLeft=4;spacingRight=4;overflow=hidden;points=[[0,0.5],[1,0.5]];portConstraint=eastwest;rotatable=0;whiteSpace=wrap;" vertex="1" parent="7Yq0cxZVf5I47nGyU1iZ-49">
          <mxGeometry y="60" width="240" height="50" as="geometry" />
        </mxCell>
        <mxCell id="7Yq0cxZVf5I47nGyU1iZ-52" value="SO THAT IT can make the conversion" style="text;strokeColor=none;fillColor=none;align=left;verticalAlign=middle;spacingLeft=4;spacingRight=4;overflow=hidden;points=[[0,0.5],[1,0.5]];portConstraint=eastwest;rotatable=0;whiteSpace=wrap;" vertex="1" parent="7Yq0cxZVf5I47nGyU1iZ-49">
          <mxGeometry y="110" width="240" height="30" as="geometry" />
        </mxCell>
        <mxCell id="7Yq0cxZVf5I47nGyU1iZ-53" value="Business Value 20" style="text;strokeColor=#d6b656;fillColor=#fff2cc;align=left;verticalAlign=middle;spacingLeft=4;spacingRight=4;overflow=hidden;points=[[0,0.5],[1,0.5]];portConstraint=eastwest;rotatable=0;" vertex="1" parent="7Yq0cxZVf5I47nGyU1iZ-49">
          <mxGeometry y="140" width="240" height="30" as="geometry" />
        </mxCell>
        <mxCell id="7Yq0cxZVf5I47nGyU1iZ-54" value="Effort 5" style="text;strokeColor=#d79b00;fillColor=#ffe6cc;align=left;verticalAlign=middle;spacingLeft=4;spacingRight=4;overflow=hidden;points=[[0,0.5],[1,0.5]];portConstraint=eastwest;rotatable=0;" vertex="1" parent="7Yq0cxZVf5I47nGyU1iZ-49">
          <mxGeometry y="170" width="240" height="30" as="geometry" />
        </mxCell>
        <mxCell id="7Yq0cxZVf5I47nGyU1iZ-55" value="Complexity 8" style="text;strokeColor=#6c8ebf;fillColor=#dae8fc;align=left;verticalAlign=middle;spacingLeft=4;spacingRight=4;overflow=hidden;points=[[0,0.5],[1,0.5]];portConstraint=eastwest;rotatable=0;" vertex="1" parent="7Yq0cxZVf5I47nGyU1iZ-49">
          <mxGeometry y="200" width="240" height="30" as="geometry" />
        </mxCell>
        <mxCell id="7Yq0cxZVf5I47nGyU1iZ-56" value="Quality Criteria" style="text;strokeColor=none;fillColor=none;align=left;verticalAlign=middle;spacingLeft=4;spacingRight=4;overflow=hidden;points=[[0,0.5],[1,0.5]];portConstraint=eastwest;rotatable=0;" vertex="1" parent="7Yq0cxZVf5I47nGyU1iZ-49">
          <mxGeometry y="230" width="240" height="30" as="geometry" />
        </mxCell>
        <mxCell id="7Yq0cxZVf5I47nGyU1iZ-65" value="US#3.5" style="swimlane;fontStyle=0;childLayout=stackLayout;horizontal=1;startSize=30;horizontalStack=0;resizeParent=1;resizeParentMax=0;resizeLast=0;collapsible=1;marginBottom=0;" vertex="1" parent="1">
          <mxGeometry x="1060" y="3180" width="240" height="260" as="geometry">
            <mxRectangle x="-1190" y="1920" width="70" height="30" as="alternateBounds" />
          </mxGeometry>
        </mxCell>
        <mxCell id="7Yq0cxZVf5I47nGyU1iZ-66" value="AS the user" style="text;strokeColor=none;fillColor=none;align=left;verticalAlign=middle;spacingLeft=4;spacingRight=4;overflow=hidden;points=[[0,0.5],[1,0.5]];portConstraint=eastwest;rotatable=0;" vertex="1" parent="7Yq0cxZVf5I47nGyU1iZ-65">
          <mxGeometry y="30" width="240" height="30" as="geometry" />
        </mxCell>
        <mxCell id="7Yq0cxZVf5I47nGyU1iZ-67" value="HE NEEDS TO select the priority and gas fee of the transactions" style="text;strokeColor=none;fillColor=none;align=left;verticalAlign=middle;spacingLeft=4;spacingRight=4;overflow=hidden;points=[[0,0.5],[1,0.5]];portConstraint=eastwest;rotatable=0;whiteSpace=wrap;" vertex="1" parent="7Yq0cxZVf5I47nGyU1iZ-65">
          <mxGeometry y="60" width="240" height="30" as="geometry" />
        </mxCell>
        <mxCell id="7Yq0cxZVf5I47nGyU1iZ-68" value="SO THAT execute orders before volatility compromise the buying/selling price" style="text;strokeColor=none;fillColor=none;align=left;verticalAlign=middle;spacingLeft=4;spacingRight=4;overflow=hidden;points=[[0,0.5],[1,0.5]];portConstraint=eastwest;rotatable=0;whiteSpace=wrap;" vertex="1" parent="7Yq0cxZVf5I47nGyU1iZ-65">
          <mxGeometry y="90" width="240" height="50" as="geometry" />
        </mxCell>
        <mxCell id="7Yq0cxZVf5I47nGyU1iZ-69" value="Business Value 13" style="text;strokeColor=#d6b656;fillColor=#fff2cc;align=left;verticalAlign=middle;spacingLeft=4;spacingRight=4;overflow=hidden;points=[[0,0.5],[1,0.5]];portConstraint=eastwest;rotatable=0;" vertex="1" parent="7Yq0cxZVf5I47nGyU1iZ-65">
          <mxGeometry y="140" width="240" height="30" as="geometry" />
        </mxCell>
        <mxCell id="7Yq0cxZVf5I47nGyU1iZ-70" value="Effort 3" style="text;strokeColor=#d79b00;fillColor=#ffe6cc;align=left;verticalAlign=middle;spacingLeft=4;spacingRight=4;overflow=hidden;points=[[0,0.5],[1,0.5]];portConstraint=eastwest;rotatable=0;" vertex="1" parent="7Yq0cxZVf5I47nGyU1iZ-65">
          <mxGeometry y="170" width="240" height="30" as="geometry" />
        </mxCell>
        <mxCell id="7Yq0cxZVf5I47nGyU1iZ-71" value="Complexity 8" style="text;strokeColor=#6c8ebf;fillColor=#dae8fc;align=left;verticalAlign=middle;spacingLeft=4;spacingRight=4;overflow=hidden;points=[[0,0.5],[1,0.5]];portConstraint=eastwest;rotatable=0;" vertex="1" parent="7Yq0cxZVf5I47nGyU1iZ-65">
          <mxGeometry y="200" width="240" height="30" as="geometry" />
        </mxCell>
        <mxCell id="7Yq0cxZVf5I47nGyU1iZ-72" value="Quality Criteria" style="text;strokeColor=none;fillColor=none;align=left;verticalAlign=middle;spacingLeft=4;spacingRight=4;overflow=hidden;points=[[0,0.5],[1,0.5]];portConstraint=eastwest;rotatable=0;" vertex="1" parent="7Yq0cxZVf5I47nGyU1iZ-65">
          <mxGeometry y="230" width="240" height="30" as="geometry" />
        </mxCell>
        <mxCell id="7Yq0cxZVf5I47nGyU1iZ-73" value="UCEP&lt;br&gt;Product&lt;br&gt;Backlog" style="shape=trapezoid;perimeter=trapezoidPerimeter;whiteSpace=wrap;html=1;fixedSize=1;" vertex="1" parent="1">
          <mxGeometry x="720" y="2520" width="120" height="60" as="geometry" />
        </mxCell>
        <mxCell id="7Yq0cxZVf5I47nGyU1iZ-76" value="" style="endArrow=classic;html=1;rounded=0;entryX=1;entryY=0.5;entryDx=0;entryDy=0;exitX=0;exitY=0.5;exitDx=0;exitDy=0;" edge="1" parent="1" source="7Yq0cxZVf5I47nGyU1iZ-73" target="k1PRUhjrjEu_5gplpjs3-6">
          <mxGeometry width="50" height="50" relative="1" as="geometry">
            <mxPoint x="230" y="2540" as="sourcePoint" />
            <mxPoint x="280" y="2490" as="targetPoint" />
          </mxGeometry>
        </mxCell>
        <mxCell id="7Yq0cxZVf5I47nGyU1iZ-77" value="" style="endArrow=classic;html=1;rounded=0;exitX=1;exitY=0.5;exitDx=0;exitDy=0;entryX=1;entryY=0;entryDx=0;entryDy=0;" edge="1" parent="1" source="7Yq0cxZVf5I47nGyU1iZ-73" target="7Yq0cxZVf5I47nGyU1iZ-103">
          <mxGeometry width="50" height="50" relative="1" as="geometry">
            <mxPoint x="800" y="2530" as="sourcePoint" />
            <mxPoint x="850" y="2480" as="targetPoint" />
            <Array as="points">
              <mxPoint x="1840" y="2550" />
            </Array>
          </mxGeometry>
        </mxCell>
        <mxCell id="7Yq0cxZVf5I47nGyU1iZ-78" value="" style="endArrow=classic;html=1;rounded=0;exitX=1;exitY=0;exitDx=0;exitDy=0;entryX=0;entryY=0;entryDx=0;entryDy=0;" edge="1" parent="1" source="k1PRUhjrjEu_5gplpjs3-8" target="u2Ux1-ScnYIHnxnn0vt9-6">
          <mxGeometry width="50" height="50" relative="1" as="geometry">
            <mxPoint x="160" y="2660" as="sourcePoint" />
            <mxPoint x="210" y="2610" as="targetPoint" />
          </mxGeometry>
        </mxCell>
        <mxCell id="7Yq0cxZVf5I47nGyU1iZ-79" value="" style="endArrow=classic;html=1;rounded=0;exitX=1;exitY=0;exitDx=0;exitDy=0;entryX=0;entryY=0;entryDx=0;entryDy=0;" edge="1" parent="1">
          <mxGeometry width="50" height="50" relative="1" as="geometry">
            <mxPoint x="121" y="2900" as="sourcePoint" />
            <mxPoint x="250" y="2900" as="targetPoint" />
          </mxGeometry>
        </mxCell>
        <mxCell id="7Yq0cxZVf5I47nGyU1iZ-80" value="" style="endArrow=classic;html=1;rounded=0;exitX=1;exitY=0;exitDx=0;exitDy=0;entryX=0;entryY=0;entryDx=0;entryDy=0;" edge="1" parent="1">
          <mxGeometry width="50" height="50" relative="1" as="geometry">
            <mxPoint x="121" y="3180" as="sourcePoint" />
            <mxPoint x="250" y="3180" as="targetPoint" />
          </mxGeometry>
        </mxCell>
        <mxCell id="7Yq0cxZVf5I47nGyU1iZ-81" value="" style="endArrow=classic;html=1;rounded=0;exitX=1;exitY=0;exitDx=0;exitDy=0;entryX=0;entryY=0;entryDx=0;entryDy=0;" edge="1" parent="1">
          <mxGeometry width="50" height="50" relative="1" as="geometry">
            <mxPoint x="121" y="3500" as="sourcePoint" />
            <mxPoint x="250" y="3500" as="targetPoint" />
          </mxGeometry>
        </mxCell>
        <mxCell id="7Yq0cxZVf5I47nGyU1iZ-82" value="" style="endArrow=classic;html=1;rounded=0;exitX=1;exitY=0;exitDx=0;exitDy=0;entryX=0;entryY=0;entryDx=0;entryDy=0;" edge="1" parent="1">
          <mxGeometry width="50" height="50" relative="1" as="geometry">
            <mxPoint x="121" y="3819.8199999999993" as="sourcePoint" />
            <mxPoint x="250" y="3819.8199999999993" as="targetPoint" />
          </mxGeometry>
        </mxCell>
        <mxCell id="7Yq0cxZVf5I47nGyU1iZ-83" value="TS#3.6" style="swimlane;fontStyle=0;childLayout=stackLayout;horizontal=1;startSize=30;horizontalStack=0;resizeParent=1;resizeParentMax=0;resizeLast=0;collapsible=1;marginBottom=0;labelBackgroundColor=none;fillColor=#ffcd28;strokeColor=#d79b00;gradientColor=#ffa500;" vertex="1" parent="1">
          <mxGeometry x="1330" y="3180" width="240" height="260" as="geometry">
            <mxRectangle x="-1190" y="1920" width="70" height="30" as="alternateBounds" />
          </mxGeometry>
        </mxCell>
        <mxCell id="7Yq0cxZVf5I47nGyU1iZ-84" value="AS the system" style="text;strokeColor=none;fillColor=none;align=left;verticalAlign=middle;spacingLeft=4;spacingRight=4;overflow=hidden;points=[[0,0.5],[1,0.5]];portConstraint=eastwest;rotatable=0;" vertex="1" parent="7Yq0cxZVf5I47nGyU1iZ-83">
          <mxGeometry y="30" width="240" height="30" as="geometry" />
        </mxCell>
        <mxCell id="7Yq0cxZVf5I47nGyU1iZ-85" value="IT NEEDS TO connect to a Exchange Smart Contract" style="text;strokeColor=none;fillColor=none;align=left;verticalAlign=middle;spacingLeft=4;spacingRight=4;overflow=hidden;points=[[0,0.5],[1,0.5]];portConstraint=eastwest;rotatable=0;whiteSpace=wrap;" vertex="1" parent="7Yq0cxZVf5I47nGyU1iZ-83">
          <mxGeometry y="60" width="240" height="30" as="geometry" />
        </mxCell>
        <mxCell id="7Yq0cxZVf5I47nGyU1iZ-86" value="SO THAT IT can communicate with ERC20 and ERC721 tokens on ethereum to make the exchanges" style="text;strokeColor=none;fillColor=none;align=left;verticalAlign=middle;spacingLeft=4;spacingRight=4;overflow=hidden;points=[[0,0.5],[1,0.5]];portConstraint=eastwest;rotatable=0;whiteSpace=wrap;" vertex="1" parent="7Yq0cxZVf5I47nGyU1iZ-83">
          <mxGeometry y="90" width="240" height="50" as="geometry" />
        </mxCell>
        <mxCell id="7Yq0cxZVf5I47nGyU1iZ-87" value="Business Value 20" style="text;strokeColor=#d6b656;fillColor=#fff2cc;align=left;verticalAlign=middle;spacingLeft=4;spacingRight=4;overflow=hidden;points=[[0,0.5],[1,0.5]];portConstraint=eastwest;rotatable=0;" vertex="1" parent="7Yq0cxZVf5I47nGyU1iZ-83">
          <mxGeometry y="140" width="240" height="30" as="geometry" />
        </mxCell>
        <mxCell id="7Yq0cxZVf5I47nGyU1iZ-88" value="EffortÂ  5" style="text;strokeColor=#d79b00;fillColor=#ffe6cc;align=left;verticalAlign=middle;spacingLeft=4;spacingRight=4;overflow=hidden;points=[[0,0.5],[1,0.5]];portConstraint=eastwest;rotatable=0;" vertex="1" parent="7Yq0cxZVf5I47nGyU1iZ-83">
          <mxGeometry y="170" width="240" height="30" as="geometry" />
        </mxCell>
        <mxCell id="7Yq0cxZVf5I47nGyU1iZ-89" value="Complexity 8" style="text;strokeColor=#6c8ebf;fillColor=#dae8fc;align=left;verticalAlign=middle;spacingLeft=4;spacingRight=4;overflow=hidden;points=[[0,0.5],[1,0.5]];portConstraint=eastwest;rotatable=0;" vertex="1" parent="7Yq0cxZVf5I47nGyU1iZ-83">
          <mxGeometry y="200" width="240" height="30" as="geometry" />
        </mxCell>
        <mxCell id="7Yq0cxZVf5I47nGyU1iZ-90" value="Quality Criteria" style="text;strokeColor=none;fillColor=none;align=left;verticalAlign=middle;spacingLeft=4;spacingRight=4;overflow=hidden;points=[[0,0.5],[1,0.5]];portConstraint=eastwest;rotatable=0;" vertex="1" parent="7Yq0cxZVf5I47nGyU1iZ-83">
          <mxGeometry y="230" width="240" height="30" as="geometry" />
        </mxCell>
        <mxCell id="7Yq0cxZVf5I47nGyU1iZ-91" value="TS#5.4" style="swimlane;fontStyle=0;childLayout=stackLayout;horizontal=1;startSize=30;horizontalStack=0;resizeParent=1;resizeParentMax=0;resizeLast=0;collapsible=1;marginBottom=0;" vertex="1" parent="1">
          <mxGeometry x="1070" y="3820" width="240" height="260" as="geometry">
            <mxRectangle x="-1190" y="1920" width="70" height="30" as="alternateBounds" />
          </mxGeometry>
        </mxCell>
        <mxCell id="7Yq0cxZVf5I47nGyU1iZ-92" value="AS the system" style="text;strokeColor=none;fillColor=none;align=left;verticalAlign=middle;spacingLeft=4;spacingRight=4;overflow=hidden;points=[[0,0.5],[1,0.5]];portConstraint=eastwest;rotatable=0;" vertex="1" parent="7Yq0cxZVf5I47nGyU1iZ-91">
          <mxGeometry y="30" width="240" height="30" as="geometry" />
        </mxCell>
        <mxCell id="7Yq0cxZVf5I47nGyU1iZ-93" value="IT NEEDS TO connect to bridge Smart Contracts" style="text;strokeColor=none;fillColor=none;align=left;verticalAlign=middle;spacingLeft=4;spacingRight=4;overflow=hidden;points=[[0,0.5],[1,0.5]];portConstraint=eastwest;rotatable=0;whiteSpace=wrap;" vertex="1" parent="7Yq0cxZVf5I47nGyU1iZ-91">
          <mxGeometry y="60" width="240" height="30" as="geometry" />
        </mxCell>
        <mxCell id="7Yq0cxZVf5I47nGyU1iZ-94" value="SO THAT IT can communicate with ERC20 and ERC721 tokens of the specified networks" style="text;strokeColor=none;fillColor=none;align=left;verticalAlign=middle;spacingLeft=4;spacingRight=4;overflow=hidden;points=[[0,0.5],[1,0.5]];portConstraint=eastwest;rotatable=0;whiteSpace=wrap;" vertex="1" parent="7Yq0cxZVf5I47nGyU1iZ-91">
          <mxGeometry y="90" width="240" height="50" as="geometry" />
        </mxCell>
        <mxCell id="7Yq0cxZVf5I47nGyU1iZ-95" value="Business Value 20" style="text;strokeColor=#d6b656;fillColor=#fff2cc;align=left;verticalAlign=middle;spacingLeft=4;spacingRight=4;overflow=hidden;points=[[0,0.5],[1,0.5]];portConstraint=eastwest;rotatable=0;" vertex="1" parent="7Yq0cxZVf5I47nGyU1iZ-91">
          <mxGeometry y="140" width="240" height="30" as="geometry" />
        </mxCell>
        <mxCell id="7Yq0cxZVf5I47nGyU1iZ-96" value="EffortÂ  13" style="text;strokeColor=#d79b00;fillColor=#ffe6cc;align=left;verticalAlign=middle;spacingLeft=4;spacingRight=4;overflow=hidden;points=[[0,0.5],[1,0.5]];portConstraint=eastwest;rotatable=0;" vertex="1" parent="7Yq0cxZVf5I47nGyU1iZ-91">
          <mxGeometry y="170" width="240" height="30" as="geometry" />
        </mxCell>
        <mxCell id="7Yq0cxZVf5I47nGyU1iZ-97" value="Complexity 20" style="text;strokeColor=#6c8ebf;fillColor=#dae8fc;align=left;verticalAlign=middle;spacingLeft=4;spacingRight=4;overflow=hidden;points=[[0,0.5],[1,0.5]];portConstraint=eastwest;rotatable=0;" vertex="1" parent="7Yq0cxZVf5I47nGyU1iZ-91">
          <mxGeometry y="200" width="240" height="30" as="geometry" />
        </mxCell>
        <mxCell id="7Yq0cxZVf5I47nGyU1iZ-98" value="Quality Criteria" style="text;strokeColor=none;fillColor=none;align=left;verticalAlign=middle;spacingLeft=4;spacingRight=4;overflow=hidden;points=[[0,0.5],[1,0.5]];portConstraint=eastwest;rotatable=0;" vertex="1" parent="7Yq0cxZVf5I47nGyU1iZ-91">
          <mxGeometry y="230" width="240" height="30" as="geometry" />
        </mxCell>
        <mxCell id="7Yq0cxZVf5I47nGyU1iZ-99" value="Starting Up a Project [SU]&lt;br&gt;&amp;amp;&lt;br&gt;Initiating a Project [IP]" style="shape=dataStorage;whiteSpace=wrap;html=1;fixedSize=1;" vertex="1" parent="1">
          <mxGeometry x="-630" y="3180" width="270" height="130" as="geometry" />
        </mxCell>
        <mxCell id="7Yq0cxZVf5I47nGyU1iZ-100" value="" style="endArrow=classic;html=1;rounded=0;exitX=0.5;exitY=0;exitDx=0;exitDy=0;entryX=0;entryY=0.5;entryDx=0;entryDy=0;" edge="1" parent="1" source="7Yq0cxZVf5I47nGyU1iZ-99" target="k1PRUhjrjEu_5gplpjs3-6">
          <mxGeometry width="50" height="50" relative="1" as="geometry">
            <mxPoint x="-450" y="2950" as="sourcePoint" />
            <mxPoint x="-400" y="2900" as="targetPoint" />
            <Array as="points">
              <mxPoint x="-500" y="2550" />
            </Array>
          </mxGeometry>
        </mxCell>
        <mxCell id="7Yq0cxZVf5I47nGyU1iZ-101" value="" style="endArrow=classic;html=1;rounded=0;entryX=-0.004;entryY=0.08;entryDx=0;entryDy=0;entryPerimeter=0;exitX=0.5;exitY=1;exitDx=0;exitDy=0;" edge="1" parent="1" source="7Yq0cxZVf5I47nGyU1iZ-99" target="k1PRUhjrjEu_5gplpjs3-40">
          <mxGeometry width="50" height="50" relative="1" as="geometry">
            <mxPoint x="-500" y="3650" as="sourcePoint" />
            <mxPoint x="-450" y="3600" as="targetPoint" />
            <Array as="points">
              <mxPoint x="-490" y="3840" />
            </Array>
          </mxGeometry>
        </mxCell>
        <mxCell id="7Yq0cxZVf5I47nGyU1iZ-102" value="Sprint&lt;br&gt;Backlog 1&lt;br&gt;27/7/22 - 29/08/22" style="rounded=1;whiteSpace=wrap;html=1;" vertex="1" parent="1">
          <mxGeometry x="-60" y="4430" width="120" height="60" as="geometry" />
        </mxCell>
        <mxCell id="7Yq0cxZVf5I47nGyU1iZ-103" value="US#3.7" style="swimlane;fontStyle=0;childLayout=stackLayout;horizontal=1;startSize=30;horizontalStack=0;resizeParent=1;resizeParentMax=0;resizeLast=0;collapsible=1;marginBottom=0;fillColor=#ffcd28;strokeColor=#d79b00;gradientColor=#ffa500;" vertex="1" parent="1">
          <mxGeometry x="1600" y="3180" width="240" height="260" as="geometry">
            <mxRectangle x="-1190" y="1920" width="70" height="30" as="alternateBounds" />
          </mxGeometry>
        </mxCell>
        <mxCell id="7Yq0cxZVf5I47nGyU1iZ-104" value="AS the User" style="text;strokeColor=none;fillColor=none;align=left;verticalAlign=middle;spacingLeft=4;spacingRight=4;overflow=hidden;points=[[0,0.5],[1,0.5]];portConstraint=eastwest;rotatable=0;" vertex="1" parent="7Yq0cxZVf5I47nGyU1iZ-103">
          <mxGeometry y="30" width="240" height="30" as="geometry" />
        </mxCell>
        <mxCell id="7Yq0cxZVf5I47nGyU1iZ-105" value="HE WANTS TO acquire UCEP ERC20 token of the exchange" style="text;strokeColor=none;fillColor=none;align=left;verticalAlign=middle;spacingLeft=4;spacingRight=4;overflow=hidden;points=[[0,0.5],[1,0.5]];portConstraint=eastwest;rotatable=0;whiteSpace=wrap;" vertex="1" parent="7Yq0cxZVf5I47nGyU1iZ-103">
          <mxGeometry y="60" width="240" height="30" as="geometry" />
        </mxCell>
        <mxCell id="7Yq0cxZVf5I47nGyU1iZ-106" value="SO THAT he can stake and being involved in UCEP Improvement Protocol [UIP]" style="text;strokeColor=none;fillColor=none;align=left;verticalAlign=middle;spacingLeft=4;spacingRight=4;overflow=hidden;points=[[0,0.5],[1,0.5]];portConstraint=eastwest;rotatable=0;whiteSpace=wrap;" vertex="1" parent="7Yq0cxZVf5I47nGyU1iZ-103">
          <mxGeometry y="90" width="240" height="50" as="geometry" />
        </mxCell>
        <mxCell id="7Yq0cxZVf5I47nGyU1iZ-107" value="Business Value 8" style="text;strokeColor=#d6b656;fillColor=#fff2cc;align=left;verticalAlign=middle;spacingLeft=4;spacingRight=4;overflow=hidden;points=[[0,0.5],[1,0.5]];portConstraint=eastwest;rotatable=0;" vertex="1" parent="7Yq0cxZVf5I47nGyU1iZ-103">
          <mxGeometry y="140" width="240" height="30" as="geometry" />
        </mxCell>
        <mxCell id="7Yq0cxZVf5I47nGyU1iZ-108" value="EffortÂ  3" style="text;strokeColor=#d79b00;fillColor=#ffe6cc;align=left;verticalAlign=middle;spacingLeft=4;spacingRight=4;overflow=hidden;points=[[0,0.5],[1,0.5]];portConstraint=eastwest;rotatable=0;" vertex="1" parent="7Yq0cxZVf5I47nGyU1iZ-103">
          <mxGeometry y="170" width="240" height="30" as="geometry" />
        </mxCell>
        <mxCell id="7Yq0cxZVf5I47nGyU1iZ-109" value="Complexity 5" style="text;strokeColor=#6c8ebf;fillColor=#dae8fc;align=left;verticalAlign=middle;spacingLeft=4;spacingRight=4;overflow=hidden;points=[[0,0.5],[1,0.5]];portConstraint=eastwest;rotatable=0;" vertex="1" parent="7Yq0cxZVf5I47nGyU1iZ-103">
          <mxGeometry y="200" width="240" height="30" as="geometry" />
        </mxCell>
        <mxCell id="7Yq0cxZVf5I47nGyU1iZ-110" value="Quality Criteria" style="text;strokeColor=none;fillColor=none;align=left;verticalAlign=middle;spacingLeft=4;spacingRight=4;overflow=hidden;points=[[0,0.5],[1,0.5]];portConstraint=eastwest;rotatable=0;" vertex="1" parent="7Yq0cxZVf5I47nGyU1iZ-103">
          <mxGeometry y="230" width="240" height="30" as="geometry" />
        </mxCell>
        <mxCell id="7Yq0cxZVf5I47nGyU1iZ-111" value="" style="endArrow=classic;html=1;rounded=0;entryX=0.5;entryY=0;entryDx=0;entryDy=0;exitX=0.5;exitY=1;exitDx=0;exitDy=0;" edge="1" parent="1" source="k1PRUhjrjEu_5gplpjs3-52" target="7Yq0cxZVf5I47nGyU1iZ-102">
          <mxGeometry width="50" height="50" relative="1" as="geometry">
            <mxPoint x="-170" y="4400" as="sourcePoint" />
            <mxPoint x="-120" y="4350" as="targetPoint" />
          </mxGeometry>
        </mxCell>
        <mxCell id="7Yq0cxZVf5I47nGyU1iZ-156" value="" style="swimlane;startSize=0;fillColor=none;" vertex="1" parent="1">
          <mxGeometry x="-60" y="4520" width="1440" height="310" as="geometry">
            <mxRectangle x="-60" y="4520" width="50" height="40" as="alternateBounds" />
          </mxGeometry>
        </mxCell>
        <mxCell id="7Yq0cxZVf5I47nGyU1iZ-121" value="US#3.7" style="swimlane;fontStyle=0;childLayout=stackLayout;horizontal=1;startSize=30;horizontalStack=0;resizeParent=1;resizeParentMax=0;resizeLast=0;collapsible=1;marginBottom=0;fillColor=#ffcd28;gradientColor=#ffa500;strokeColor=#d79b00;" vertex="1" parent="7Yq0cxZVf5I47nGyU1iZ-156">
          <mxGeometry x="320" y="30" width="240" height="260" as="geometry">
            <mxRectangle x="-1190" y="1920" width="70" height="30" as="alternateBounds" />
          </mxGeometry>
        </mxCell>
        <mxCell id="7Yq0cxZVf5I47nGyU1iZ-122" value="AS the User" style="text;strokeColor=none;fillColor=none;align=left;verticalAlign=middle;spacingLeft=4;spacingRight=4;overflow=hidden;points=[[0,0.5],[1,0.5]];portConstraint=eastwest;rotatable=0;" vertex="1" parent="7Yq0cxZVf5I47nGyU1iZ-121">
          <mxGeometry y="30" width="240" height="30" as="geometry" />
        </mxCell>
        <mxCell id="7Yq0cxZVf5I47nGyU1iZ-123" value="HE WANTS TO acquire UCEP ERC20 token of the exchange" style="text;strokeColor=none;fillColor=none;align=left;verticalAlign=middle;spacingLeft=4;spacingRight=4;overflow=hidden;points=[[0,0.5],[1,0.5]];portConstraint=eastwest;rotatable=0;whiteSpace=wrap;" vertex="1" parent="7Yq0cxZVf5I47nGyU1iZ-121">
          <mxGeometry y="60" width="240" height="30" as="geometry" />
        </mxCell>
        <mxCell id="7Yq0cxZVf5I47nGyU1iZ-124" value="SO THAT he can stake and being involved in UCEP Improvement Protocol [UIP]" style="text;strokeColor=none;fillColor=none;align=left;verticalAlign=middle;spacingLeft=4;spacingRight=4;overflow=hidden;points=[[0,0.5],[1,0.5]];portConstraint=eastwest;rotatable=0;whiteSpace=wrap;" vertex="1" parent="7Yq0cxZVf5I47nGyU1iZ-121">
          <mxGeometry y="90" width="240" height="50" as="geometry" />
        </mxCell>
        <mxCell id="7Yq0cxZVf5I47nGyU1iZ-125" value="Business Value 8" style="text;strokeColor=#d6b656;fillColor=#fff2cc;align=left;verticalAlign=middle;spacingLeft=4;spacingRight=4;overflow=hidden;points=[[0,0.5],[1,0.5]];portConstraint=eastwest;rotatable=0;" vertex="1" parent="7Yq0cxZVf5I47nGyU1iZ-121">
          <mxGeometry y="140" width="240" height="30" as="geometry" />
        </mxCell>
        <mxCell id="7Yq0cxZVf5I47nGyU1iZ-126" value="EffortÂ  3" style="text;strokeColor=#d79b00;fillColor=#ffe6cc;align=left;verticalAlign=middle;spacingLeft=4;spacingRight=4;overflow=hidden;points=[[0,0.5],[1,0.5]];portConstraint=eastwest;rotatable=0;" vertex="1" parent="7Yq0cxZVf5I47nGyU1iZ-121">
          <mxGeometry y="170" width="240" height="30" as="geometry" />
        </mxCell>
        <mxCell id="7Yq0cxZVf5I47nGyU1iZ-127" value="Complexity 5" style="text;strokeColor=#6c8ebf;fillColor=#dae8fc;align=left;verticalAlign=middle;spacingLeft=4;spacingRight=4;overflow=hidden;points=[[0,0.5],[1,0.5]];portConstraint=eastwest;rotatable=0;" vertex="1" parent="7Yq0cxZVf5I47nGyU1iZ-121">
          <mxGeometry y="200" width="240" height="30" as="geometry" />
        </mxCell>
        <mxCell id="7Yq0cxZVf5I47nGyU1iZ-128" value="Quality Criteria" style="text;strokeColor=none;fillColor=none;align=left;verticalAlign=middle;spacingLeft=4;spacingRight=4;overflow=hidden;points=[[0,0.5],[1,0.5]];portConstraint=eastwest;rotatable=0;" vertex="1" parent="7Yq0cxZVf5I47nGyU1iZ-121">
          <mxGeometry y="230" width="240" height="30" as="geometry" />
        </mxCell>
        <mxCell id="7Yq0cxZVf5I47nGyU1iZ-145" value="TS#3.4" style="swimlane;fontStyle=0;childLayout=stackLayout;horizontal=1;startSize=30;horizontalStack=0;resizeParent=1;resizeParentMax=0;resizeLast=0;collapsible=1;marginBottom=0;fillColor=#ffcd28;gradientColor=#ffa500;strokeColor=#d79b00;" vertex="1" parent="7Yq0cxZVf5I47nGyU1iZ-156">
          <mxGeometry x="600" y="30" width="240" height="260" as="geometry">
            <mxRectangle x="-1190" y="1920" width="70" height="30" as="alternateBounds" />
          </mxGeometry>
        </mxCell>
        <mxCell id="7Yq0cxZVf5I47nGyU1iZ-146" value="AS the system" style="text;strokeColor=none;fillColor=none;align=left;verticalAlign=middle;spacingLeft=4;spacingRight=4;overflow=hidden;points=[[0,0.5],[1,0.5]];portConstraint=eastwest;rotatable=0;" vertex="1" parent="7Yq0cxZVf5I47nGyU1iZ-145">
          <mxGeometry y="30" width="240" height="30" as="geometry" />
        </mxCell>
        <mxCell id="7Yq0cxZVf5I47nGyU1iZ-147" value="IT NEEDS TO ask the user his password" style="text;strokeColor=none;fillColor=none;align=left;verticalAlign=middle;spacingLeft=4;spacingRight=4;overflow=hidden;points=[[0,0.5],[1,0.5]];portConstraint=eastwest;rotatable=0;whiteSpace=wrap;" vertex="1" parent="7Yq0cxZVf5I47nGyU1iZ-145">
          <mxGeometry y="60" width="240" height="30" as="geometry" />
        </mxCell>
        <mxCell id="7Yq0cxZVf5I47nGyU1iZ-148" value="SO THAT IT can ensure the owner of the account is requesting the transaction" style="text;strokeColor=none;fillColor=none;align=left;verticalAlign=middle;spacingLeft=4;spacingRight=4;overflow=hidden;points=[[0,0.5],[1,0.5]];portConstraint=eastwest;rotatable=0;whiteSpace=wrap;" vertex="1" parent="7Yq0cxZVf5I47nGyU1iZ-145">
          <mxGeometry y="90" width="240" height="50" as="geometry" />
        </mxCell>
        <mxCell id="7Yq0cxZVf5I47nGyU1iZ-149" value="Business Value 20" style="text;strokeColor=#d6b656;fillColor=#fff2cc;align=left;verticalAlign=middle;spacingLeft=4;spacingRight=4;overflow=hidden;points=[[0,0.5],[1,0.5]];portConstraint=eastwest;rotatable=0;" vertex="1" parent="7Yq0cxZVf5I47nGyU1iZ-145">
          <mxGeometry y="140" width="240" height="30" as="geometry" />
        </mxCell>
        <mxCell id="7Yq0cxZVf5I47nGyU1iZ-150" value="EffortÂ  5" style="text;strokeColor=#d79b00;fillColor=#ffe6cc;align=left;verticalAlign=middle;spacingLeft=4;spacingRight=4;overflow=hidden;points=[[0,0.5],[1,0.5]];portConstraint=eastwest;rotatable=0;" vertex="1" parent="7Yq0cxZVf5I47nGyU1iZ-145">
          <mxGeometry y="170" width="240" height="30" as="geometry" />
        </mxCell>
        <mxCell id="7Yq0cxZVf5I47nGyU1iZ-151" value="Complexity 8" style="text;strokeColor=#6c8ebf;fillColor=#dae8fc;align=left;verticalAlign=middle;spacingLeft=4;spacingRight=4;overflow=hidden;points=[[0,0.5],[1,0.5]];portConstraint=eastwest;rotatable=0;" vertex="1" parent="7Yq0cxZVf5I47nGyU1iZ-145">
          <mxGeometry y="200" width="240" height="30" as="geometry" />
        </mxCell>
        <mxCell id="7Yq0cxZVf5I47nGyU1iZ-152" value="Quality Criteria" style="text;strokeColor=none;fillColor=none;align=left;verticalAlign=middle;spacingLeft=4;spacingRight=4;overflow=hidden;points=[[0,0.5],[1,0.5]];portConstraint=eastwest;rotatable=0;" vertex="1" parent="7Yq0cxZVf5I47nGyU1iZ-145">
          <mxGeometry y="230" width="240" height="30" as="geometry" />
        </mxCell>
        <mxCell id="7Yq0cxZVf5I47nGyU1iZ-129" value="TS#3.1" style="swimlane;fontStyle=0;childLayout=stackLayout;horizontal=1;startSize=30;horizontalStack=0;resizeParent=1;resizeParentMax=0;resizeLast=0;collapsible=1;marginBottom=0;fillColor=#ffcd28;gradientColor=#ffa500;strokeColor=#d79b00;" vertex="1" parent="7Yq0cxZVf5I47nGyU1iZ-156">
          <mxGeometry x="880" y="30" width="240" height="260" as="geometry">
            <mxRectangle x="-1190" y="1920" width="70" height="30" as="alternateBounds" />
          </mxGeometry>
        </mxCell>
        <mxCell id="7Yq0cxZVf5I47nGyU1iZ-130" value="AS the system" style="text;strokeColor=none;fillColor=none;align=left;verticalAlign=middle;spacingLeft=4;spacingRight=4;overflow=hidden;points=[[0,0.5],[1,0.5]];portConstraint=eastwest;rotatable=0;" vertex="1" parent="7Yq0cxZVf5I47nGyU1iZ-129">
          <mxGeometry y="30" width="240" height="30" as="geometry" />
        </mxCell>
        <mxCell id="7Yq0cxZVf5I47nGyU1iZ-131" value="IT NEEDS TO issue buying orders to Metamask specifying the qty and price" style="text;strokeColor=none;fillColor=none;align=left;verticalAlign=middle;spacingLeft=4;spacingRight=4;overflow=hidden;points=[[0,0.5],[1,0.5]];portConstraint=eastwest;rotatable=0;whiteSpace=wrap;" vertex="1" parent="7Yq0cxZVf5I47nGyU1iZ-129">
          <mxGeometry y="60" width="240" height="30" as="geometry" />
        </mxCell>
        <mxCell id="7Yq0cxZVf5I47nGyU1iZ-132" value="SO THAT IT can change the users&#39; exposure to that token" style="text;strokeColor=none;fillColor=none;align=left;verticalAlign=middle;spacingLeft=4;spacingRight=4;overflow=hidden;points=[[0,0.5],[1,0.5]];portConstraint=eastwest;rotatable=0;whiteSpace=wrap;" vertex="1" parent="7Yq0cxZVf5I47nGyU1iZ-129">
          <mxGeometry y="90" width="240" height="50" as="geometry" />
        </mxCell>
        <mxCell id="7Yq0cxZVf5I47nGyU1iZ-133" value="Business Value 20" style="text;strokeColor=#d6b656;fillColor=#fff2cc;align=left;verticalAlign=middle;spacingLeft=4;spacingRight=4;overflow=hidden;points=[[0,0.5],[1,0.5]];portConstraint=eastwest;rotatable=0;" vertex="1" parent="7Yq0cxZVf5I47nGyU1iZ-129">
          <mxGeometry y="140" width="240" height="30" as="geometry" />
        </mxCell>
        <mxCell id="7Yq0cxZVf5I47nGyU1iZ-134" value="EffortÂ  5" style="text;strokeColor=#d79b00;fillColor=#ffe6cc;align=left;verticalAlign=middle;spacingLeft=4;spacingRight=4;overflow=hidden;points=[[0,0.5],[1,0.5]];portConstraint=eastwest;rotatable=0;" vertex="1" parent="7Yq0cxZVf5I47nGyU1iZ-129">
          <mxGeometry y="170" width="240" height="30" as="geometry" />
        </mxCell>
        <mxCell id="7Yq0cxZVf5I47nGyU1iZ-135" value="Complexity 8" style="text;strokeColor=#6c8ebf;fillColor=#dae8fc;align=left;verticalAlign=middle;spacingLeft=4;spacingRight=4;overflow=hidden;points=[[0,0.5],[1,0.5]];portConstraint=eastwest;rotatable=0;" vertex="1" parent="7Yq0cxZVf5I47nGyU1iZ-129">
          <mxGeometry y="200" width="240" height="30" as="geometry" />
        </mxCell>
        <mxCell id="7Yq0cxZVf5I47nGyU1iZ-136" value="Quality Criteria" style="text;strokeColor=none;fillColor=none;align=left;verticalAlign=middle;spacingLeft=4;spacingRight=4;overflow=hidden;points=[[0,0.5],[1,0.5]];portConstraint=eastwest;rotatable=0;" vertex="1" parent="7Yq0cxZVf5I47nGyU1iZ-129">
          <mxGeometry y="230" width="240" height="30" as="geometry" />
        </mxCell>
        <mxCell id="7Yq0cxZVf5I47nGyU1iZ-137" value="TS#3.2" style="swimlane;fontStyle=0;childLayout=stackLayout;horizontal=1;startSize=30;horizontalStack=0;resizeParent=1;resizeParentMax=0;resizeLast=0;collapsible=1;marginBottom=0;fillColor=#ffcd28;gradientColor=#ffa500;strokeColor=#d79b00;" vertex="1" parent="7Yq0cxZVf5I47nGyU1iZ-156">
          <mxGeometry x="1160" y="30" width="240" height="260" as="geometry">
            <mxRectangle x="-1190" y="1920" width="70" height="30" as="alternateBounds" />
          </mxGeometry>
        </mxCell>
        <mxCell id="7Yq0cxZVf5I47nGyU1iZ-138" value="AS the system" style="text;strokeColor=none;fillColor=none;align=left;verticalAlign=middle;spacingLeft=4;spacingRight=4;overflow=hidden;points=[[0,0.5],[1,0.5]];portConstraint=eastwest;rotatable=0;" vertex="1" parent="7Yq0cxZVf5I47nGyU1iZ-137">
          <mxGeometry y="30" width="240" height="30" as="geometry" />
        </mxCell>
        <mxCell id="7Yq0cxZVf5I47nGyU1iZ-139" value="IT NEEDS TO issue selling orders to Metamask specifying the qty and price" style="text;strokeColor=none;fillColor=none;align=left;verticalAlign=middle;spacingLeft=4;spacingRight=4;overflow=hidden;points=[[0,0.5],[1,0.5]];portConstraint=eastwest;rotatable=0;whiteSpace=wrap;" vertex="1" parent="7Yq0cxZVf5I47nGyU1iZ-137">
          <mxGeometry y="60" width="240" height="30" as="geometry" />
        </mxCell>
        <mxCell id="7Yq0cxZVf5I47nGyU1iZ-140" value="SO THAT IT can change the users&#39; exposure to that token" style="text;strokeColor=none;fillColor=none;align=left;verticalAlign=middle;spacingLeft=4;spacingRight=4;overflow=hidden;points=[[0,0.5],[1,0.5]];portConstraint=eastwest;rotatable=0;whiteSpace=wrap;" vertex="1" parent="7Yq0cxZVf5I47nGyU1iZ-137">
          <mxGeometry y="90" width="240" height="50" as="geometry" />
        </mxCell>
        <mxCell id="7Yq0cxZVf5I47nGyU1iZ-141" value="Business Value 20" style="text;strokeColor=#d6b656;fillColor=#fff2cc;align=left;verticalAlign=middle;spacingLeft=4;spacingRight=4;overflow=hidden;points=[[0,0.5],[1,0.5]];portConstraint=eastwest;rotatable=0;" vertex="1" parent="7Yq0cxZVf5I47nGyU1iZ-137">
          <mxGeometry y="140" width="240" height="30" as="geometry" />
        </mxCell>
        <mxCell id="7Yq0cxZVf5I47nGyU1iZ-142" value="EffortÂ  5" style="text;strokeColor=#d79b00;fillColor=#ffe6cc;align=left;verticalAlign=middle;spacingLeft=4;spacingRight=4;overflow=hidden;points=[[0,0.5],[1,0.5]];portConstraint=eastwest;rotatable=0;" vertex="1" parent="7Yq0cxZVf5I47nGyU1iZ-137">
          <mxGeometry y="170" width="240" height="30" as="geometry" />
        </mxCell>
        <mxCell id="7Yq0cxZVf5I47nGyU1iZ-143" value="Complexity 8" style="text;strokeColor=#6c8ebf;fillColor=#dae8fc;align=left;verticalAlign=middle;spacingLeft=4;spacingRight=4;overflow=hidden;points=[[0,0.5],[1,0.5]];portConstraint=eastwest;rotatable=0;" vertex="1" parent="7Yq0cxZVf5I47nGyU1iZ-137">
          <mxGeometry y="200" width="240" height="30" as="geometry" />
        </mxCell>
        <mxCell id="7Yq0cxZVf5I47nGyU1iZ-144" value="Quality Criteria" style="text;strokeColor=none;fillColor=none;align=left;verticalAlign=middle;spacingLeft=4;spacingRight=4;overflow=hidden;points=[[0,0.5],[1,0.5]];portConstraint=eastwest;rotatable=0;" vertex="1" parent="7Yq0cxZVf5I47nGyU1iZ-137">
          <mxGeometry y="230" width="240" height="30" as="geometry" />
        </mxCell>
        <mxCell id="7Yq0cxZVf5I47nGyU1iZ-113" value="TS#3.6" style="swimlane;fontStyle=0;childLayout=stackLayout;horizontal=1;startSize=30;horizontalStack=0;resizeParent=1;resizeParentMax=0;resizeLast=0;collapsible=1;marginBottom=0;fillColor=#ffcd28;gradientColor=#ffa500;strokeColor=#d79b00;" vertex="1" parent="7Yq0cxZVf5I47nGyU1iZ-156">
          <mxGeometry x="40" y="30" width="240" height="260" as="geometry">
            <mxRectangle x="-1190" y="1920" width="70" height="30" as="alternateBounds" />
          </mxGeometry>
        </mxCell>
        <mxCell id="7Yq0cxZVf5I47nGyU1iZ-114" value="AS the system" style="text;strokeColor=none;fillColor=none;align=left;verticalAlign=middle;spacingLeft=4;spacingRight=4;overflow=hidden;points=[[0,0.5],[1,0.5]];portConstraint=eastwest;rotatable=0;" vertex="1" parent="7Yq0cxZVf5I47nGyU1iZ-113">
          <mxGeometry y="30" width="240" height="30" as="geometry" />
        </mxCell>
        <mxCell id="7Yq0cxZVf5I47nGyU1iZ-115" value="IT NEEDS TO connect to a Exchange Smart Contract" style="text;strokeColor=none;fillColor=none;align=left;verticalAlign=middle;spacingLeft=4;spacingRight=4;overflow=hidden;points=[[0,0.5],[1,0.5]];portConstraint=eastwest;rotatable=0;whiteSpace=wrap;" vertex="1" parent="7Yq0cxZVf5I47nGyU1iZ-113">
          <mxGeometry y="60" width="240" height="30" as="geometry" />
        </mxCell>
        <mxCell id="7Yq0cxZVf5I47nGyU1iZ-116" value="SO THAT IT can communicate with ERC20 and ERC721 tokens on ethereum to make the exchanges" style="text;strokeColor=none;fillColor=none;align=left;verticalAlign=middle;spacingLeft=4;spacingRight=4;overflow=hidden;points=[[0,0.5],[1,0.5]];portConstraint=eastwest;rotatable=0;whiteSpace=wrap;" vertex="1" parent="7Yq0cxZVf5I47nGyU1iZ-113">
          <mxGeometry y="90" width="240" height="50" as="geometry" />
        </mxCell>
        <mxCell id="7Yq0cxZVf5I47nGyU1iZ-117" value="Business Value 20" style="text;strokeColor=#d6b656;fillColor=#fff2cc;align=left;verticalAlign=middle;spacingLeft=4;spacingRight=4;overflow=hidden;points=[[0,0.5],[1,0.5]];portConstraint=eastwest;rotatable=0;" vertex="1" parent="7Yq0cxZVf5I47nGyU1iZ-113">
          <mxGeometry y="140" width="240" height="30" as="geometry" />
        </mxCell>
        <mxCell id="7Yq0cxZVf5I47nGyU1iZ-118" value="EffortÂ  5" style="text;strokeColor=#d79b00;fillColor=#ffe6cc;align=left;verticalAlign=middle;spacingLeft=4;spacingRight=4;overflow=hidden;points=[[0,0.5],[1,0.5]];portConstraint=eastwest;rotatable=0;" vertex="1" parent="7Yq0cxZVf5I47nGyU1iZ-113">
          <mxGeometry y="170" width="240" height="30" as="geometry" />
        </mxCell>
        <mxCell id="7Yq0cxZVf5I47nGyU1iZ-119" value="Complexity 8" style="text;strokeColor=#6c8ebf;fillColor=#dae8fc;align=left;verticalAlign=middle;spacingLeft=4;spacingRight=4;overflow=hidden;points=[[0,0.5],[1,0.5]];portConstraint=eastwest;rotatable=0;" vertex="1" parent="7Yq0cxZVf5I47nGyU1iZ-113">
          <mxGeometry y="200" width="240" height="30" as="geometry" />
        </mxCell>
        <mxCell id="7Yq0cxZVf5I47nGyU1iZ-120" value="Quality Criteria" style="text;strokeColor=none;fillColor=none;align=left;verticalAlign=middle;spacingLeft=4;spacingRight=4;overflow=hidden;points=[[0,0.5],[1,0.5]];portConstraint=eastwest;rotatable=0;" vertex="1" parent="7Yq0cxZVf5I47nGyU1iZ-113">
          <mxGeometry y="230" width="240" height="30" as="geometry" />
        </mxCell>
      </root>
    </mxGraphModel>
  </diagram>
</mxfile>
